<svg version="1.1" id="Layer_1" xmlns="http://www.w3.org/2000/svg" x="0" y="0" viewBox="0 0 70 71" style="enable-background:new 0 0 70 71" xml:space="preserve"><style>.st0{fill:#fff}</style><path class="st0" d="M0 29zM0 47.5v-.2.2zM.3 17.9v-.8.8zM35.1 55.8h-.2.2zM11.8 55.7h.3c-.1-.1-.2 0-.3 0zM.9 12v.3-.3zM3.8 2.1c-.1 0 0 0 0 0zM1 5.2c0 .1-.1.2-.1.3 0-.1.1-.2.1-.3zM.9 5.7v-.1.1zM8.8.4c-.3 0-.6 0-.9.1l.9-.1zM69.5 50.9c0 .1 0 0 0 0zM8.4.8h-.2.2zM1.1 18v1-1zM68.3 43.2V43v.2zM8.4.8h.3H8.4zM69.9 13.5zM70 11.5v.4-.4zM7.9.5h-.5.5zM55.7.2h.2c-.1-.1-.2-.1-.2 0zM10.4 55.6h-.2s0 .1.2 0zM25 54.5zM24.2 54.6c.2 0 .6 0 .8-.1-.3 0-.5 0-.8.1zM26.7 54.5c-.1 0-.1 0 0 0-.1 0-.1 0 0 0zM10.9 54.5s.1 0 0 0zM14.1 54.4h.2c-.1.1-.2.1-.2 0zM34.4 54.4z"/><path class="st0" d="M63.6 54H54.2c-.6.1-1.6.1-2.5.1l-.1-.1h-.8c-.3 0 .6 0 0-.1l-.3.1c-.1 0-2 0-.7-.1h-3c-.7 0-.4.1-1.1.1-.1 0 .3 0 .2-.1-2.2-.1-2.6.2-4.6.2h.2-1c.3.1.4-.1 1 0-.1.1-.8.1-.7.1h-1.2c-.7-.1-1.7 0-2.3-.1-.4 0-.7.1-1.5.1-.5-.1.1-.1-.6-.1l-.1.1c-.6 0-.5 0-.5-.1-.6 0-.5.1-1.3 0l.5-.1h-1.7.6c-.5-.1-.8 0-1 0 .1 0 .6 0 .4.1-.4 0-.9.1-1.2 0l.5-.1c-.9 0-.5.1-1.5 0 .1 0 0 0 0 0-.6.1-1.4 0-2.4 0h.2c-.4 0-.6.1-.8.1.5 0 .4 0 .4.1-.7-.1-1.1.1-2.2.1 0 0 .3-.1.6 0 .4-.1.4-.2 1.1-.2H26l-.1.1h-.7c-.1.1.5.1-.1.1-.7 0-.4-.1-.5-.1-.9 0-.4.1-1.3.1h.3c-.6 0-1.6 0-1.8-.1.1 0 .1-.1.4 0 .7-.1-.6 0-.4-.1 0 .1-.9 0-1.3 0l.1.1c-1.4.2.1-.1-1.3-.1-.9 0 .3 0-.2.1-.6 0-.8-.1-1.6 0-.2 0-.7-.1-.8-.1h-1.9c.9.1.9-.1 1.9 0l-.3.1h-2.1.1c-1 0-1.3.1-2.3.1-.1-.1.4-.1.9-.1-.6-.1-.7 0-1.7 0-.1-.1.7 0 .8-.1H11c-.2.1-.8 0-1.5 0-.8 0-1.3 0-1.6.1-.2 0-.3 0-.5.1h-.6c-.2 0-.3-.1-.2-.1H7 6.3c-.2-.1-.2-.1-.1-.1H6c.1 0 .2.1 0 0-.4-.1-.7-.2-1-.3l.2.1H4.9c-.1 0-.2-.1-.3-.1-.1 0-.2-.1-.3-.1-.1 0-.2-.1-.3-.2 0 0-.1-.1-.2-.1s-.1-.1-.2-.1c.1 0-.1-.2.3.1-.1-.1-.3-.2-.4-.3-.1 0-.1-.1-.2-.1s-.1-.1-.2-.1c.2.2 0 .1-.2-.1s-.5-.4-.3-.2l-.1-.1-.1-.1c-.1-.1-.1-.2-.2-.3l.3.3c-.1 0-.4-.2-.5-.4 0-.1-.1-.1-.1-.2s-.1-.2-.1-.3c-.1-.2-.2-.3-.1-.4 0 0-.1-.1-.1-.2s-.1-.2-.1-.2c-.1-.2-.1-.3-.1-.4-.1-.3-.1 0-.1-.1-.2-.3-.3-.7-.3-1 0-.1.1-.2.2 0 0-.2-.1-.2-.1-.3v-.4c.1.4.1-.9.2-.3.1-.4.1-1.5 0-2.1-.1-.4 0 .7-.1.6 0-1.7-.2-1.8-.2-3v.3c0-.8 0-.7-.1-1.1 0 .1.2-1 .1-2.3 0-.1-.1.7-.1.5v-.8.1c0-.8.1-1.4 0-1.6l.2-.8-.1.3c0-.1-.1-1-.1-1.1v-1.7c0 .2-.1.5-.1-.2.1 0 0-1.4.1-1.4v-.8H1C.9 33 .9 32 .9 31.3c.2.2 0-.8.1-1.2-.1-.1 0-1.4-.1-1.5 0-.6.1-.5.1-.7v-.3c0-.3.1-1.4.1-2.1L1 25v-.2c0-.1 0-.6-.1-.3v-.3c-.1 0 0-.5-.1-1.1 0-.2 0-.1.1 0 .1-.4.1-.3.1-.5 0 .2-.2-1.2-.2-.3 0 .1-.1-.5-.1-.8l.1-.2-.1-.4c0-.5 0-.7.1-1.1 0 .4.2.9.2-.2 0 .6.1.9.1 1.2 0-.2 0-.3.1 0 0-.9-.1-.3-.1-1.1.1 0 .1-.2.1-.9l-.1.6v-.1c0 .2 0 .3-.1.3 0-.2-.1-1-.1-1.1-.1.9-.1-1.5-.2-.9v-.8c.1.7.1-.5.1-.4 0-.3-.1.6-.1.2 0-.4 0-.7.1-1v.2L1 15c0-.1-.1.6-.1 0v-.7c.1.3.1.1.1.6 0-.4 0-1.8-.1-1.2v-.5c0 .3-.1 1.2-.1.2l-.1-.7V12c0-.1 0-.3.1-.3 0-.8 0-.7-.1-.8 0-.4 0-.6.1-.4v-2c0-.8 0 .2-.1-.3 0-.2.1-.4.1-.7v-.4c.2-.1.2-.2.2-.3v-.2c0-.3.1-.7.2-1 .1-.3.2-.6.4-.9-.1.1-.1 0 0-.1 0-.1.1-.1.1-.2v-.2c0 .1 0 0 .1 0 0-.2.1-.2.1-.2l.1-.1.1-.1v.1c-.1 0-.1.1-.2.2.1-.2.3-.4.4-.5.1-.1.1-.1 0 0 0 .1-.1.2-.2.3-.1.1-.2.3.1.1.2-.3.4-.5.6-.8.1-.2.3-.5.7-.7-.1.1 0 0 .2-.1.1-.1.3-.2.2-.1l-.2.2c-.1.1-.2.1-.3.2l.1-.1c.3-.2.5-.3.6-.4l.1-.1V2s.1-.1.3-.2c.1-.1.2-.1.3-.1h.4c.1 0 .1 0 .1.1.1 0 .6-.1.8-.2h-.7c-.2 0-.2 0-.1-.1.2 0 .6-.1.9-.1.2 0 .3-.1.5-.1H7 6.3c-.2 0-.3 0-.4.1-.1 0-.2 0-.4.1-.1 0-.2 0-.3.1H5c-.1 0-.1 0-.2.1-.1 0-.1.1-.2.2 0 0-.1.1-.2.1 0 0-.1.1-.2.1C4.1 1.9 4 2 4 2c.1 0 .1-.1.1-.1H4c0 .1-.2.1-.2.2.1 0 0 .1-.2.2-.2 0-.4.2-.4.2-.1.1 0 0 0-.1 0 0-.1 0-.1.1 0 0-.1.1-.2.1v.2l-.2.1s-.1 0-.3.3c.1-.2 0-.2 0-.2s.1-.1.4-.5c-.5.3-.7.7-.9 1-.2.4-.3.7-.5 1.1 0-.1 0-.1.1-.2 0 .1-.1.2-.1.3-.1.2-.2.3-.2.4-.1.1-.1.2-.1.2v-.2c0-.2.1-.4.1-.3-.1.1-.1.3-.2.4 0 .1-.1.3-.1.4 0 .1 0 .2-.1.3v.2-.6c0 .2-.1.3-.1.5v.5c0-.1-.1.1-.1.3v-.2 1.5l-.2.2v-.1c0 .5.1 2.2 0 1.9.1 1.1 0 1.5.1 2.9-.1-1.1-.1 1.2-.1.1 0 .7.1.8.1 1.3s-.1.3-.1-.3v1.1c0 .6-.1.1-.1.7l.1.1v.4c0-.1 0 .2.1.6v.5c0-.5 0 .5-.1.2v1.2-.1c0 1-.1 0-.1.9l.1-.1c-.1 1.2.1 2.1 0 2.9 0-.5-.1-.4-.1-.4 0 .8 0 2 .1 2.8-.1.3-.1.4-.1 1.2 0 .6 0 .7.1.9v2.6h.1c-.1 1 .1 1.7 0 2.8v-.2.4c0 .1 0-.1-.1-.1v2-.4c0 .4.1.7 0 1.2-.1-.8 0 .7-.1.8v-.4c0 .6 0 .6.1.5 0 .8-.1.5 0 1.2v-.5c0-.1.1.2.1.6V39.4c0 .3-.1.2-.1 0 .1 1.3 0 .6 0 1.9v.4l-.1.6v-.2 1.2-.2c0 1.2-.1 1.4 0 2.5v-.2c.1 1.1-.1.8 0 1.9 0-.1 0 .1-.1 0v.5L0 48l.1.4c0 .1 0 .2-.1.3V49.3c0 .2 0 .3.1.5.1.4.2.7.2 1.1v-.2c.2.4.4.9.7 1.4.3.5.6.9 1 1.3s.8.8 1.3 1.1c.5.3 1 .6 1.6.7l.1.2c.3.1.6.1 1 .1.3.1.2.1.1.1h-.2H7.6h-.5 3.2s.1 0 0 0h2.3-.4.9l-.3.1h1.8c-.1 0 0-.1.5-.1.3.1 1.4 0 2.2 0h-.5c.4 0 .8 0 1.1-.1h-.1l1.9-.1c.3.1 1.8 0 1.6.1.7 0-.6 0 .3-.1h.7-.1.6l-.4.1c.5 0 .9-.1.9-.1.5 0 1.2 0 1.4.1h-.2c1.4 0 2.2.2 3.3.1h-.1.8-.2l1.4-.1h3.5-.2c1.3-.1 1.2 0 2.2 0h-.1.8-.2c.6-.1 1.8.1 1.4 0 .4 0 1-.1 1.1-.1.9 0 .2 0 .8.1.7 0 .8-.1 1.7 0H42h-.2c1-.1 1.2.1 2 0 .4 0 1.2 0 1.1.1 1.2 0 2.1-.1 3.3-.1.2.1.3 0 1 .1l-.1-.1c1.7 0 3.6.1 5.5.1l.1.1.4-.1c2 0 4.6 0 6.2.1.3 0 .6 0 1-.1h1.2-.1c1.6-.2 3.2-.9 4.5-2.1-.1.1.1 0-.1.1.1-.2.3-.4.5-.5.1-.1.2-.2.2-.3.1-.1.1-.2.2-.3l-.3.3c.1-.2.3-.5.5-.7.1-.1.1-.2.2-.3.1-.1.1-.2.2-.2.1-.1.1-.3.1-.4 0-.1.1-.3.1-.4l.1-.1v-.1c.1-.1.1-.3.2-.4 0 0 0-.2.1-.3 0-.1 0-.3.1-.5v-1.1.1-2.6.4c-.1.1-.1-.7-.1-1.1 0 .5.1 0 .1-.2 0-.4-.1.3-.1.1 0-.4-.1-1.4 0-1.6v.3c0-.6.1-.9.1-1.5 0-.5 0-.9-.1-.8 0-.8.1-.3.1-.5v-1.6c-.1-.4.1-2.1-.1-2.2l.1-.6s-.1-.1-.1-.7c0-.5.1-.4.1-.5l-.1-.3c.1-2.8 0-6.5.2-9.5 0-1.4-.1-3.1-.1-4.7v.2-1.6l-.1 1.1v-.9c.1-1.7.1-4.1.1-6.2-.1-1.4.1-.9 0-2.2v.3c0-1.4-.1-2.2-.2-3.6.1.1.1-.1.1-.4V7l-.1-.1v-.7c0-.2-.1-.4 0-.4 0-.1-.1-.2-.1-.3 0-.1-.1-.2-.1-.3v-.1c-.1-.2-.2-.5-.3-.8-.1-.3-.3-.6-.5-.9-.4-.6-.8-1-.9-1.2-.1 0-.1-.1-.2-.1s-.1-.1-.2-.1-.1-.1-.2-.1-.1-.1-.2-.1c-.3-.2-.6-.4-.9-.5-.3-.2-.7-.3-1-.4-.4-.1-.7-.2-1.1-.3-.4-.1-.8-.1-1.2-.1h-3c-.4 0-1.1.1-1.7.1l-.6-.1c-.6 0-1.2.1-1.8.1h.1-1.8c-.7 0-1.3 0-1.1-.1-.1.1-1.4 0-1.4 0S17.1-.2 8.8.4c-.3.1-1.1.1-.8.2-.6 0-.9-.1-1 0 .8 0-.3.1.5.2H7h.6l.1-.1c.4 0 .6 0 .8.1.4 0 .6-.2 1.6-.1h-.3c.8 0 .5.1.6.1h-.2.8c-.5 0-1.3.1-.9 0h.4c.4 0 .3.1.3.1h.8-.2l1-.1c.2.1 1-.1 1.5.1-.7 0 .1 0 0 .1h1.7-.2.7c.1 0 1.3 0 1.2.1 1 0 .3-.1 1.4-.1.1 0-.8 0-.4.1h1.1c-.1 0-.2.1-.6.1 3 .1 4.6.3 7.3.3.4.1-.3 0-.5.1 2-.1 2.8.1 4.4.1 2.3.2 5.2.1 7.8.1h-.3c.4 0 1-.1 1.4-.1.1 0-.3.1.5.1-.2 0-.5 0-.4-.1 2.3.1 7.1.1 10.8.2H63.4c.3 0 .5.1.8.1.3.1.5.2.8.3-.2-.1-.2-.1-.3-.1-.1 0-.1 0 0 0s.3 0 .5.1c.6.4 1.1.7 1.5 1.1.2.2.4.4.6.7.2.2.4.5.5.8.2.3.3.6.4.9.1.3.2.6.2.9 0 .3.1.6.1.9v1c0 1.3 0 2.7.1 4l-.1.1V16.4h.1c0 .6-.1.3 0 .9l.1.7c-.1-.1 0 1.7-.1 2.2 0 .8.1 2.2 0 3.4-.1.2-.1 1.6-.1 2.6v6.6h.1v.6s0 .1 0 0c-.1.5 0 1.4 0 1.8.1-.3 0-.4 0-.8 0-.5.1 0 .1.6v.4c-.1 0-.1.5-.1.5 0 1.9.1 3.3.1 5.3-.1-.2 0 1.4-.1 1 0 1.2.1-.2.2.4v.8c0-.2-.1.3-.1 0v.8-.2c.1 1.6-.1 2.9 0 4.4 0 .1 0-.6.1-.5v1.3c0 .1 0 .3-.1.4 0 .1 0 .2-.1.3 0 .1 0 .2-.1.4v-.2.5c0 .1 0 .2-.1.3 0 .1 0 .1-.1.2 0 .1-.1.1-.1.2-.1 0 0-.1.1-.3 0-.1.1-.2.1-.3 0-.1.1-.2.1-.3 0 .1 0 .1-.1.2 0 .1 0 .1-.1.2s-.1.3-.2.4c-.1.3-.2.4-.1.3 0 .1-.1.1-.1.2l-.1.1-.1.1-.1.1-.3.3.1-.1.1-.1v.1c-.2.3-.5.6-.9.9-.4.3-.8.6-1.2.7 0 0-.1 0 0-.1-.1 0-.1.1-.2.1s-.1.1-.2.1-.2.1-.3.1c-.5-.1-.7-.1-1.1 0zM10.5 54.4H11.1h-.6zM29.6 54.5h.1-.1zM34.3 54.4h.1-.1zM1.6 51.1c0 .1 0 .1 0 0zM1.1 21.3v.1-.1zM1 23v.3-.3zM7 54.6h.3H7zM1 23.7v.4-.4zM1.1 20.8v.5-.5z"/><path class="st0" d="M.9 40.4c.1.3 0 .1 0 0zM1.1 25.5s0 .1 0 0v.2-.2zM1.1 19v.2-.2zM1 34.1v-.2.2zM59.9 43.6zM54.5 43.4zM63.1 43.7h.2-.2zM42.9 43.2c.1 0 .1 0 0 0zM49.8 43.3c-.1 0-.1 0 0 0-.1 0 0 0 0 0zM64.8 44.3c-.1 0-.1 0 0 0zM68.1 44.1zM66.8 43.9s-.1.1 0 0c0 .1 0 .1 0 0zM66.7 44zM1.1 43.4c-.1 0-.2 0-.3.1l.3-.1zM32.5 43.1zM1 43.8c-.1 0 0 0 0 0zM63.1 44.4h-.3c.1 0 .2.1.3 0zM30.3 44.7zM1 43.8zM21.6 43.1c.1 0 .1 0 0 0zM21.1 43.1h.1c-.1-.1-.1-.1-.1 0zM.8 43.4H.7c0 .1.1.1.1 0zM14.9 43.1zM50.2 43.3c.1 0 .1 0 0 0zM45.9 44.5zM46.1 44.4c-.1 0-.2 0-.2.1.1 0 .2 0 .2-.1zM45.4 44.4zM50 44.5zM49.1 44.5zM43.1 44.6z"/><path class="st0" d="M34.5 44.9c.9 0 2-.1 2.8-.1.2-.1.5-.1.7-.1v.1h.2c.1 0-.2 0 0 .1l.1-.1s.6 0 .2.1h.9c.2 0 .1-.1.3-.1 0 0-.1 0-.1.1.6.1.8-.2 1.4-.2h-.1.3c-.1-.1-.1.1-.3 0 0-.1.2-.1.2-.1h.3c.2.1.5 0 .7.1.1 0 .2-.1.4-.1.2.1 0 .1.2.1v-.1c.2 0 .1 0 .1.1.2 0 .2-.1.4 0l-.1.1h.5-.2c.1.1.2 0 .3 0 0 0-.2 0-.1-.1.1 0 .3-.1.3 0l-.1.1c.3 0 .1-.1.4 0 .2-.1.4 0 .7 0h-.1c.1 0 .2-.1.2-.1-.2 0-.1 0-.1-.1.2.1.3-.1.6-.1 0 0-.1.1-.2 0-.1.1-.1.2-.3.2h.2v-.1h.2c0-.1-.2-.1 0-.1s.1.1.1.1c.3 0 .1-.1.4-.1h-.1c.2 0 .5 0 .5.1 0 0 0 .1-.1 0-.2.1.2 0 .1.1 0-.1.3 0 .4 0v-.1c.4-.2 0 .1.4.1.3 0-.1 0 .1-.1.2 0 .2.1.5 0 .1 0 .2.1.2.1h.5c-.3-.1-.3.1-.6 0l.1-.1h.6c.3 0 .4-.1.7-.1 0 .1-.1.1-.3.1.2.1.2 0 .5 0 0 .1-.2 0-.2.1h.3c0-.1.2 0 .4 0 .5 0 .5-.1.8-.2.1 0 .1.1.1.1h-.1c.2 0 .3.1.3.1.3 0-.1-.1.1-.1h.3s-.2-.1 0-.1h.4s.1.1-.1.1h.3c-.2 0 .4 0 .2-.1h.2-.1c.1.1.2 0 .2 0 .1 0 .3 0 .3.1h.3c.1 0 0 0 0-.1h.3v.2c.1 0 0-.1.2-.1-.1.1.3.1.1.2.1.1.4.1.6 0 .1-.1-.2 0-.2-.1.5 0 .5-.2.9-.2h-.1c.2 0 .2 0 .3-.1-.1.1.3.2.6.2 0 0-.2-.1-.1-.1h.2c.2 0 .4.1.5 0l.2.1-.1-.1.3-.1h.5s-.2-.1 0-.1c0 .1.4 0 .4.1h.2v.1c0-.1.3-.1.5-.1-.1.2.2 0 .3.1 0-.1.4 0 .4-.1.2 0 .2.1.2.1h.1c.1 0 .4.1.6.1l.2-.1h.1s.2 0 .1-.1h.1c0-.1.1 0 .3-.1v.1c.1 0 .1.1.1.1-.1 0 .3-.2.1-.2 0 0 .1-.1.2-.1l.1.1.1-.1c.1 0 .2 0 .3.1-.1 0-.3.2 0 .2-.2 0-.3.1-.3.1.1 0 .1 0 0 .1.2 0 .1-.1.3-.1 0 .1.1.1.3.1l-.2-.1c-.1 0-.1 0-.1-.1l.3-.1c-.2-.1.4-.1.3-.2h.2c-.2.1.2.1.1.2.1 0-.2-.1-.1-.1s.2 0 .3.1h-.1.2s-.2-.1 0-.1h.2c-.1.1 0 .1-.2.1.1 0 .5 0 .4-.1h.1c-.1 0-.4-.1-.1-.1l.2-.1h.2s.1 0 .1.1c.2 0 .2 0 .2-.1.1 0 .2 0 .1.1h.6c.2 0 0 0 .1-.1.2.1.8.1 1.1 0-.1-.1.1 0 .2-.1-.1 0 .4.1 0 .1h.2c.1.1-.3.1-.1.1.2 0 .4-.1.6-.1-.1.1.2 0 .1.1h-.2c.5 0 .1-.1.4-.2.3 0 .2.1.3.1h.3c-.2.1-.3-.1-.3-.1.1.1.4 0 .5 0-.4-.1-.3 0-.7-.1-.1 0 0 .1-.3.1.1 0 0-.1-.1-.1 0 .1-.2 0-.2 0-.1 0 .1-.1-.1-.1v.1c-.1 0 0-.1-.2-.1.1-.1 0-.1.2-.1-.3-.1-.5.1-.8.1h.1-.2c1.1.2 1.4.2 1.4.2h-.5c.1 0 .1-.1.2-.1l-.3.1s-.2-.1 0-.1H66v-.1c-.1 0-.1 0 0 0-.1 0-.6.1-.6 0-.3.1-.4 0-.8.1.3-.1-.4-.1 0-.1-.2 0-.2.1-.4.1-.1 0-.1-.1.1-.1h-.4c-.2 0 0-.1-.2-.1v.1h-.1s-.1 0-.2.1h-.2c.1 0-.1 0-.1-.1h-.4v.1c-.3 0 0-.1-.3-.1v.1c-.4-.1-.6.1-.9 0 .1 0 .1-.1.1-.1-.2 0-.6 0-.8.1-.1-.1-.1-.1-.3-.1-.2 0-.2 0-.3.1h-.7v.1c-.3-.1-.5.1-.8 0h.1-.1v-.1h-.6.1c-.1 0-.2.1-.3 0 .2-.1-.2 0-.2-.1h.1c-.2 0-.2 0-.2.1-.2 0-.2-.1-.4 0h.1s-.1.1-.2.1c0 0-.1 0 0 0h-.5c-.1 0-.1-.1 0-.1-.4.1-.2 0-.5 0H56l-.2-.1h.1-.3.1c-.3 0-.4-.1-.7 0h.1c-.3.1-.2-.1-.5 0v-.1h-.1v-.1l-.1.1-.1-.1h-.1c-.2-.1-.4 0-.6-.1v.1c-.5.2-1.2-.1-1.8 0v-.1l-.3.1c-.1-.1.1-.1 0-.1-.3 0-.1.1-.4.1-.2 0 .1 0 .1-.1-.3 0-.7.1-1 0h-.7.1-.3l.1-.1h-.5s0 .1-.1.1c-.1-.1-.4 0-.6 0h.2c-.1 0-.2 0-.3.1l-.6.1c-.1-.1-.5 0-.5-.1-.2 0 .2 0-.1.1h-.4l.1-.1c-.1 0-.3.1-.3.1-.1 0-.3 0-.4-.1h.1c-.4 0-.7-.2-1-.1h-.2.1l-.4.1h-1 .1c-.4.1-.4 0-.6 0h-.2.1c-.2.1-.5-.1-.4 0-.1 0-.3.1-.3.1-.3 0-.1 0-.2-.1-.2 0-.2.1-.5 0h-.4.1c-.3.1-.4-.1-.6 0-.1 0-.3 0-.3-.1-.4 0-.6.1-1 .1-.1-.1-.1 0-.3-.1v.1c-.5 0-1.1-.1-1.6-.1v-.1l-.1.1c-.6 0-1.3 0-1.8-.1-.2 0-.4.1-.6.1-.4 0-.9.1-1.3 0v-.1c-.1.1-.3 0-.4 0h.1c-.1.1-.3 0-.4 0l-.2.1-.1-.1c-.1 0-.3 0-.4.1 0 0-.2 0-.1-.1h-.8.1c0 .1-.2.1-.3.1.2 0 0-.1-.1-.1s.1.1 0 .1-.4.1-.5 0h.1c-.2 0-.3-.1-.4-.1-.2 0-.3 0-.2.1-.2 0-.1-.1-.2-.1h-.5c-.1.1-.6-.1-.7.1l-.2-.1s0 .1-.2.1c-.1 0-.1-.1-.2-.1l-.1.1c-.8-.1-1.9 0-2.8-.2-.4 0-.9.1-1.4.1h.1-.5l.3.1h-.3c-.5-.1-1.2-.1-1.8-.1-.4.1-.3-.1-.7 0h.1c-.4 0-.6.1-1.1.2 0-.1-.3 0-.2-.1v.1c-.1 0-.3 0-.3-.1l-.2.1v-.1c-.2 0-.8 0-.9-.1-.6.1-1.6.1-2.3 0-.1 0-.3.1-.5.1l-.2-.1c-.2 0-.4.1-.5.1h-.5c-.2 0-.4 0-.3-.1 0 .1-.4 0-.4 0s-10-.6-12.4 0c-.1.1-.3.1-.2.2-.2 0-.3-.1-.3 0 .2 0-.1.1.2.2H.6h.2v-.1c.1 0 .2 0 .2.1.1 0 .2-.2.5-.1h-.1c.2 0 .1.1.2.1l.2.1c-.1 0-.4.1-.3 0h.1c.1 0 .1.1.1.1h.2-.1l.3-.1c.1.1.3-.1.4.1-.2 0 0 0 0 .1L3 44h-.1.2s.4 0 .4.1c.4 0 .2-.1.5-.1 0 0-.2 0-.1.1h.3s-.1.1-.2.1c.9.1 1.3.3 2.1.3.1.1-.1 0-.2.1.6-.1.8.1 1.3.1.7.2 1.5.1 2.3.1h-.1c.1 0 .3-.1.4-.1 0 0-.1.1.1.1 0 0-.1 0-.1-.1.7.1 2.1.1 3.2.2 1.5 0 3.1.1 4.5 0-.2 0-.1-.1 0-.1.5.2.8 0 1.3.1.8-.1 1.6.1 2.4 0v.1h1.1v-.1c.2 0 .1.1.3 0l.2-.1c0 .1.5 0 .6.1.2 0 .7-.1 1 0 .1.1.5.1.7.1H27v-.1h.2c.1.1.4 0 .5 0-.1-.1-.1 0-.2 0s0-.1.2-.1h.1c0 .1.1.1.1.1.6 0 1-.1 1.5-.1-.1.1.4 0 .3.1.4 0-.1-.1.1-.2h.2s.1.1 0 .1h.2-.1c.5-.1.8.1 1.3 0 0 0-.2 0-.1-.1.4-.1.4.1.8 0l-.1.1c.1 0 .2-.1.4 0 0 .1-.2.1-.3.1.1 0 .5 0 .4-.1.2 0 .2 0 .3.1 0 0-.2 0-.1-.1h.9c.6-.1.6.1.9.1zM50.1 44.5h-.2.2zM44.5 44.5zM43.2 44.6c.1 0 0 0 0 0-.1 0-.1 0 0 0zM53.3 44.4zM62.1 44.4zM61.6 44.3zM51.2 44.4s-.1 0 0 0zM61.4 44.3h-.1.1zM62.3 44.4h-.2.2zM56.5 44.3c-.1 0 0 0 0 0zM60.9 44.4z"/><path class="st0" d="M62.8 44.4s-.1 0 0 0c-.1.1 0 .1 0 0 0 .1 0 0 0 0zM58.4 44.4s0-.1 0 0c0-.1 0-.1 0 0zM37.2 49zM36.4 48.8zM37.7 49.1s.1 0 0 0zM34.5 48.6zM35.6 48.8zM38 49.8c0-.1 0-.1 0 0zM38.5 49.6zM38.3 49.4zM38.3 49.4zM27.9 48.8s0 .1 0 0zM32.9 48.6zM27.9 49.2zM37.7 49.9zM32.5 50.2zM27.9 49.2zM31.2 48.6zM31.1 48.5zM27.8 48.9zM30.1 48.6zM35.7 48.8zM35 49.9zM34.9 49.9zM35.5 50zM34.6 50zM33.2 50.3c.1 0 .3-.1.5-.1 0-.1.1-.1.1-.1v.2-.1s.1 0 0 .1h.1s0-.1.1-.1v.1c.1.1.1-.2.2-.2 0-.1 0 .1 0 0V50h.1c0 .1.1 0 .1.1 0 0 0-.1.1-.1v.1-.1.1s0-.1.1 0v.1h.1c0 .1 0 0 0 0v-.1s0-.1.1 0v.1s0-.1.1 0c0-.1.1 0 .1 0V50c0 .1 0-.1.1-.1 0 0 0 .1 0 0 0 .1 0 .2-.1.2v-.2.1s0-.1.1-.1c0 0 .1 0 .1.1 0 0 0 .1 0 0v.1c0-.1 0 0 .1 0V50c.1-.2 0 .1.1.1V50s0 .1.1 0v.1h.1c0-.1 0 .1-.1 0V50h.1l.1-.1v.1c0 .1 0 0 .1 0v.1h.1c0-.1 0 0 .1 0s.1-.1.1-.2v.1s.1.1 0 .1V50h.1v-.1h.1v.1s.1 0 0-.1c0 .1 0 0 0 0v.1-.1h.1v.2-.1.2c0 .1.1.1.1 0v-.1c.1 0 .1-.2.1-.2l.1-.1c0 .1 0 .2.1.2v-.1s.1.1.1 0v.1-.1s0-.1.1-.1h.1v-.1c0 .1.1 0 .1.1v.1c0-.1 0-.1.1-.1 0 .2 0 0 .1.1 0-.1.1 0 .1-.1v.1l.1.1v-.2c0-.1 0 0 .1-.1v.2s.1-.2 0-.2v-.1.1-.1l.1.1v.2s0 .1-.1.1v.1s0-.1.1-.1v.1-.2s0-.1.1-.1c0-.1.1-.1 0-.2v.2-.1.1-.1.1s.1 0 .1-.1c0 0-.1-.1 0-.1v-.1.1-.1.1h.1v-.1c0 .1.1.1.2 0v-.1s.1.1 0 .1c0 .1-.1.1 0 .1l.1-.1v.1c.1 0 0-.1.1-.2v.1c0 .1-.1-.1 0-.1 0 .1.1 0 .1 0l-.1-.1v.1-.1c0 .1 0 0 0 0v-.1.1-.2c-.1-.1-.1.1-.1.1V49v.1-.1h-.1v-.1s-.1.1-.1 0c-.1.1-.1 0-.1.1 0-.1-.1-.1 0-.1 0 0 0 .1-.1.1v-.2.2-.1h-.1v-.1.1c-.1-.1-.1.1-.1 0v-.1s-.1 0-.1.1c0-.1 0-.1-.1-.1v.1h-.1v.1c0-.1-.1.1-.1 0v-.1l-.4.1s0 .1-.1 0v-.1.1s0-.1-.1 0v.1h-.1V49c-.1.1 0 0-.1 0v-.1h-.1c-.1 0-.1-.1-.1 0s0-.1-.1 0v-.2.1-.1c0-.1-.1 0-.1-.1v.1c-.1.2-.2-.1-.3 0v-.1.1-.1s0 .1-.1.1v-.1s-.1.1-.2 0h-.1v-.1h-.1v.1c0-.1-.1 0-.1 0l-.1.1-.1.1c0-.1-.1 0-.1-.1v.1-.1.1s-.1 0-.1-.1c-.1 0-.1-.2-.2-.1l-.1.1h-.2c-.1.1-.1 0-.1 0 0 .1-.1-.1-.1 0v.1-.1s0 .1-.1 0H34c0 .1-.1-.1-.1 0 0 0-.1 0-.1-.1-.1 0-.1.1-.2.1v-.1.1c-.1 0-.2-.1-.3-.1v-.1.1c-.1 0-.2 0-.3-.1l-.1.1c-.1 0-.1.1-.2 0v-.1c0 .1 0 0-.1 0 0 .1-.1 0-.1 0v.1-.1s-.1 0-.1.1v-.1h-.1c0 .1 0 .1-.1.1v-.1.1s-.1.1-.1 0c0 0 0-.1-.1-.1v.1-.1h-.1c0 .1-.1-.1-.1.1v-.1.1-.1.1c-.1-.1-.3 0-.4-.2-.1 0-.1.1-.2.1h-.1l.1.1c-.1-.1-.2-.1-.3-.1-.1.1 0-.1-.1 0-.1 0-.1.1-.2.2v-.1.1-.1.1-.1s-.1 0-.1-.1c-.1.1-.2.1-.4 0l-.1.1v-.1l-.1.1h-.1s-.1 0-.1-.1c0 .1-.1 0-.1 0s-1.6-.3-2 .3v.2s0-.1 0 0v.2-.1.1s0-.2.1-.1v.2s-.1.1 0 0v.1-.1c0 .1 0-.1.1.1v.1h.1s.1 0 .1.1c.1.1 0-.1.1-.1v.1h.1v.1c.1.1.2.3.3.3v.1c.1-.1.1.1.2.1.1.2.2.1.4.1 0 0 0-.1.1-.1v.1-.1c.1.1.3.1.5.2.2 0 .5.1.7 0v-.1c.1.2.1 0 .2.1.1-.1.3.1.4 0v.1h.1v-.1s0 .1 0 0v-.1c0 .1.1 0 .1.1 0 0 .1-.1.2 0 0 .1.1.1.1.1h.3v-.1c0 .1.1 0 .1 0 0-.1 0 0 0 0v-.1.1c.1 0 .2-.1.2-.1 0 .1.1 0 0 .1.1 0 0-.1 0-.2v.1c.1-.1.1.1.2 0v-.1c.1-.1.1.1.1 0v.1s0-.1.1 0v.1s.1 0 .1-.1l.1.1v-.1c.3-.1.4-.1.5 0-.1 0-.1 0 0 0 0-.1-.1 0 0 0zM35.7 50zM34.8 50zM34.6 50.1s0-.1 0 0c0-.1 0-.1 0 0zM36.2 49.8zM37.6 49.9zM37.5 49.8zM35.8 49.8c0 .1 0 .1 0 0zM37.5 49.8zM37.6 49.9zM36.7 49.7c0 .1 0 .1 0 0zM37.4 49.9zM37.7 49.9zM37 49.8zM43.9 48.5zM43.4 48zM44.1 48.9zM41.7 48.3zM42.7 47.9zM43.6 49.3zM43.8 49.5zM44 49.3zM44 49.3zM44.6 49.6zM41.2 49.9zM44.2 49.6zM43.5 49.3c-.1 0 0-.1 0 0-.1 0-.1 0 0 0zM42.8 49.6zM44.2 49.6zM42.4 51.3zM42.4 51.4zM44.5 49.6zM43.5 51.3zM42.7 47.9zM42.7 49.1zM42.7 49.1zM42.7 49.1zM42.9 49.1zM42.9 49.1zM42.7 49.3z"/><path class="st0" d="M42.9 49.5c-.1 0-.1 0 0 0l-.2-.1.2.1-.1-.1c0 .1 0 .1.1.1l-.1-.1c0 .1 0 .1.1.1 0 0-.1 0 0 0-.1-.1-.2-.2-.1-.2-.1-.1.1 0 0 0l-.1-.1h.1l-.1-.1c.1 0 .1 0 .1.1 0 0-.1-.1 0 0l-.1-.1s0-.1 0 0c0 0 0-.1 0 0 0-.1 0 0 0 0V49l-.1-.1c.1.1 0-.1 0-.1s0 .1 0 0c0 .1.1.2.1.2v-.1l-.1-.1s.1.1 0 0v-.1l.1.1s0 .1 0 0v.1c0-.1 0 0 0 0v-.1c-.1-.2.1.1.1.1v-.1s0 .1 0 0c0 0 0 .1.1.1 0-.1 0 .1 0 0v-.2.2c0-.1 0 0 0 0v-.2.2-.2.1-.1c0 .1 0 0 0 0v.1-.1.2-.1.2c0 .1 0 .1 0 0v-.1l.1-.2v-.1c0 .1-.1.2 0 .2v-.1s0 .1 0 0v.1-.1.1s0-.1.1-.1c-.1.1 0 .1 0 .1v.1l.1-.1-.1.1.1-.1-.1.1v.1l.1-.1h.1c.1-.1 0 0 .1 0l-.1.1.2-.1h.1l-.1.1.1-.1v.1s-.2.1-.1.1h-.1.1c-.1 0-.1.1-.1.1h.1c.1-.1.1 0 .2-.1-.1 0-.1.1-.1.1h.1-.1.1c-.1 0-.1.1-.1.1h.1s.1-.1.1 0h.1-.1.1-.1.1c-.1.1 0 .1 0 .1h.1-.2.1-.1.2-.1.1c-.1 0 0 0 0 0 .1 0 0 0 .1-.1H44h.1c-.1 0 0 0 0 0h.1-.1.2-.1.2-.1.2s-.2 0 0-.1h-.1c.1 0 .1-.1.1-.1h-.1l.1-.1s.1 0 .1-.1h-.2.1c-.1 0 .1 0 0-.1.1-.1-.1 0-.1-.1h.1s-.1-.1-.1 0l.1-.1h-.1s-.1 0 0-.1-.1 0-.1-.1v-.1l-.1-.1h-.1c.1-.1 0 0 0-.1V48s0 .1-.1.1h-.1V48h-.1v-.1c-.1 0 0-.1-.1 0s0-.1-.1 0v-.1.1-.1c0-.1 0 0-.1-.1v.1c0 .1-.1 0-.1 0s-.1-.1-.1 0v-.1.1-.1s0 .1-.1.1v-.1s-.1.1-.1 0H43v-.1s-.1.1-.1 0v.1c0-.1 0 .1-.1 0v.1s0 .1-.1.1c-.1-.1-.1 0-.1 0v.1-.1.1H42.3v.1l-.1.1c0 .1-.1 0-.1.1s-.1 0-.1 0 0 .1.1.1H42v.2c0 .1-.1 0 0 .1h-.1v.2h-.1.1l-.1.1-.1.1h-.1.1c0 .1-.1.2-.1.3l.1.1c0 .1.1.1 0 .2h-.1c.1 0 0 0 0 .1.1 0 0 .1 0 .1h.1-.1.1-.1v.1h.1c-.1 0-.1 0-.1.1h.1s.1 0 .1.1c0 0-.1.1 0 .1h.1s-.1 0-.1.1v.1c.1-.1 0 .1.1.1v.1s.1-.1.1 0l-.1.1.1-.1v.1s0 .1.1.1c0 .1.1.1.1.2.1 0 .2 0 .2.1l.1.1v-.1h.1l.1.1s.1.1.2 0 0 .1.1.1.1 0 .2-.1v.1-.1.1-.1.1s.1 0 .1.1c.1 0 .1-.1.2-.1h.2c0-.1 0-.1.1-.1v.1s0-.1.1-.1c0 0 .1 0 .1-.1 0 0 .1 0 .1.1 0-.1.1 0 .1 0s.1 0 .3-.1c.2-.1.4-.2.5-.4.2-.2.3-.5.3-.7 0-.2-.1-.4-.2-.5h-.2s.1 0 0 0h-.2.1-.1s.2 0 .1.1h-.6c-.1 0 .1 0 0 .1H43.4v.1l-.1-.1-.1-.1v.1-.2.2c.1-.1 0 0 0-.1 0 0-.1.1 0 0v-.1h-.1c.1-.1 0 0 0 0-.1 0 0 0 0 0s-.1.1-.1 0c-.2.1-.2.1-.1-.1 0 .1-.1.1-.1.1s0 .1.1-.1c-.1.1-.1.1-.2.1h.1l.1-.1c-.1.1-.1.1 0 0-.1.1-.1.1 0 0l-.1.1c-.1 0 .1 0 0 0l.1-.1c-.1 0-.2.1-.1 0 .1.1 0 .1.1 0h-.1c0 .1 0 .1.1 0h-.1c0 .1 0 .1.1 0-.1.1 0 .1 0 0-.1.1 0 .1 0 0zM42.9 49.1zM42.7 49.2zM42.7 49.3zM43.1 48.9c0 .1 0 .1 0 0 0 .1 0 .1 0 0zM43.4 49.2c.1 0 .1 0 0 0 .1 0 0 0 0 0zM43.5 49.1zM43 49zM43.5 49.1zM43.4 49.2zM43.3 48.9zM43.4 49.2zM43.4 49.3z"/><path class="st0" d="M43.3 49.1c0-.1.1-.1 0 0 .1-.1.1-.1 0 0zM40.7 63.1zM40.9 62.4zM40.6 63.5c0 .1 0 .1 0 0zM41.1 60.8zM40.9 61.7zM40 63.8zM40.1 64.2zM40.3 64zM40.3 64zM40.9 55.1s-.1 0 0 0zM41.1 59.4zM40.5 55.1zM39.9 63.5c-.1 0 0 0 0 0-.1 0-.1 0 0 0zM39.5 59.1zM40.5 55.1zM41.1 57.9zM41.2 57.8zM40.8 55.1zM41.1 57zM40.9 61.8zM39.9 61.2s-.1 0 0 0c-.1 0-.1 0 0 0zM39.8 61.1zM39.7 61.8zM39.7 61.6zM39.7 60.8zM39.4 59.7c0 .1.1.3.1.4.1 0 .1.1.1.1h-.2.1s0 .1-.1 0v.1h.1-.1c-.1.1.2.1.2.2.1 0-.1 0 0 0h.1c-.1 0 0 .1-.1.1 0 0 .1 0 .1.1h-.1.1-.1s.1 0 0 .1h-.1v.1c-.1 0 0 0 0 0h.1s.1 0 0 0h-.1s.1 0 0 .1c.1 0 0 .1 0 .1h.2c-.1 0 .1 0 .1.1 0 0-.1 0 0 0h-.2.2-.1s.1 0 .1.1c0 0 0 .1-.1.1 0 0-.1 0 0 0h-.1c.1 0 0 0 0 .1h.1c.2.1-.1 0-.1.1h.1s-.1 0 0 .1h-.1v.1c.1 0-.1 0 0-.1h.1v.1l.1.1h-.1c-.1 0 0 0 0 .1h-.1c.1 0 0 0 0 .1s.1.1.2.1h-.2.2v.1h-.1.1c-.1 0 0 0 0 0h-.1.1-.2.1-.2c-.1 0-.1.1 0 .1h.1c0 .1.2.1.2.1h.1c-.1 0-.2 0-.2.1h.1s-.1.1 0 .1h-.1.2v.1h.1c-.1 0 0 .1-.1.1h-.1c.1 0 .1 0 .1.1h-.1c.1 0 0 .1.1.1h-.1l-.1.1H40h-.2H40.1 40h.1-.5.1-.1H39.9c.1 0 .1.1.2 0H40h.1-.1.1-.1s0 .1.1 0h.2-.1.1-.1v.1h.1c-.1 0-.1.1 0 .2h.1-.2l.1.1h-.1c0 .1.1 0 .2.1h-.1.1c-.1 0 0 .1 0 .1l.1-.1h-.1.1c-.1 0 0 0 0 0h.1-.1.2c.1 0-.1-.1-.1-.1h.2-.1.1v-.1h.1s-.1-.1 0-.1c-.1 0 0-.1-.1-.1h.1s-.1 0-.1-.1h.2-.2.2-.1c.1 0-.1-.1 0-.1h.1s0-.1-.1-.1h.1-.1v-.1h-.1c.1 0-.1-.1 0-.1h.1v-.1s-.1 0 0 0h.1-.1s.1 0 0 0h-.1v-.1h.1c-.1-.1 0 0 0-.1h.1s.1-.1 0-.1.1 0 0-.1h.2-.1.1c.1 0 0 0 .1-.1h-.1c-.2-.1.1-.2 0-.2h.1-.1.1s-.1 0-.1-.1h.1s-.1-.1 0-.1v-.1h.1v-.1h-.1c.1 0 0-.1 0-.1h-.1l-.1-.1c.1 0 0-.1.1-.1h-.1.1-.1l.1-.1c0-.1.2-.1.1-.1L41 61v-.1c-.1-.1 0 0 0-.1-.1 0 .1-.1 0-.1h-.1.1s-.1 0 0-.1v-.1c-.1 0 .1 0 0-.1h.1l-.1-.1h.1-.1c0-.1.1-.1.1-.2h.1-.1c0-.1 0-.2.1-.2l-.1-.1c0-.1-.1-.1 0-.2h.1c-.1 0 0 0 0 0-.1 0 0 0 0-.1h-.1.1l-.1-.1h.1v-.1h-.1.1-.1s-.1-.1 0-.1c0 0 .1 0 .1-.1h-.1.1V59c-.1 0 .1-.1-.1-.1h.1-.1.1-.1c.1-.1 0-.3.2-.4 0-.1-.1-.1-.1-.2v-.1h-.1c.1-.1.1-.2.1-.2-.1-.1.1 0 0-.1 0-.1-.1-.1-.2-.1h.1-.1.1-.1.1s0-.1.1-.1c-.1-.1-.1-.2 0-.3 0 0-.1 0-.1-.1h.1s-.1 0-.1-.1v-.1s0-.1.1 0c-.1 0 0-.1 0-.1s.3-1.4-.3-1.7h-.2s.1 0 0 0h-.2.1-.1s.2 0 .1.1h-.2s-.1-.1 0 0h-.1.1c-.1 0 .1 0-.1.1h-.1v.1h-.1c-.1 0 .1 0 .1.1H40c-.1.1-.3.2-.3.3h-.1c.1.1-.1.1-.1.2-.2.1-.1.2-.1.3 0 0 .1 0 .1.1h-.1.1c-.1.1-.1.3-.2.4 0 .2-.1.4 0 .6h.1c-.2.1 0 .1-.1.2.1.1-.1.2 0 .3h-.1v.1h.1s-.1 0 0 0h.1c-.1 0 0 .1-.1.1 0 0 .1.1 0 .1s-.1.1-.1.1v.3h.1c-.1 0 0 .1 0 .1.1 0 0 0 0 0h.1-.1c0 .1.1.1.1.2-.1 0 0 .1-.1 0h.2-.1c.1.1-.1.1 0 .2h.1c.1.1-.1.1 0 .1h-.1s.1 0 0 .1h-.1s0 .1.1.1h-.1.1c.1-.1.1-.1 0 .1.1-.1 0-.1 0 0 .1-.1 0-.1 0 0zM39.7 61.8zM39.8 61zM39.7 60.8c0 .1 0 0 0 0zM39.9 62.2zM39.9 63.4zM40 63.3c-.1 0-.1 0 0 0zM39.9 61.9zM39.9 63.3zM39.8 63.4zM40 62.7c0-.1 0-.1 0 0zM39.8 63.2zM39.8 63.5zM39.9 62.9zM29.4 63.1c.1 0 .1 0 0 0 .1 0 .1 0 0 0zM29.6 62.4c.1 0 0 0 0 0zM29.4 63.5c0 .1 0 .1 0 0zM29.9 60.8zM29.7 61.7zM28.7 63.8c.1 0 0 0 0 0zM28.9 64.2zM29.1 64zM29 64c.1 0 .1 0 0 0 .1 0 .1 0 0 0zM29.6 55.1zM29.9 59.4zM29.3 55.1zM28.6 63.5zM28.3 59.1zM29.3 55.1zM29.9 57.9zM30 57.8zM29.6 55.1zM29.9 57zM29.7 61.8zM28.6 61.2zM28.6 61.1zM28.5 61.8zM28.5 61.6zM28.5 60.8zM28.2 59.7c0 .1.1.3.1.4.1 0 .1.1.1.1h-.2.1s0 .1-.1 0v.1h.1-.1c-.1.1.2.1.2.2.1 0-.1 0 0 0h.1c-.1 0 0 .1-.1.1 0 0 .1 0 .1.1h-.1.1-.1s.1 0 0 .1h-.1v.1c-.1 0 0 0 0 0h.1s.1 0 0 0h-.1s.1 0 0 .1c.1 0 0 .1 0 .1h.2c-.1 0 .1 0 .1.1 0 0-.1 0 0 0h-.2.2-.1s.1 0 .1.1c0 0 0 .1-.1.1 0 0-.1 0 0 0h-.1c.1 0 0 0 0 .1h.1c.2.1-.1 0-.1.1h.1s-.1 0 0 .1h-.1v.1c.1 0-.1 0 0-.1h.1v.1l.1.1h-.1c-.1 0 0 0 0 .1h-.1c.1 0 0 0 0 .1s.1.1.2.1h-.2.2v.1h-.1.1c-.1 0 0 0 0 0h-.1.1-.2.1-.2c-.1 0-.1.1 0 .1h.1c0 .1.2.1.2.1h.1c-.1 0-.2 0-.2.1h.1s-.1.1 0 .1h-.1.2v.1h.1c-.1 0 0 .1-.1.1h-.1c.1 0 .1 0 .1.1h-.1c.1 0 0 .1.1.1h-.1l-.1.1H28.8h-.2H28.9h-.1.1-.5.1-.1H28.7c.1 0 .1.1.2 0h-.1.1-.1.1-.1s0 .1.1 0h.2-.1.1-.1v.1h.1c-.1 0-.1.1 0 .2h.1-.2l.1.1H29c0 .1.1 0 .2.1h-.1.1c-.1 0 0 .1 0 .1l.1-.1h-.1.1c-.1 0 0 0 0 0h.1-.1.2c.1 0-.1-.1-.1-.1h.2-.1.1v-.1h.1s-.1-.1 0-.1c-.1 0 0-.1-.1-.1h.1s-.1 0-.1-.1h.2-.2.2-.1c.1 0-.1-.1 0-.1h.1s0-.1-.1-.1h.1-.1v-.1h-.1c.1 0-.1-.1 0-.1h.1v-.1s-.1 0 0 0h.1-.1s.1 0 0 0h-.1v-.1h.1c-.1-.1 0 0 0-.1h.1s.1-.1 0-.1.1 0 0-.1h.2-.1.1c.1 0 0 0 .1-.1H30c-.2-.1.1-.2 0-.2h.1-.1.1s-.1 0-.1-.1h.1s-.1-.1 0-.1v-.1h.1v-.1h-.1c.1 0 0-.1 0-.1H30l-.1-.1c.1 0 0-.1.1-.1h-.1.1-.1l.1-.1c0-.1.2-.1.1-.1l-.3-.1v-.1c-.1-.1 0 0 0-.1-.1 0 .1-.1 0-.1h-.1.1s-.1 0 0-.1v-.1c-.1 0 .1 0 0-.1h.1l-.1-.1h.1-.1c0-.1.1-.1.1-.2h.1-.1c0-.1 0-.2.1-.2l-.1-.1c0-.1-.1-.1 0-.2h.1c-.1 0 0 0 0 0-.1 0 0 0 0-.1h-.1.1l-.1-.1h.1v-.1h-.1.1-.1s-.1-.1 0-.1c0 0 .1 0 .1-.1h-.1.1V59c-.1 0 .1-.1-.1-.1h.1-.1.1-.1c.1-.1 0-.3.2-.4 0-.1-.1-.1-.1-.2v-.1h-.1c.1-.1.1-.2.1-.2-.1-.1.1 0 0-.1 0-.1-.1-.1-.2-.1h.1-.1.1-.1.1s0-.1.1-.1c-.1-.1-.1-.2 0-.3 0 0-.1 0-.1-.1h.1s-.1 0-.1-.1v-.1s0-.1.1 0c-.1 0 0-.1 0-.1s.3-1.4-.3-1.7h-.2s.1 0 0 0h-.2.1-.1s.2 0 .1.1h-.2s-.1-.1 0 0h-.1.1c-.1 0 .1 0-.1.1H29v.1h-.1c-.1 0 .1 0 .1.1h-.2c-.1.1-.3.2-.3.3h-.1c.1.1-.1.1-.1.2-.2.1-.1.2-.1.3 0 0 .1 0 .1.1h-.1.1c-.1.1-.1.3-.2.4 0 .2-.1.4 0 .6h.1c-.2.1 0 .1-.1.2.1.1-.1.2 0 .3H28v.1h.1s-.1 0 0 0h.1c-.1 0 0 .1-.1.1 0 0 .1.1 0 .1s-.1.1-.1.1v.3h.1c-.1 0 0 .1 0 .1.1 0 0 0 0 0h.1-.1c0 .1.1.1.1.2-.1 0 0 .1-.1 0h.2-.1c.1.1-.1.1 0 .2h.1c.1.1-.1.1 0 .1h-.1s.1 0 0 .1h-.1s0 .1.1.1h-.1.1v.1c0-.1 0-.1 0 0 .1-.1-.1-.1 0 0zM28.5 61.8zM28.5 61z"/><path class="st0" d="M28.4 60.8c0 .1 0 0 0 0 .1 0 0 0 0 0zM28.7 62.2c-.1 0 0 0 0 0zM28.6 63.4zM28.7 63.3zM28.6 61.9zM28.7 63.3zM28.6 63.4zM28.7 62.7c0-.1 0-.1 0 0zM28.6 63.2zM28.6 63.5zM28.6 62.9c.1 0 .1 0 0 0 .1 0 .1 0 0 0zM26 64.7c-.1 0-.1 0 0 0zM30.9 64.9c-.1 0 0 0 0 0zM23.4 65.5s-.1 0-.2.1c.1 0 .1 0 .2-.1zM41.3 65.1zM35.1 65s.1 0 0 0c.1 0 0 0 0 0zM21.8 66.2c.1 0 .1 0 0 0 .1-.1.1-.1 0 0zM20.8 69.1zM21.3 68s-.1 0 0 0zM21.3 67.9zM21.4 69.6c-.1 0-.2 0-.2.1l.2-.1zM47.8 68.9zM21.3 69.9zM23 64.9l.2-.2c-.1.1-.2.1-.2.2zM48.2 70.9h-.1.1zM21.3 69.9c.1 0 .1 0 0 0 .1 0 .1 0 0 0zM40.1 69.3zM39.6 69.2h.1-.1zM21.2 69.6h-.1.1zM33.9 69.3c.1 0 .1 0 0 0 .1 0 .1 0 0 0zM34.7 65c0-.1 0-.1 0 0zM38.6 63.8zM38.4 63.9c.1 0 .2 0 .2-.1 0 0-.1 0-.2.1zM39.1 63.8zM34.9 63.8zM35.7 63.8c.1 0 0 0 0 0zM41.1 63.7z"/><path class="st0" d="M48.7 66.5c-.3-.4-.6-.8-1-1.1-.4-.4-.8-.7-1.1-.9-.1 0-.2-.1-.3-.1-.1-.1-.2-.1-.3-.2v-.1l-.2-.1c-.1-.1.2.1 0-.1h-.1c0-.1-.5-.3-.1-.2l-.2-.1-.2-.1h-.7c-.2 0-.1.1-.3.1 0 0 .1 0 .1-.1-.6-.1-.7.2-1.2.2h-.3c.1.1.1-.1.3 0 0 .1-.2.1-.2.1h-.3c-.2-.1-.5 0-.6-.1-.1 0-.2.1-.4.1-.1-.1 0-.1-.2-.1v.1c-.2 0-.1 0-.1-.1-.2 0-.1.1-.4 0l.1-.1h-.4.2c-.1-.1-.2 0-.3 0 0 0 .2 0 .1.1-.1 0-.2.1-.3 0l.1-.1c-.2 0-.1.1-.4 0-.2.1-.4 0-.6 0-.1 0-.2.1-.2.1.1 0 .1 0 .1.1-.2-.1-.3.1-.6.1 0 0 .1-.1.2 0 .1-.1.1-.2.3-.2H39v.1h-.2c0 .1.1.1 0 .1-.2 0-.1-.1-.1-.1-.3 0-.1.1-.3.1h.1c-.2 0-.4 0-.5-.1 0 0 0-.1.1 0 .2-.1-.2 0-.1-.1 0 .1-.2 0-.3 0v.1c-.4.2 0-.1-.3-.1-.2 0 .1 0-.1.1-.2 0-.2-.1-.4 0-.1 0-.2-.1-.2-.1h-.5c.2.1.2-.1.5 0l-.1.1H36c-.3 0-.3.1-.6.1 0-.1.1-.1.2-.1-.2-.1-.2 0-.4 0 0-.1.2 0 .2-.1h-.3c0 .1-.2 0-.4 0-.4 0-.5.1-.7.2-.1 0-.1-.1-.1-.1h.1c-.1 0-.3-.1-.2-.1-.2 0 .1.1-.1.1h-.3c0 .1.1.1 0 .1H33s-.1-.1.1-.1h-.3c.2 0-.3 0-.2.1h-.2.1c-.1-.1-.2 0-.2 0-.1 0-.2 0-.3-.1h-.2c-.1 0 0 0 0 .1h-.3v-.2c-.1 0 0 .1-.2.1.1-.1-.2-.1-.1-.2-.1-.1-.4-.1-.6 0-.1.1.2 0 .2.1-.4 0-.5.2-.8.2h.1c-.2 0-.2 0-.3.1.1-.1-.2-.2-.6-.2 0 0 .2.1.1.1h-.2c-.2 0-.4-.1-.4 0l-.2-.1.1.1-.3.1h-.4s.1.1 0 .1c0-.1-.4 0-.4-.1h-.2v-.1c0 .1-.3.1-.5.1 0-.2-.2 0-.3-.1 0 .1-.4 0-.4.1-.2 0-.1-.1-.2-.1H25.1l-.1.1h-.1s-.2.1-.1.1h-.1c0 .1-.1.1-.3.2v-.1h-.1s0 .1-.1.1c0 .1 0 .1.1.1 0 0-.1.1-.2.1l-.1-.1-.1.1c-.1.1-.2.1-.3.1l.1-.1s-.1-.1-.2 0l.2-.2c-.1 0-.1 0 0 0-.2.1 0 .1-.2.2 0-.1-.1-.1-.3 0H23.5l-.2.2c.1 0 .1.1 0 .1-.1.1-.2.2-.1.2 0 0-.1.1-.2.1.1-.2-.2 0-.2 0h.1s.1 0 0 0c-.1.1-.2.1-.3.1-.1 0-.1.1-.2.1 0 .1.2-.1.1.1 0 0-.2.2-.2.1s-.1-.1 0-.2c-.1.1-.3.4-.2.3l-.1.1c.1 0 .3-.2.1 0 0 .1-.1.1-.1.2h-.1v.1s-.1.1-.1 0l-.1.2-.1.1-.1.1-.1.1c-.1.1-.1.2-.2.2-.1.2 0 0 0 .1-.1 0-.1.1-.1.2s-.1.2-.1.3c0 .1-.1.2-.1.3v.2c.1-.1 0 .1.1.2 0 0-.1 0-.1.1 0 0-.1.1 0-.1v.2-.1c0-.1 0-.1-.1-.1 0 .2.1.4 0 .6-.1-.1 0 .2-.1.1v-.2.3s.1 0 .1.1c0 .3-.1.2-.1.2v.3-.2s.1-.1.1 0c-.1.1 0 .4 0 .5.1-.2.1-.3.1-.3v-.1s0-.1.1-.2c0-.1-.1-.1-.1-.3 0 .1 0 0 .1 0-.1 0 0-.2 0-.2.1-.1.1.2.2-.1l-.1-.1c0-.1.1.1.1-.1 0 .1.1 0 .1.2.2-.3 0-.5.1-.7v.1-.2c.1-.1 0 .1.1.1 0-.1.1-.2.1-.2 0-.1 0-.1.1-.1 0 .1 0 .1.1.2v-.3s.1-.2.1 0l.1-.2.1-.2h.1c0-.1 0-.1 0 0 0 0 0-.1.1-.1 0-.1 0-.1.1-.2 0-.1.1-.2.1-.1.1-.1.1-.2.2-.3l.1-.1c0-.1.1-.1.1-.2-.1.1 0 .1.1 0h.1v.1c.1-.1.1-.2.2-.3.1-.1.1 0 .1.1l.1-.1.1-.1c.1-.1.1 0 .2 0v-.1h.1c-.1 0 0-.1.1-.1l.1-.1c-.1.1.1-.1.1 0 .1-.1.1-.1.3-.2h-.1c.2-.2 0 .1.2-.1.2 0 .3-.1.4-.2l.1-.1s.1-.1.2-.1c-1 .3-.9.3-.9.3.1-.1.2-.1.3-.2.1-.1.2-.1.3-.2 0 0 .1 0 .1.1h1v-.1c.3.1.5-.1.7 0h.1v.1h.5-.1c.1 0 .2-.1.3 0-.2.1.2 0 .2.1h-.1c.2 0 .2 0 .1-.1.2 0 .1.1.3 0H28l.1-.1s.1 0 0 0h.5c.1 0 .1.1 0 .1.3-.1.2 0 .5 0h.1l.2.1h-.1.3-.1c.3 0 .4.1.7 0h-.1c.3-.1.2.1.5 0v.1h.1v.1l.1-.1.1.1c.1.1.3 0 .5.1V65c.5-.2 1.1.1 1.6 0v.1l.2-.1c.1.1-.1.1 0 .1.3 0 .1-.1.4-.1.1 0-.1 0-.1.1.3 0 .7-.1.9 0h.6-.1.2l.3-.1h.5s0-.1.1-.1c.1.1.4 0 .6 0h-.1c.1 0 .2 0 .3-.1l.5-.1c.1.1.5 0 .4.1.2 0-.1 0 .1-.1h.4l-.1.1c.1 0 .2-.1.2-.1.1 0 .3 0 .4.1.4 0 .6.2.9.1h.2-.1l.4-.1h.9c.3-.1.3 0 .6 0h.2c.2-.1.5.1.4 0 .1 0 .3-.1.3-.1.2 0 .1 0 .2.1.2 0 .2-.1.4 0h.3c.3-.1.3.1.5 0 .1 0 .3 0 .3.1.2 0 .3 0 .4-.1H44.9v.1-.1c.2.1.4.2.5.4.1.1.2.1.3.2.1.1.2.1.3.2v.1h.1l.3.3.1.1.1.1c.1.1.2.2.2.3.1.1.1.2.2.2 0 0 .1.1.2.1l.2.2c.2.3.4.6.5.9h-.1c.1.1.1.2.1.3v-.1s.1.1.1.2v.1l.1.1-.3.5v.2h.1-.1v.1s.1 0 .1.1l-.1-.1.1.1s-.1.1-.1 0h-.2s-.1 0 0 .1c-.2 0-.1-.1-.1-.1h-.4c-.1.1-.5-.1-.6.1l-.2-.1s0 .1-.2.1c-.1 0-.1-.1-.1-.1l-.1.1c-.7-.1-1.7 0-2.5-.2-.4 0-.8.1-1.2.1h-.4l.3.1h-.3c-.5-.1-1.1-.1-1.6-.1-.4.1-.2-.1-.6 0h.1c-.4 0-.6.1-1 .2 0-.1-.2 0-.2-.1v.1c-.1 0-.3 0-.3-.1l-.2-.1v-.1c-.2 0-.7 0-.8-.1-.5.1-1.4.1-2.1 0-.1 0-.3.1-.5.1l-.2-.1c-.2 0-.3.1-.5.1h-.5c-.2 0-.4 0-.3-.1 0 .1-.4 0-.4 0s-9.1-.3-11.4.3c-.1.1-.3.1-.2.2-.2 0-.2-.1-.3 0 .2 0-.1.1.1.2h-.1.2v-.1c.1 0 .2 0 .2.1.1 0 .2-.2.4-.1h-.1c.2 0 .1.1.2.1l.2.1c-.1 0-.3.1-.2 0h.1c.2-.1.2 0 .2 0h.2-.1l.3-.1c0 .1.3-.1.4.1-.2 0 0 0 0 .1h.4s-.1 0 0 0h.2s.3 0 .3.1c.3.1.1-.1.4-.1 0 0-.2 0-.1.1h.3s-.1.1-.2.1c.8.1 1.2.3 1.9.3.1.1-.1 0-.1.1.5-.1.7.1 1.2.1.6.2 1.4.1 2.1.1h-.1c.1 0 .3-.1.4-.1 0 0-.1.1.1.1 0 0-.1 0-.1-.1.6.1 1.9.1 2.9.2 1.3 0 2.8.1 4.1 0-.2 0-.1-.1 0-.1.4.2.7 0 1.1.1.8-.1 1.5.1 2.2 0v.1H40.7V71c.2 0 .1.1.2 0l.2-.1c0 .1.4 0 .6.1.2 0 .6-.1.9 0 .1.1.4.1.7.1H45V71h.2c.1.1.4 0 .5 0-.1-.1-.1 0-.2 0s0-.1.2-.1h.1c0 .1.1.1.1.1.5 0 .9-.1 1.4-.1-.1.1.4 0 .3.1h.2c-.1 0-.2-.1 0-.1h.4c-.1 0 .2.1 0 .1H48.5h-.1H49.1v-.2c0-.2.1-.3.1-.5v-.5.2V68.8s0 .1.1.1c0-.1-.1-.1-.1-.2v-.2c.1-.1.1.2.1.3 0-.2-.1-.5-.2-.4-.1-.2 0-.3 0-.4 0 0 0 .2-.1.1 0-.3-.2-.6-.3-.9-.1-.1-.1-.1-.1-.2v-.1c.2-.2.2-.3.1-.4zM34.8 63.8h.2-.2zM39.9 63.8zM41.1 63.7c-.1 0 0 0 0 0zM31.9 63.9zM23.8 64.4zM24.3 64.3zM33.8 63.9c.1 0 .1 0 0 0 .1 0 0 0 0 0zM24.4 64.2h.1-.1z"/><path class="st0" d="M23.7 64.5s.1 0 .1-.1c-.1 0-.1.1-.1.1zM29 64c.1 0 0 0 0 0zM24.9 63.9zM23.2 64.7zM27.3 63.9c0 .1 0 0 0 0zM21.3 34.7zM21.5 29.3zM21.2 37.9v.2-.2zM19.9 17.8zM21.6 24.6c0-.1 0-.1 0 0 0-.1 0 0 0 0zM20.6 39.6c0-.1 0 0 0 0zM20.8 42.9zM21 41.6c-.1 0-.1 0 0 0-.1 0-.1 0 0 0zM20.9 41.5zM9.1 43.4c0 .1 0 .2.1.3l-.1-.3zM13.2 12.6zM9.5 43.5c0 .1 0 0 0 0zM20.5 37.9v-.3c0 .1-.1.2 0 .3zM13.7 15.2c0 .1 0 .1 0 0zM9.5 43.5zM8.9 22.8zM8.9 23.4v-.1c-.1.1-.1.1 0 .1zM9.2 43.7v.1-.1zM8.9 29.6zM21.6 25c0 .1 0 .1 0 0zM20 21zM20.1 21.2c0-.1-.1-.1-.1-.2 0 0 .1.1.1.2zM19.9 20.6zM20.4 24.8zM20.4 23.9zM18.7 18.6z"/><path class="st0" d="m15.3 12.3.1.1c0 .1.1.1.1.2.1.1.1.2.2.3l.3.6c.2.1.3.4.4.6l-.1.1.1.2c0 .1-.1-.1-.1 0h.1s.2.5 0 .2l.4.8c.1.2.1.1.2.3 0 .1-.1-.1-.1 0 .2.6.5.6.8 1.1.1.1.2.3.2.3.1-.1-.1-.1-.1-.3.1 0 .1.2.2.1 0 .1.1.2.2.3 0 .2.2.5.2.6.1.1.2.1.3.3 0 .2-.1 0 0 .2h.1c.1.2 0 .1 0 .2.1.2.1.1.2.3l-.1-.1c.1.1.1.2.2.4L19 19c0 .2.1.2.2.3 0 0-.1-.2 0-.1 0 .1.2.2.2.3l-.1-.1c.2.2.1.1.2.4.1.1.2.4.3.6l.2.2v-.2.1l.1.1c.1.1.1.1.2.3 0 0-.1 0-.1-.1-.1-.1-.2 0-.3-.2.1.1.1.2.1.2h.1c0 .1 0 .1.1.2.1 0 0-.2.1 0s-.1.1 0 .1c.1.1.1.1.1.2l.1.2v-.1c0 .2.1.4 0 .5 0 0-.1 0-.1-.1-.1-.2.1.1 0 .1.1 0 .1.2.1.3h.1c.1.2.1.2 0 .2s-.1 0-.1.2c.1.2 0-.1.1 0v.4c0 .1-.1.2-.1.2v.5c.1-.3-.1-.3 0-.6l.1.1v.6c0 .3.1.4.1.7-.1 0-.1-.1-.1-.3-.1.2 0 .2 0 .5-.1 0 0-.2-.1-.2v.3c.1 0 0 .2 0 .4 0 .5.1.5.2.8 0 .1-.1.1-.1.1V26c0 .2-.1.3-.1.3 0 .3.1-.1.1.1v.3s.1-.2.1 0v.4s-.1.1-.1-.1v.3c0-.2 0 .4.1.2v.2-.1c-.1.1 0 .2 0 .2 0 .1 0 .3-.1.3v.3c0 .1 0 0 .1 0v.3h-.2c0 .1.1 0 .1.2-.1-.1-.1.3-.2.1-.1.1-.1.4 0 .6.1.1 0-.2.1-.2 0 .5.2.5.2.9v-.1c0 .2 0 .2.1.3-.1-.1-.2.3-.2.6 0 0 .1-.2.1-.1v.2c0 .2-.1.4 0 .5l-.2.3.1-.1.1.3v.5s.1-.2.1 0c-.1 0 0 .4-.1.4v.2h-.1c.1 0 .1.3.1.5-.2-.1 0 .2-.1.3.1 0 0 .4.1.4 0 .2-.1.2-.1.2v.1c0 .1-.1.4-.1.6l.1.2v.1s0 .2.1.1v.1c.1 0 0 .1.1.3h-.1c0 .1-.1.1-.1.1 0-.1.2.3.2.1 0 0 .1.1.1.2l-.1.1.1.1c0 .1 0 .2-.1.3 0-.1-.2-.3-.2 0 0-.2-.1-.3-.1-.3 0 .1 0 .1-.1 0 0 .2.1.1.1.3-.1 0-.1.1-.1.3l.1-.2c0-.1 0-.1.1-.1l.1.3c.1-.2.1.4.2.3v.2c-.1-.2-.1.2-.1.1 0 .1.1-.2.1-.1s0 .2-.1.3v-.1.2s.1-.2.1 0v.2c-.1-.1-.1 0-.1-.2 0 .1 0 .5.1.4v.1c0-.1.1-.4.1-.1l.1.2v.2s0 .1-.1.1c0 .2 0 .2.1.2 0 .1 0 .2-.1.1v.6c0 .2 0 0 .1.1-.1.2-.1.8 0 1.1.1-.1 0 .1.1.2 0-.1-.1.4-.1 0v.2c-.1.1-.1-.3-.1-.1 0 .2.1.4.1.6-.1-.1 0 .2-.1.1v-.2c0 .5.1.1.2.4 0 .3-.1.2-.1.3v.3c-.1-.2.1-.3.1-.3-.1.1 0 .4 0 .5.1-.4 0-.3.1-.7 0-.1-.1 0-.1-.3 0 .1.1 0 .1-.1-.1 0 0-.2 0-.2 0-.1.1.1.1-.1h-.1c0-.1.1 0 .1-.2.1.1.1 0 .1.2.1-.3-.1-.5-.1-.8v.1-.2c0-.2.1.1.1.1v-.5c0 .1.1.1.1.2l-.1-.3s.1-.2.1 0v-.4h.1c0-.1 0-.1 0 0 0-.1-.1-.6 0-.6-.1-.3 0-.4-.1-.8.1.3.1-.4.1 0 0-.2-.1-.2-.1-.4 0-.1.1-.1.1.1V38c0-.2.1 0 .1-.2h-.1v-.1s0-.1-.1-.2v-.1c0 .1 0-.1.1-.1v-.4c0-.3.1 0 .1-.3h-.1c.1-.4-.1-.6 0-.9 0 .1.1.1.1.1 0-.2 0-.6-.1-.8.1-.1.1-.1.1-.3 0-.2 0-.2-.1-.3v-.7h-.1c.1-.3-.1-.5 0-.8v.1-.1h.1v-.6.1c0-.1-.1-.2 0-.3.1.2 0-.2.1-.2v.1c0-.2 0-.2-.1-.2 0-.2.1-.2 0-.4v.1s-.1-.1-.1-.2c0 0 0-.1 0 0v-.5c0-.1.1-.1.1 0-.1-.4 0-.2 0-.5v-.1l.1-.2v.1-.3.1c0-.3.1-.4 0-.7v.1c-.1-.3.1-.2 0-.5h.1v-.1h.1l-.6.3.1-.1v-.1c.1-.1 0-.4.1-.6h-.1c-.2-.5.1-1.2 0-1.8h.1l-.1-.3c.1-.1.1.1.1 0 0-.3-.1-.1-.1-.4 0-.2 0 .1.1.1 0-.3-.1-.7 0-1v-.7.1-.3l.1.1v-.5s-.1 0-.1-.1v-.7.2c0-.1 0-.2-.1-.4 0-.2-.1-.4-.1-.6v-.3c0-.1-.1-.2 0-.2 0-.2 0 .2-.1-.1 0-.1-.1-.2 0-.2 0-.1 0-.1-.1-.2l.1.1c-.1-.2-.2-.3-.2-.2 0-.2-.1-.4-.1-.4-.1-.2-.1-.4-.2-.6v-.2c0-.1-.1-.1-.1-.2l-.1-.2h.1l-.2-.3c-.1-.2-.3-.6-.5-.9-.1 0 0 0-.1-.3l-.1-.2h.1c-.1-.1-.2-.5-.2-.4l-.2-.2c-.1-.2 0-.1 0-.2l-.2-.4c-.1-.1-.1-.2-.2-.3-.2-.2-.1-.4-.3-.5 0-.1-.1-.3-.1-.3-.2-.3-.3-.5-.5-.8.1-.1 0-.1-.1-.3-.2-.4-.4-1-.6-1.5l-.1-.1c-.1-.3-.3-.6-.4-.9 0 0 0-.1-.1-.1 0-.1-.1-.1-.1-.2v-.1s0-.1-.1-.1c0-.1-.1-.1-.1-.2s-.1-.1-.1-.2l-.1-.1-.1-.1-.1-.1c-.3-.1-.7-.2-1.1-.1-.2 0-.5.2-.7.3-.2.2-.4.4-.5.6-.1.3-.2.3-.2.5v-.1c0 .1-.1.2-.2.3l.1-.1c0 .1-.1.3-.2.3v.2l-.1.1c0 .1-.1.3-.1.4 0 0-.1.2-.1 0l-.4.7.1-.1c.1 0 0 .2-.1.3 0-.2-.1 0-.1 0 0 .1.1-.1.1 0s-.1.4-.2.4V14c-.1.2-.2.2-.3.4 0 .2-.1.2 0 .3-.2.5-.2.3-.2.4 0 .1-.2.4-.2.4.1.2-.3.5-.2.6l-.1.1s.1.1 0 .2-.1.1-.2.1l.1.1c-.5.7-.9 1.7-1.4 2.4l-.3.6c-.1.2-.2.5-.3.7v-.1l-.1.2-.1.2c.1-.1.1-.2.2-.3 0 .1 0 .2-.1.3l-.3.9c-.1.3-.1.7-.1 1 .1.2 0 .3 0 .4V23.2v-.1c0 .4.1.6.1 1.1-.1 0 0 .3-.1.2H9c0 .1 0 .3-.1.3l.1.5h-.1c0 .2 0 .8-.1.9.1.6.1 1.6 0 2.3 0 .1 0 .3.1.5l-.1.2c0 .2.1.4.1.5v.5c0 .2 0 .4-.1.3.1 0 0 .4 0 .4s-.3 10.2.3 12.6c.1.1.1.3.2.2 0 .2-.1.3 0 .3 0-.2.1.1.2-.2v.2-.2h-.1c0-.1 0-.2.1-.2 0-.1-.2-.2-.1-.5v.1c0-.2.1-.1.1-.2l.1-.2v.3-.1c0-.1.1-.1.1-.1v-.2.1l-.1-.3c.1-.1-.1-.3.1-.4 0 .2 0 0 .1 0v-.5.1-.2s0-.4.1-.4c.1-.3-.1-.1-.1-.5.1 0 0 .2.1.1v-.3s.1.1.1.2c.1-.9.3-1.3.3-2.1.1-.1 0 .1.1.2-.1-.6.1-.8.1-1.3.2-.7.1-1.5.1-2.3v.1c0-.1-.1-.3-.1-.4 0 0 .1.1.1-.1 0 0 0 .1-.1.1.1-.7.1-2.1.2-3.2 0-1.5.1-3.1 0-4.5 0 .2-.1.1-.1 0 .2-.5 0-.8.1-1.3v-2.3h.1v-.2c0-.3 0-.6.1-.7h-.1c0-.2.1-.1.1-.2v-.2c.1 0 .1-.1.1-.2s.1-.3.1-.3c0-.2.1-.6.3-.8l.1-.1s.1-.1.1-.2c.1-.1.2-.3.2-.4.2-.5.5-1.1.8-1.7h-.1l.1-.2c.1-.1.2-.4.3-.5-.1 0-.1.1-.1.2-.1.1-.1 0 0-.2v-.1c.1 0 .1-.1.2-.1.2-.5.3-.9.6-1.4 0 .1.2-.4.2-.2.1-.3-.1 0-.1-.2 0-.1.1-.2.1-.2 0 .1.1 0 .1 0l.1-.2v.1c.2-.5.4-.7.6-1.1l-.1.1c.1-.4.2-.3.4-.7v.1c0-.1 0-.2.1-.4.1 0 0 .2 0 .3.1-.1.2-.5.1-.4.1-.2.1-.2.2-.3 0 0-.1.1-.1 0 .1-.1.1-.2.2-.3 0 0 .1-.1.1-.2l-.2-.2c-.1 0-.1 0 0 0-.1 0-.1 0 0 0-.1-.1-.1 0 0 0zM20.4 24.9v-.2.2zM19.4 19.8zM18.7 18.6c.1.1 0 0 0 0zM20.5 28.1zM20.5 36.9zM20.6 36.4zM20.5 26s0-.1 0 0zM20.6 36.2v-.1.1zM20.5 37.1v-.2.2zM20.6 31.3c0-.1 0 0 0 0zM20.5 35.7z"/><path class="st0" d="M20.5 37.6s0-.1 0 0c-.1-.1-.1 0 0 0-.1 0 0 0 0 0zM20.5 33.2s.1 0 0 0c.1 0 .1 0 0 0zM15 24.7s-.1 0 0 0c-.1 0 0 0 0 0zM14.8 26.4zM15 23.6c.1 0 .1 0 0 0zM14.6 30.2zM14.7 27.9c0 .1 0 .1 0 0 0 .1 0 .1 0 0zM15.7 23.1zM15.5 22zM15.3 22.4c.1 0 .1 0 0 0zM15.4 22.5c0-.1 0-.1 0 0 0-.1 0 0 0 0zM14.8 43.8zM14.5 33.6zM15.1 43.8zM15.8 23.6c0 .1 0 .1 0 0 0 .1.1 0 0 0zM16.1 34.3zM15.1 43.8zM14.5 37.1zM14.4 37.3s0-.1 0 0c0-.1 0 0 0 0zM14.8 43.8c.1.1 0 .1 0 0zM14.5 39.3zM14.7 27.8zM15.8 29.2zM15.8 29.1s0 .1 0 0c0 .1 0 .1 0 0zM15.8 29.4zM15.9 27.9zM15.9 28.2zM15.9 30.1z"/><path class="st0" d="M16.3 32.9c0-.3-.1-.6-.1-.9-.1-.1-.1-.1-.1-.2h.1v-.1s0 .1.1 0h-.1s0-.2.1-.1v-.3c0-.1-.1 0-.1-.1h.1c.1-.2-.2-.2-.2-.4v-.1c-.1 0 .1 0 0 .1-.1 0-.1-.1-.1-.1v-.1c.1-.1 0-.2.1-.2l-.1-.1c.1-.1.1 0 .1-.1H16c0-.1 0 0 .1 0 0-.1-.1-.1 0-.1h.1v-.2.1c.1 0 0-.1 0-.1s0 .1-.1 0c0 0-.1-.1 0-.1h.1c0-.1-.1 0 0-.1-.1-.1 0-.1 0-.2l-.1-.1c0 .1 0 0-.1 0 .1-.1-.1-.1-.1-.2 0 0 .1 0 0 .1.1 0 .2 0 .2.1v-.1H16v-.1c-.1 0-.1.1-.1 0s.1 0 .1 0c0-.1-.1 0-.1-.1s0-.2.1-.2c0 0 .1 0 0 0 .1.1 0-.1.1 0-.1 0 0-.1 0-.1H16c-.2-.1.1 0 .1-.1s0 0-.1 0c0-.1.1-.1 0-.2l.1-.1v-.2c-.1.1.1.1 0 .2H16v-.2c0-.1-.1-.1-.1-.2.1 0 .1 0 .1.1.1-.1 0-.1 0-.2.1 0 0 .1.1.1v-.1c-.1 0 0-.1 0-.1 0-.2-.1-.2-.2-.3h.1c0-.1.1-.1.1-.1 0-.1-.1 0-.1 0v-.1s-.1.1-.1 0v-.1h.1v-.1c0 .1 0-.1-.1-.1v-.1c.1 0 0-.1 0-.1s0-.1.1-.1v-.1h-.1v-.1h.2s-.1 0-.1-.1c.1 0 .1-.1.2 0 .1 0 .1-.1 0-.2-.1 0 0 .1-.1.1 0-.2-.2-.2-.2-.3 0-.1 0-.1-.1-.1.1 0 .2-.1.2-.2 0 0-.1.1-.1 0v-.1c0-.1.1-.1 0-.2l.1-.1h-.1l-.1-.1V25h-.1c.1 0 0-.1.1-.1v-.1h.1c-.1 0-.1-.1-.1-.2.2 0 0-.1.1-.1-.1 0 0-.1-.1-.1 0-.1.1-.1.1-.1s.1-.1.1-.2l-.1-.1s0-.1-.1 0c-.1 0 0 0-.1-.1h.2s-.2-.1-.2 0c0 0-.1 0-.1-.1h.1-.1s0-.1.1-.1c0 0 .2.1.2 0 0 .1.1.1.1.1h.1c0-.1-.1 0-.1-.1.1 0 .1 0 .1-.1l-.1.1h-.1l-.1-.1c-.1.1-.1-.1-.2-.1v-.1c.1.1.1-.1.1 0 0 0-.1.1-.1 0 0 0 0-.1.1-.1v-.1s-.1.1-.1 0v-.1c.1 0 .1 0 .1.1 0 0 0-.2-.1-.1 0 0-.1.1-.1 0l-.1-.1h.1c0-.1 0-.1-.1-.1 0 0 0-.1.1 0v-.2c0-.1 0 0-.1 0 .1-.1.1-.2 0-.4-.1 0 0 0-.1-.1 0 0 .1-.1.1 0v-.1c.1 0 .1.1.1 0s-.1-.1-.1-.2c.1 0 0-.1.1 0v.1c0-.2-.1 0-.2-.1 0-.1.1-.1.1-.1v-.1c.1.1-.1.1-.1.1.1 0 0-.1 0-.2-.1.1 0 .1-.1.2 0 0 .1 0 .1.1h-.1c.1 0 0 .1 0 .1h-.1.1s-.1 0-.1.1c-.1 0-.1 0-.1-.1-.1.1.1.2.1.2v.1c0 .1-.1 0-.1 0v.2s-.1 0-.1-.1l.1.1s-.1.1-.1 0v.1h-.1s.1.2 0 .2c.1.1 0 .1.1.3-.1-.1-.1.1-.1 0 0 .1.1.1.1.1h-.1v.2c0 .1-.1 0-.1.1h.1l.1.1h-.1v.1c0 .1-.1 0-.1.1h.1c-.1.1.1.2 0 .3h-.1c0 .1 0 .2.1.3-.1 0-.1 0-.1.1s0 .1.1.1V24.9h.1c-.1.1.1.2 0 .3h-.1v.2s.1.1 0 .1c-.1-.1 0 .1-.1.1 0 .1 0 .1.1.1 0 .1-.1.1 0 .1 0 0 .1 0 .1.1v.2h-.1c.1.1 0 .1 0 .2l-.1.1v.1c0 .1-.1.1 0 .2s-.1.1 0 .2h-.2.1-.1c-.1 0 0 .1-.1.2h.1c.2.2-.1.4 0 .6h-.1l.1.1h-.1c0 .1.1 0 .1.1s0 0-.1 0c0 .1.1.2 0 .3V28.5h-.1v.2h.1c-.1 0 0 .1 0 .2 0 0 0-.1 0 0 0 0 0 .1.1.1l.1.2c-.1 0 0 .2-.1.2 0 .1 0-.1.1 0v.2h-.1l.1.1s0 .1-.1.1c0 .1-.2.2-.1.3v.1l.1.1v.3c.1.1 0 .1 0 .2v.1c.1.1-.1.2 0 .1l.1.1c0 .1 0 0-.1.1 0 .1.1.1 0 .2v.1c.1.1-.1.1 0 .2 0 0 0 .1-.1.1 0 .1.1.2.1.3-.1 0 0 0-.1.1h.1c0 .2-.1.3-.1.5h-.1.1c0 .2 0 .4-.1.6 0 0 .1.1.1.2s.1.3 0 .4h-.1c.1 0 0 .1 0 .1.1 0 0 .1 0 .1l.1.1h-.1s0 .1.1.1c0 0 0 .1-.1 0v.2c.1 0 .1.1.1.1h-.1.1s.1.1 0 .2c0 .1-.1.1-.1.1 0 .1 0 .1.1.1 0 .1-.1 0-.1.1v.1c.1 0-.1.2.1.2l-.1.1s.1 0 .1.1h-.1.1c-.1.3 0 .6-.2.9 0 .1.1.3.1.4v.1l.1-.1v.1c-.1.2-.1.4-.1.6.1.1-.1.1 0 .2 0 .1.1.2.2.3-.1 0 0 .1-.1.1h.1s0 .1-.1.1l.1.1h-.1c0 .1 0 .2-.1.3.1.2.1.5 0 .8 0 0 .1.1.1.2l-.1.1c0 .1.1.1.1.2v.2c0 .1 0 .1-.1.1.1 0 0 .1 0 .1s-.3 3.3.3 4.1c.1 0 .1.1.2.1 0 .1-.1.1 0 .1 0-.1.1 0 .2-.1v-.1h-.1s0-.1.1-.1c0 0-.2-.1-.1-.1 0-.1.1 0 .1-.1l.1-.1s.1.1 0 .1c0-.1 0 0 0 0h.1v-.1l-.1-.1c.1 0-.1-.1.1-.1 0 .1 0 0 .1 0V43.6s0-.1.1-.1c.1-.1-.1 0-.1-.1 0 0 0 .1.1 0v-.1s.1 0 .1.1c.1-.3.3-.4.3-.7.1 0 0 0 .1.1-.1-.8.1-.9.1-1.1.2-.2.1-.5.1-.7l-.1-.1h.1-.1c.1-.2.1-.7.2-1 0-.5.1-1 0-1.5 0 .1-.1 0-.1 0 .2-.1 0-.3.1-.4-.1-.3.1-.5 0-.8h.1v-.4h-.1c0-.1.1 0 0-.1l-.1-.1c.1 0 0-.2.1-.2 0-.1-.1-.2 0-.3.1 0 .1-.2.1-.2v-.6h-.1v-.1c.1 0 0-.1 0-.2-.1 0 0 0 0 .1 0 0-.1 0-.1-.1h.1c0-.2-.1-.3-.1-.5.1 0 0-.1.1-.1 0-.1-.1 0-.2 0v-.1h.1v-.1c-.1-.2.1-.3 0-.4 0 0 0 .1-.1 0s.1-.1 0-.3h.1s-.1-.1 0-.1.1.1.1.1 0-.2-.1-.1c0-.1 0-.1.1-.1 0 0 0 .1-.1 0V33s.2 0 .2-.1zM15.9 27.8c0 .1 0 .1 0 0zM15.9 29.6s0 .1 0 0zM16 30.1zM15.7 26.8c.1 0 .1 0 0 0 .1 0 .1 0 0 0zM15.8 23.9zM15.7 24.1zM15.8 27.5zM15.7 24.2zM15.8 23.9zM15.7 25.7c0 .1 0 .1 0 0zM15.8 24.3zM15.8 23.7z"/><path class="st0" d="M15.8 25.1c-.1 0-.1 0 0 0-.1 0-.1.1 0 0zM19.2 21.1zM18.4 20.9zM19.7 21.2s.1 0 0 0zM16.5 20.7zM17.6 20.9zM20 21.9c0-.1 0 0 0 0zM20.5 21.7zM20.3 21.5zM20.3 21.5zM9.8 20.9s0 .1 0 0zM14.8 20.7zM9.8 21.3zM19.7 22zM14.5 22.3zM9.8 21.3zM13.1 20.7zM13 20.6zM9.8 21zM12 20.7zM17.7 20.9zM17 22zM16.9 22zM17.5 22.1zM16.5 22.1zM15.2 22.4c.1 0 .3-.1.5-.1 0-.1.1-.1.1-.1v.2-.1s.1 0 0 .1h.1s0-.1.1-.1v.1c.1.1.1-.2.2-.2 0-.1 0 .1 0 0v-.1h.1c0 .1.1 0 .1.1 0 0 0-.1.1-.1v.1-.1.1s0-.1.1 0v.1h.1c0 .1 0 0 0 0v-.1s0-.1.1 0v.1s0-.1.1 0c0-.1.1 0 .1 0v-.2c0 .1.1-.1.1-.1s0 .1 0 0c0 .1 0 .2-.1.2V22v.1s0-.1.1-.1c0 0 .1 0 .1.1 0 0 0 .1 0 0v.1c0-.1 0 0 .1 0v-.1c.1-.2 0 .1.1.1v-.1s0 .1.1 0v.1h.1c0-.1 0 .1-.1 0v-.1h.1l.1-.1v.1c0 .1 0 0 .1 0v.1h.1c0-.1 0 0 .1 0s.1-.1.1-.2v.1s.1.1 0 .1v-.1h.1V22h.1v.1s.1 0 0-.1c0 .1 0 0 0 0v.1-.1h.1v.2-.1.2c0 .1.1.1.1 0v-.1c.1 0 .1-.2.1-.2l.1-.1c0 .1 0 .2.1.2V22s.1.1.1 0v.1-.1s0-.1.1-.1h.1v-.1c0 .1.1 0 .1.1v.1c0-.1.1-.1.1-.1 0 .2 0 0 .1.1 0-.1.1 0 .1-.1v.1c0 .1.1.1.1.1v-.2c0-.1 0 0 .1-.1v.2s.1-.2 0-.2v-.1.1-.1l.1.1v.2s0 .1-.1.1v.1s0-.1.1-.1v.1-.2s0-.1.1-.1c0-.1.1-.1 0-.2v.2-.1.1-.1.1s.1 0 .1-.1c0 0-.1-.1 0-.1v-.1.1-.1.1h.1v-.1c0 .1.1.1.2 0v-.1s.1.1 0 .1c0 .1-.1.1 0 .1l.1-.1v.1c.1 0 0-.1.1-.2v.1c0 .1-.1-.1 0-.1 0 .1.1 0 .1 0l-.1-.1v.1-.1c0 .1 0 0 0 0v-.1.1-.2c-.1-.1-.1.1-.1.1v-.2.1-.1h-.1V21s-.1.1-.1 0c-.1.1-.1 0-.1.1 0-.1-.1-.1 0-.1 0 0 0 .1-.1.1v-.2.2-.1h-.1v.1-.1.1c-.1-.1-.1.1-.1 0V21s-.1 0-.1.1c0-.1 0-.1-.1-.1v.1h-.1v.1c0-.1-.1.1-.1 0v-.1h-.1s0 .1-.1 0V21v.1s0-.1-.1 0v.1H19v-.1c-.1.1 0 0-.1 0V21h-.1c-.1 0-.1-.1-.1 0s0-.1-.1 0v-.2.1-.1c0-.1-.1 0-.1-.1v.1c-.1.2-.2-.1-.3 0v-.1.1-.1s0 .1-.1.1v-.1s-.1.1-.2 0h-.1v-.1h-.1v.1c0-.1-.1 0-.1 0l-.1.1-.1.1c0-.1-.1 0-.1-.1v.1-.1.1s-.1 0-.1-.1c-.1 0-.1-.2-.2-.1l-.1.1h-.2c-.1.1-.1 0-.1 0 0 .1-.1-.1-.1 0 0 0 0 .1-.1.1v-.1s0 .1-.1 0h-.1c0 .1-.1-.1-.1 0 0 0-.1 0-.1-.1-.1 0-.1.1-.2.1v-.1.1c-.1 0-.2-.1-.3-.1v-.1.1c-.1 0-.2 0-.3-.1l-.1.1c-.1 0-.1.1-.2 0v-.1c0 .1 0 0-.1 0 0 .1-.1 0-.1 0v.1-.1s-.1 0-.1.1v-.1h-.1c0 .1 0 .1-.1.1v-.1.1s-.1.1-.1 0c0 0 0-.1-.1-.1v.1-.1h-.1c0 .1-.1-.1-.1.1v-.1.1-.1.1c-.1-.1-.3 0-.4-.2-.1 0-.1.1-.2.1h-.1l.1.1c-.1-.1-.2-.1-.3-.1-.1.1 0-.1-.1 0-.1 0-.1.1-.2.2v-.1.1-.1.1-.1s-.1 0-.1-.1c-.1.1-.2.1-.4 0l-.1.1v-.1l-.1.1H12s-.1 0-.1-.1c0 .1-.1 0-.1 0s-1.6-.3-2 .3v.2s0-.1 0 0v.2-.1.1s0-.2.1-.1v.2s-.1.1 0 0v.1-.1c0 .1 0-.1.1.1v.1h.1s.1 0 .1.1c.1.1 0-.1.1-.1v.1h.1v.1c.1.1.2.3.3.3v.1c.1-.1.1.1.2.1.1.2.2.1.4.1 0 0 0-.1.1-.1v.1-.1c.1.1.3.1.5.2.2 0 .5.1.7 0v-.1c.1.2.1 0 .2.1.1-.1.3.1.4 0v.1h.1v-.1s0 .1 0 0v-.1c0 .1.1 0 .1.1 0 0 .1-.1.2 0 0 .1.1.1.1.1h.3v-.1c0 .1.1 0 .1 0 0-.1 0 0 0 0v-.1.1c.1 0 .2-.1.2-.1 0 .1.1 0 0 .1.1 0 0-.1 0-.2v.1c.1-.1.1.1.2 0v-.1c.1-.1.1.1.1 0v.1s0-.1.1 0v.1s.1 0 .1-.1l.1.1v-.1h.3c-.1 0-.1 0 0 0-.1-.1-.1.1 0 0zM17.7 22.1c-.1 0-.1 0 0 0zM16.8 22.1z"/><path class="st0" d="M16.6 22.2s0-.1 0 0c-.1-.1-.1 0 0 0zM18.2 21.9zM19.6 22zM19.5 21.9zM17.8 22zM19.5 21.9c-.1 0-.1 0 0 0zM19.6 22zM18.7 21.8c0 .1 0 .1 0 0zM19.4 22zM19.7 22zM19 21.9zM39 34c0 .1 0 .1 0 0zM38.4 28.3zM39.2 37.5v.2-.2zM40.2 17zM40.2 24.6v-.1.1zM38.7 39.4c0-.1 0-.1 0 0zM38.9 42.8zM39.1 41.5c0-.1 0-.1 0 0 0-.1 0 0 0 0zM39.1 41.3s0 .1 0 0zM29.8 43.4c0 .1 0 .2.1.3l-.1-.3zM32.7 11.7zM30.2 43.5zM38.5 37.5c0-.1 0-.3-.1-.3 0 .1 0 .3.1.3zM32.6 14.6zM30.2 43.5c0-.1 0-.1 0 0zM28.5 22.8s-.1 0 0 0zM28.6 23.5s0-.1-.1-.1c0 .1 0 .1.1.1zM29.9 43.6v.2-.2zM30.6 28.6zM39.9 25c0 .1 0 .1 0 0 0 .1 0 .1 0 0zM39.8 20.4zM39.8 20.6c0-.1 0-.2-.1-.2.1.1.1.1.1.2zM39.7 19.9zM39 24.2zM39.4 23.5s0-.1 0 0c0-.1 0-.1 0 0zM39 17.7z"/><path class="st0" d="M35 11.6c.1.1.2.1.2.1.1.1.2.2.2.3.2.2.3.4.4.6.2.1.3.3.5.6l-.1.1.2.2c0 .1-.1-.1-.1 0h.1s.3.5 0 .2c.2.3.3.5.5.8.1.2.1.1.2.3 0 .1-.1-.1-.1 0 .1.3.3.4.4.6.1.1.3.3.4.6.1.1.2.3.2.3.1-.1-.1-.1-.1-.3.1 0 .2.2.2.1 0 .1.1.2.2.3 0 .2.2.5.2.7.1.1.2.2.3.4 0 .2-.1 0 0 .2h.1c.1.2 0 .2 0 .2.1.2.1.1.2.4l-.1-.1c.1.2.1.2.2.5 0 0-.1-.1-.1-.2 0 .2.1.2.1.3 0 0 0-.2.1-.1 0 .1.2.2.1.3l-.1-.1c.1.2.1.1.2.4.1.1.1.2.1.3 0 .1 0 .2.1.4 0 .1.1.2.1.2 0-.2 0-.1.1-.1 0 .1 0 .2.1.3 0 .1.1.2.1.4 0 0-.1-.1-.1-.2-.1-.1-.2-.1-.3-.3 0 .1.1.3 0 .2h.1v.2c.1 0 .1-.2.1 0 .1.2-.1.1 0 .1.1.3.1.1.1.4v-.1c0 .2 0 .5-.1.5 0 0-.1 0 0-.1 0-.1 0-.1 0 0v.1c.1 0 0 .2 0 .4h.1c.1.2.1.2 0 .2s-.1 0-.1.2 0-.1.1.1c0 .1 0 .1-.1.2v.3c0 .1-.1.2-.2.2 0 .1 0 .2-.1.3 0 .1-.1.2 0 .2.1-.1.1-.2.1-.2 0-.1 0-.1.1-.3v.6s0 .1-.1.1h.1v.4s0 .1-.1.2V24.2c-.1.1-.1.1-.1.2v.1s0 .1-.1.1v-.1s.1-.1 0-.1c0 0 0 .1-.1.1l-.4-.3s0 .1-.1.2l-.2.2c-.1.2-.2.3-.2.4 0 .1-.1.2-.1.3h-.1c.1 0 .1-.1.1-.1-.1.1-.3.2-.3.1-.1.1-.1.1 0 .1 0 0 .1 0 0 0l-.3.2c.1 0 .2-.1 0 .1l-.1.1s-.1 0-.1.1c0 0-.1.1-.2.1 0 0-.1 0 .1-.1-.1.1-.3.2-.4.3.2-.1.1 0 0 .1v.1s0 .1 0 0v.3c0-.1 0-.1-.1-.2v.2c0 .1.1.1.1.2V27.5c0 .1 0 0 .1 0l.1.4s-.1.1-.2 0c.1.1.1 0 .2.2-.1-.1 0 .3-.1.1 0 .1 0 .5.1.6.1.1 0-.2.1-.2.1.5.3.5.3.9v-.1c.1.2.1.2.1.3-.1-.1-.2.3-.1.7 0 0 0-.2.1-.2v.3c.1.2 0 .4.1.5l-.1.3v-.1l.1.3c.1.3.1.4 0 .5 0-.1.1-.2.1 0-.1 0 0 .4-.1.4v.2h-.1c.1 0 .1.3.2.6-.2 0 0 .3-.1.4.1 0 .1.4.2.4 0 .2-.1.2-.1.2v.7l.1.2v.1s.1.2.1.1v.1c.1 0 0 .1.1.3h-.1c0 .1 0 .1-.1.1 0-.1.2.4.2.1 0 0 .1.1.1.2l-.1.1.1.1v.4c0-.1-.2-.3-.2.1 0-.2-.1-.3-.1-.3 0 .1 0 .1-.1 0 .1.3.1.1.1.3-.1 0-.1.1-.1.3V36.8c0 .1.1.3.1.3.1-.3.1.5.2.3v.2c-.1-.2-.1.2-.1.1 0 .1 0-.2.1-.1 0 .1 0 .2-.1.3v-.1.2s.1-.2.1 0v.2c-.1-.1-.1 0-.2-.2 0 .1 0 .5.1.4v.2c0-.1.1-.4.1-.1l.1.2v.2s0 .1-.1.1c0 .2.1.2.1.2 0 .1 0 .2-.1.1v.6c0 .2 0 0 .1.1-.1.1-.1.3-.1.5v.6c.1-.1 0 .1.1.2 0-.1-.1.4-.1 0v.2c-.1.1 0-.3-.1-.1 0 .2.1.4.1.7-.1-.1 0 .2-.1.1V42c-.1.5.1.2.1.4 0 .3-.1.2-.1.3v.3c0-.2.1-.3.1-.3-.1.1 0 .5 0 .5.1-.4 0-.3.2-.7 0-.1-.1-.1-.1-.3 0 .2.1 0 .1-.1-.1 0 0-.2 0-.3 0-.1.1.2.1-.1l-.1-.1c0-.1.1 0 .1-.2.1.1.1 0 .1.3.1-.3 0-.5-.1-.8v.1-.2c0-.2.1.1.1.1v-.5c0 .1.1.1.1.2l.3.4s.1-.3.1 0v-.4h.1c0-.1 0-.1 0 0 0-.2-.2-.7 0-.6-.1-.3-.1-.5-.1-.9.1.3.1-.4.1 0 0-.2-.1-.2-.1-.4s.1-.1.1.1v-.2l-.1-.2c0-.2.1 0 .1-.2h-.1v-.1s-.1-.1-.1-.2v-.2c.1.2 0-.1.1-.1v-.4c-.1-.3.1 0 .1-.3h-.1c.1-.4-.1-.6-.1-.9 0 .2.1.1.1.1 0-.2-.1-.6-.2-.9.1-.1.1-.1.1-.4 0-.2 0-.2-.1-.3 0-.2-.1-.5 0-.5-.1 0 0-.2-.1-.3h-.1c.1-.3-.1-.5-.1-.9v.1-.1h.1c0-.2 0-.4-.1-.6v.1c0-.1-.1-.2-.1-.4.1.2 0-.2 0-.3v.1c0-.2 0-.2-.1-.2-.1-.2.1-.2 0-.4v.2c0 .1-.1-.1-.1-.2 0 0 0-.1 0 0 0-.2-.1-.5-.1-.5 0-.1 0-.1.1 0-.1-.4 0-.2-.1-.6h.2v-.2.1c0-.1-.1-.2-.1-.4l.1.1c-.1-.4 0-.4-.1-.8v.1c-.1-.3 0-.3-.1-.6l-.1-.1h.1V28l.1-.1v-.1c.1-.2 0-.4 0-.6l-.1.1c0-.1-.1-.1-.1-.2V26.8h.2l.1-.1.2-.2v.1c.1-.1.1-.2.2-.3.2-.1 0 .1 0 .1.1-.1.1-.2.1-.2v-.1s.1-.1.1-.2c.2-.1 0 .1-.1.2l.2-.2.1-.1.1-.1c.1-.1.1-.2.2-.2.1-.1.1-.1.1-.2s.1-.1.1-.2.1-.1.1-.2c.1-.1.1-.2.2-.4v.1l.1-.1v-.1.1c0-.1.1-.2.1-.3 0-.1.1-.2.1-.2s-.1 0 0-.2c.1 0 .1-.1.1-.3 0-.1 0-.3.1-.4v.2c.1-.1 0-.3 0-.4v-.6s0-.1.1-.1v-.4c0-.2 0 .2-.1-.1v-.4l.1.1c0-.2-.1-.3-.1-.3v-.5.1-.6c0-.2 0-.3-.1-.5l-.1-.3.1.1c-.1-.1-.1-.3-.2-.4-.1-.3-.2-.7-.4-1.1-.2-.4-.1-.4-.3-.7 0-.1-.1-.2-.1-.3h.1c-.1-.2-.1-.6-.2-.4-.1-.1-.2-.3-.2-.3-.1-.3 0-.1 0-.3-.1-.2-.2-.2-.3-.5-.1-.1-.1-.2-.2-.3-.2-.2-.1-.4-.3-.5 0-.1-.2-.3-.1-.4l-.6-.9c.1-.1 0-.1-.1-.3-.3-.4-.5-1-.9-1.5l.3-.1c-.2-.3-.4-.6-.6-.8 0-.1-.1-.1-.1-.2s-.1-.1-.1-.2c-.1-.1-.2-.2-.3-.4-.2-.2-.4-.4-.5-.6-.1 0-.1-.1-.2-.2l-.1-.1c-.1.2-.3.4-.4.5-.1.1-.1.2-.2.2-.1.1-.1.2-.2.2-.1.2-.3.3-.4.5 0 .1-.1.1-.1.2l-.1.1c-.1.1-.2.2-.2.3v-.1c0 .1-.2.2-.3.3l.1-.1c0 .1-.2.3-.3.3l-.1.2v.1h-.1c0 .1-.2.3-.2.4 0 0-.2.2-.1 0l-.5.6.1-.1c.1 0-.1.2-.2.3.1-.2-.1-.1-.1 0s.1-.1.1 0-.2.4-.3.4v-.1c-.1.2-.2.2-.3.3-.3.6-.4.7-.3.7-.1.2-.1 0-.2.1 0 .1-.2.4-.3.4 0 .1-.1.2-.2.4-.1.1-.2.2-.1.3l-.2.1s.1.1 0 .2-.1.1-.2.1l.1.1c-.1.2-.3.4-.4.6-.1.1-.1.2-.2.3s-.1.2-.2.4c-.1.1-.1.2-.2.4.1.2.1.4 0 .5 0 .1-.1.3-.1.4v.2c0 .1 0 .1-.1.2 0 .1 0 .2-.1.4v.4c0 .3-.1.5-.1.8v-.1c0 .2-.1.4-.1.5 0-.1.1-.3.1-.4v.3c0 .1 0 .3-.1.5v1.5c0 .1 0 .2.1.3.1.2.1.3.1.4 0 .1 0 .2.1.4l-.1-.1c0 .1 0 .1.1.2 0 .1 0 .1.1.1 0 .1.1.2.1.3 0 .1.1.2.2.3l.1.1.1.1.1.1c-.1 0 .2.3.1.3h.1c0 .1.2.3.1.3.1 0 .1.1.2.1v.1c0 .1.1.1.2.2s.1.2.2.2c.1.1.1.2.2.2.1.1.1.1.1.2.1.1.3.2.4.3l.1.1.1.1h.1V27.6c0 .1 0 .4-.1.6 0 .1-.1.1-.1.2v.6c0 .2-.1.4-.1.6 0 .2-.1.4-.2.3.1 0 0 .1 0 .2s-.1.2-.1.2 0 .2-.1.5c0 .3-.1.7-.2 1.3-.1 1.1-.3 2.5-.4 4-.2 3-.2 6.4.1 7.7.1.1.1.3.2.2 0 .2-.1.3 0 .3 0-.3.1.1.2-.2v.2-.2h-.1c0-.1 0-.2.1-.2 0-.1-.2-.2-.1-.5v.1c0-.2.1-.1.1-.2v.1l.1-.2v.3-.1c0-.1.1-.1.1-.1v-.2.1-.3c.1-.1-.1-.3.1-.5 0 .2 0 0 .1 0v-.5.1-.2s0-.4.1-.4c.1-.4-.1-.2 0-.5.1 0 0 .3.1.1v-.3s.1.1.1.2c.1-.9.4-1.4.4-2.3.1-.1 0 .1.1.2 0-.6.2-.9.2-1.4.2-.7.2-1.6.3-2.4v.1-.4s.1.1.1-.1c0 0 0 .1-.1.1.2-.7.3-2.2.5-3.3l.3-1.8.1-.5c0-.1.1-.3.1-.4 0-.1.1-.3.1-.4v-.1l.1-.2c0-.1.1-.2.1-.4v-.5c0-.1-.1-.2-.1-.3 0-.1-.1-.2-.1-.3-.1-.1-.2-.1-.3-.2.2.1.2.2.2.2s-.2 0-.3-.1l-.1-.1v-.1l-.1-.1-.2-.2-.2-.2c-.1-.1-.1-.2-.2-.3-.3-.3-.4-.6-.6-.9 0-.1-.1-.2-.1-.2 0-.1-.1-.2-.1-.2s0-.1-.1-.1v-.1c0-.1-.1-.2-.1-.2h.1c0-.1 0-.1-.1-.2v-.4c0-.1-.1-.2 0-.3H31v-.3c0-.1-.1-.1-.1-.2.1 0 .1-.1.1-.2v-.8c0-.2.1-.4.1-.5.1 0 .2-.4.3-.7 0-.1.1-.3.1-.4 0-.1.1-.3.1-.5.1-.2.1-.3.2-.5 0-.1.1-.2.1-.2 0-.1.1-.2.1-.2h-.1l.1-.2c.1-.1.2-.4.3-.5-.1 0-.1.1-.1.2-.1.1-.1 0 0-.2v-.1c.1 0 .1-.1.2-.1.1-.3.2-.5.3-.7.1-.2.2-.4.4-.7 0 0 .1 0 .1-.1.1-.1.1-.2.1-.1.2-.3-.1 0-.1-.2.1-.1.1-.2.1-.2 0 .1.1 0 .1 0l.1-.2v.1c.1-.2.2-.4.4-.6.1-.2.3-.3.4-.5 0-.1-.1.1-.1.1.1-.2.2-.3.2-.3l.1-.1s.1-.1.1-.2v.1c.1-.1.1-.2.2-.3.1 0-.1.2-.1.3.1-.1.3-.4.2-.4.1-.2.2-.2.3-.2 0 0-.1.1-.1 0l.3-.3.2-.2.1-.1c-.8-1-.8-1-.7-1-.1 0 0 0 0 0-.1 0 0 0 0 0s0 .1 0 0z"/><path class="st0" d="M39 24.3c.1-.1 0-.1.1-.2l-.1.2zM39.5 19.1c0-.1-.1-.1 0 0-.1-.1 0 0 0 0zM38.9 17.8c.1.1.1 0 0 0 0-.1 0-.1 0 0zM37.3 27.3c-.1-.1-.1-.1 0 0-.1 0 0 0 0 0zM38.4 36.5zM38.5 36v-.1c-.1 0 0 0 0 .1zM38.4 25.2c.1 0 .1-.1 0 0zM38.4 35.8v-.1.1zM38.4 36.7v-.2.2zM37.9 30.6c-.1-.1-.1 0 0 0zM38.3 35.2zM38.4 37.2zM38 32.6c.1 0 .1 0 0 0 .1 0 .1 0 0 0zM60.3 33.6s0-.1 0 0zM60.5 27.5zM60.2 37.2v.2-.2zM60.7 14.6zM60.6 22.2v-.1c-.1.1-.1.1 0 .1zM59.6 39.1V39v.1zM59.8 42.8zM59.9 41.3v-.1.1zM59.9 41.2zM48.1 43.3c0 .1 0 .2.1.3l-.1-.3zM51.7 9.4zM48.5 43.5zM59.5 37.1v-.3c-.1.1-.1.3 0 .3zM50 11.4c-.1.1 0 0 0 0zM48.5 43.5c0-.1 0-.1 0 0 0-.1 0 0 0 0zM47.8 20.3zM47.8 21v-.1.1zM48.2 43.6v.2-.2zM47.8 27.9zM60.5 22.7s0 .1 0 0c0 .1.1.1 0 0zM59.4 17.9zM59.5 18.2c0-.1 0-.2-.1-.3 0 .1 0 .2.1.3zM59.4 17.4zM59.4 22.5zM59.4 21.5zM59.3 14.8z"/><path class="st0" d="M54 11.1c1 0 2.2-.1 3.2-.1.1 0 .2-.1.4-.1h.4v.1h.1c.1 0-.1 0 0 .1 0 0 .1 0 .1-.1h.2c.1 0 .1.1-.1 0 .2.1.4.2.5.3 0 .1.1 0 .1.1 0 0 .1 0 .1.1h-.1s0 .1.1.1c0 0 0 .1.1.1.1.1.1.1.1.2 0 0 0 .1.1.1 0 0 0 .1.1.1v.5c.1 0 0-.1 0-.1V12.2c.1 0 .1.2.1.2v.4c-.1.2 0 .6-.1.8 0 .1.1.2.1.5-.1.2-.1 0-.1.2h.1c0 .2 0 .2-.1.2 0 .2.1.2 0 .4l-.1-.1v.6-.2c-.1.1 0 .3 0 .3s0-.2.1-.1c0 .1.1.3 0 .4l-.1-.1c0 .3.1.2 0 .5.1.2 0 .5 0 .8v-.1c0 .1.1.2.1.3 0-.2 0-.1.1-.1-.1.2.1.4.1.7 0 0-.1-.1 0-.2-.1-.1-.2-.1-.2-.4v.3h.1v.2c.1 0 .1-.2.1 0s-.1.1-.1.2c0 .3.1.1.1.4v-.1c0 .2 0 .5-.1.6 0 0-.1 0 0-.1-.1-.2 0 .2-.1.1.1 0 0 .3 0 .4h.1c.2.5-.1 0-.1.4 0 .3 0-.1.1.1 0 .2-.1.3 0 .5 0 .1-.1.2-.1.2v.6c.1-.3-.1-.3 0-.6l.1.1v.7c0 .3.1.4.1.8-.1 0-.1-.1-.1-.3-.1.2 0 .2 0 .5-.1 0 0-.2-.1-.3v.4c.1.1 0 .3 0 .5 0 .5.1.6.2.9 0 .1-.1.1-.1.1v-.2c0 .2-.1.4-.1.3 0 .3.1-.1.1.1v.4s.1-.2.1 0v.5s-.1.1-.1-.1v.3c0-.2 0 .4.1.2v.2-.1c-.1.1 0 .2 0 .3 0 .1 0 .3-.1.3v.3c0 .1 0 0 .1 0v.4s-.2.1-.2 0c0 .1.1.1.1.3-.1-.1-.1.3-.2.1-.1.1-.1.5 0 .7.1.1 0-.2.1-.2 0 .6.2.6.2 1v-.1c0 .3 0 .2.1.4-.1-.1-.2.3-.2.7l.1-.2v.3c0 .2-.1.5 0 .5l-.1.3.1-.1s.1.3.1.4v.5s.1-.2.1.1c-.1 0 0 .5-.1.5v.3h-.1c.1 0 .1.4.1.6-.2-.1 0 .3-.1.4.1 0 0 .4.1.5 0 .2-.1.2-.1.2v.1c0 .1-.1.5-.1.7l.1.2v.1s0 .2.1.1v.1c.1 0 0 .2.1.4 0 .1 0 0-.1 0 0 .1-.1.1-.1.1 0-.1.2.4.2.1 0 0 .1.2.1.3l-.1.1.1.1c0 .2 0 .2-.1.4 0-.1-.2-.3-.2 0 0-.2-.1-.3-.1-.4 0 .1 0 .1-.1 0 0 .3.1.1.1.4-.1 0-.1.1-.1.3l.1-.2c0-.1 0-.1.1-.1 0 .1.1.3.1.4.1-.3.1.5.2.3v.2c-.1-.2-.1.2-.1.1 0 .1.1-.2.1-.1s0 .2-.1.3v-.1.2s.1-.2.1 0v.2c-.1-.1-.1 0-.1-.2 0 .1 0 .6.1.4v.2c0-.1.1-.4.1-.1l.1.2v.2s0 .1-.1.1c0 .2 0 .2.1.3 0 .1 0 .2-.1.1v.7c0 .3 0-.1.1.1-.1.2-.1.8 0 1.3.1-.1 0 .1.1.2 0-.1-.1.4-.1 0v.2c-.1.2-.1-.4-.1-.1 0 .2.1.4.1.7-.1-.1 0 .2-.1.2v-.2.1c0 .5.1.2.2.4 0 .3-.1.3-.1.3v.3c-.1-.2.1-.4.1-.3-.1.1 0 .5 0 .6.1-.5 0-.3.1-.8 0-.1-.1-.1-.1-.3 0 .2.1 0 .1-.1-.1.1 0-.2 0-.3 0-.1.1.2.1-.1l-.1-.1c0-.1.1 0 .1-.2.1.1.1 0 .1.3.1-.4-.1-.6-.1-.8v.1-.3c0-.2.1.1.1.1v-.5c0 .1.1.1.1.2l-.1-.3s.1-.3.1 0v-.5h.1c0-.1 0-.1 0 0 0-.2-.1-.7 0-.6-.1-.4 0-.5-.1-1 .1.3.1-.4.1 0 0-.2-.1-.3-.1-.4 0-.2.1-.1.1.1V38c0-.2.1 0 .1-.2h-.1v-.1s0-.1-.1-.2v-.2c0 .2 0-.2.1-.1v-.4c0-.3.1 0 .1-.3h-.1c.1-.4-.1-.7 0-1 0 .2.1.1.1.1 0-.3 0-.7-.1-.9.1-.1.1-.1.1-.4 0-.2 0-.2-.1-.3V33.1h-.1c.1-.3-.1-.6 0-.9v.1-.1h.1v-.7.1c0-.1-.1-.2 0-.4.1.3 0-.2.1-.3v.1c0-.2 0-.2-.1-.2 0-.3.1-.2 0-.4v.2s-.1-.1-.1-.2c0 0 0-.1 0 0v-.6c0-.1.1-.1.1 0-.1-.4 0-.2 0-.6v-.1l.1-.2v.1-.4.1c0-.4.1-.5 0-.8v.1c-.1-.3.1-.3 0-.6h.1v-.2h.1l-.1-.1.1-.1v-.1c.1-.2 0-.4.1-.6H61c-.2-.6.1-1.3 0-2h.1L61 24c.1-.2.1.1.1 0 0-.3-.1-.1-.1-.5 0-.2 0 .1.1.2 0-.3-.1-.8 0-1.1v-.8.1-.3l.1.1v-.6s-.1 0-.1-.2c.1-.1 0-.4 0-.7v.2c0-.1 0-.3-.1-.4l-.1-.6c.1-.1 0-.6.1-.5 0-.2 0 .2-.1-.1v-.4l.1.1c0-.2-.1-.3-.1-.3 0-.2 0-.4.1-.5v.1c0-.4.2-.7.1-1.1v-.3.1L61 16v-1.2.1c-.1-.4 0-.4 0-.7v-.3.1c-.1-.2.1-.6 0-.5 0-.1-.1-.3-.1-.4 0-.3 0-.1.1-.3 0-.2-.1-.3 0-.6v-.5.1c0-.1 0-.2-.1-.3v-.4c0-.1-.1-.1-.1-.2v-.1c0-.1 0-.1-.1-.1v-.2c0-.1-.1-.1-.1-.2 0 0 0-.1-.1-.1l-.1-.1-.1-.1-.1-.1-.1-.1-.1-.1c-.1-.1-.2-.1-.3-.2 0-.1 0-.1-.1-.1s-.1-.1-.2-.2v.1c-.3-.2-.7-.3-1.1-.4h-1.1v-.1l-.1.1c-.7 0-1.5 0-2-.1-.2 0-.4.1-.7.1-.5 0-1 .1-1.5 0v-.1c-.1.1-.3 0-.4 0h.1c-.1.1-.4 0-.4 0l-.2.1-.1-.1c-.1 0-.4 0-.5.1 0 0-.3 0-.1-.1-.4 0-.7.1-1.1.2h.2s0 .1-.1.1-.2.1-.3.1c.2-.1 0-.1-.1-.1-.1.1 0 0 0 0h.1l-.1.1c-.1 0-.1.1-.2.1l-.2.2s0-.1.1-.1l-.1.1h-.1l-.1.1c-.1 0-.2.1-.2.2-.1.1-.1.2-.1.2v.1c-.2.3-.1.1-.2.2 0 .1-.1.2-.2.3-.1.1-.1.2-.2.3v1.2s.1 0 .1.2-.1.1-.1.2l.1.1c-.1.9 0 2.1-.2 3.1 0 .4.1 1 .1 1.5v-.1.5l.1-.4v.3c-.1.6-.1 1.3-.1 2 .1.5-.1.3 0 .7v-.1c0 .5.1.7.2 1.2-.1-.1 0 .3-.1.3h.1c0 .1 0 .3-.1.3l.1.2h-.1c0 .3 0 .9-.1 1 .1.7.1 1.7 0 2.6 0 .1.1.4.1.6l-.1.2c0 .2.1.4.1.6v.6c0 .2 0 .4-.1.4.1 0 0 .5 0 .5s-.3 11.3.3 14c.1.1.1.3.2.3 0 .2-.1.3 0 .3 0-.3.1.1.2-.2v.2-.2H49c0-.1 0-.2.1-.3 0-.1-.2-.2-.1-.5v.1c0-.2.1-.2.1-.2v.1l.1-.2c0 .2.1.4 0 .3v-.1c0-.1.1-.1.1-.1v-.2.1l-.1-.3c.1-.1-.1-.3.1-.5 0 .2 0 0 .1 0v-.6.1-.2s0-.4.1-.4c.1-.4-.1-.2-.1-.5 0 0 0 .3.1.1v-.4s.1.1.1.2c.1-1 .3-1.5.3-2.4.1-.1 0 .1.1.2-.1-.6.1-.9.1-1.5.2-.8.1-1.7.1-2.6v.1c0-.1-.1-.3-.1-.5 0 0 .1.1.1-.1 0 .1 0 .2-.1.1.1-.7.1-2.3.2-3.5 0-1.7.1-3.5 0-5.1 0 .2-.1.1-.1 0 .2-.5 0-.9.1-1.4-.1-.9.1-1.8 0-2.7h.1v-1.2h-.1c0-.2.1-.1 0-.3l-.1-.2c.1 0 0-.5.1-.7 0-.3-.1-.7 0-1.1.1-.1.1-.5.1-.8v-2.1h-.1v-.2c.1-.1 0-.4 0-.6-.1.1 0 .1 0 .2 0 .2-.1 0-.1-.2v-.1c.1 0 .1-.1.1-.2V12c0-.2 0-.4.2-.5 0 0 .1 0 .1-.1s.1-.1.1 0c.1-.1 0-.1 0-.1s-.1 0-.1-.1c0 0 0-.1.1-.1h.1s.1 0 .1.1l.1-.1.1-.1c.1-.1.3-.2.4-.2.1 0 .3 0 .4-.1h-.2H52.4l-.9.3c.1 0 .2-.1.4 0 0 .1-.2.1-.3.1.2 0 .6 0 .5-.1.2 0 .3 0 .4.1 0 0-.2 0-.1-.1h1c.2 0 .2.1.6.1zM59.4 22.7v-.2.2zM59.4 16.4zM59.3 14.9c0 .1 0 0 0 0 0-.1 0-.1 0 0zM59.5 26.2zM59.5 36.1c0-.1 0-.1 0 0 0-.1 0-.1 0 0zM59.6 35.5v-.1.1zM59.5 23.8v-.1.1zM59.6 35.3v-.1.1zM59.5 36.2V36v.2zM59.6 29.8c0-.1 0 0 0 0zM59.4 34.7zM59.4 36.8zM59.5 31.9c.1 0 0 0 0 0zM56.2 38.5c0 .1 0 .1 0 0 0 .1 0 .1 0 0zM56.5 38.7zM56 38.5zM57.3 39c-.1 0 0 0 0 0zM56.8 38.8zM55.9 37.8zM55.6 38zM55.7 38.2zM55.7 38.1c0 .1 0 0 0 0zM59.9 38.7zM57.9 39zM59.9 38.4zM56 37.7s0-.1 0 0zM58.1 37.4zM59.9 38.4zM58.6 39zM58.6 39.1zM59.9 38.7zM59 39zM56.8 38.8zM57 37.7c.1 0 .1 0 0 0 .1 0 .1 0 0 0zM57.1 37.7zM56.9 37.6z"/><path class="st0" d="M57.8 37.2c-.1 0-.1.1-.2.1v.1-.2.1-.1h-.1v.1-.1c0-.1 0 .2-.1.2 0 .1 0-.1 0 0v.1-.1.1-.1.1-.1s0 .1 0 0v-.1c0-.1 0 0 0 0v.1s0 .1 0 0v-.1s0 .1 0 0c0 .1 0 0 0 0V37.6s0-.1 0 0v-.2.2-.1.1-.1s0-.1 0 0v-.1c0 .1 0 0 0 0v.1-.1.1s0-.1 0 0v-.1c0 .1 0-.1 0 0v.2-.1c0-.1 0 0 0 0v-.1c0 .1 0 0 0 0s0 .1-.1.2v-.2.2-.1.1c0-.1 0 0 0 0v-.1.1-.2.1-.2c0-.1 0-.1 0 0v.1s0 .2-.1.2v.1-.2.1s0-.1 0 0v-.1V37.8v-.2.1-.1.1-.2V37.8v-.2V37.9v-.1.1-.5.1-.1.5-.2.1-.1.1-.1V38v-.1.1-.1.1c0-.1 0-.1-.1 0v.1-.2.1-.1.2-.1.1c0-.1 0 0 0 0v.1-.1.1c0-.1 0 0 0 0v.1-.1.2-.1.2-.1.2s0-.1 0 0c0-.1 0 0 .1-.1v.1-.1.2-.2.2-.1c0 .1 0-.1.1 0v.1l.1-.1v.1-.2c0 .1 0-.1.1 0v.1s0-.1 0 0v.1-.1s0 .1 0 0v-.1.1c0-.1 0 0 0 0v.1s0 .1 0 0 0 .1 0 0v.2-.1.2-.1c0-.2.1.1.1 0v.1-.1.1-.1.1s0-.1.1 0v.1-.1c0 .1 0 0 0 0v-.2.1-.1.1-.1.1s0 .2.1.1v-.1h.1c0-.1 0 0 0 0 0-.1 0 .1 0 0v-.1.1s0-.1 0 0c0-.1 0 .1 0 0v.1s0-.1.1-.1v.1-.1l.1.1v.1-.1s.1 0 .1.1V39s.1-.1.1 0v.1c0-.1 0 0 0 0 0-.1 0 0 0 0V39v.1-.1.1-.1.1-.1s0-.1 0 0v.1-.1.1-.1.1-.1.1-.1c.1.1.1 0 .2.2l.1-.1V39c0 .1.1.1.1.1 0-.1 0 .1 0 0 0 0 0-.1.1-.2v.1-.1.1-.1.1l.1.1c0-.1.1-.1.1 0V39v.1-.1.1c0-.1 0 0 0 0s.6.3.8-.3v-.2s0 .1 0 0v-.2.1-.1.1-.2s0-.1 0 0v-.1.1V38v.1-.2c-.1-.1-.1-.3-.1-.3v-.1c0 .1-.1-.1-.1-.1 0-.2-.1-.1-.1-.1v.1-.1.1c0-.1-.1-.1-.2-.2-.1 0-.2-.1-.3 0v.1c0-.2-.1 0-.1-.1-.1.1-.1-.1-.2 0v-.1h-.1v.1s0-.1 0 0v.1-.1s0 .1-.1 0v-.1h-.1v.1c0-.1 0 0 0 0 0 .1 0 0 0 0v.1-.1l-.1.1v-.1.2-.1c0 .1-.1-.1-.1 0v.1c0 .1 0-.1-.1 0v-.1s0 .1 0 0v-.1.1c-.2.1-.2 0-.3-.1l.1.1s-.1 0-.1-.1c0 .1 0 .1 0 0 0 .2 0 0 0 0zM56.8 37.6zM57.1 37.6zM57.2 37.5zM56.6 37.8s0-.1 0 0c0-.1 0-.1 0 0zM56 37.7zM56.1 37.8zM56.7 37.7zM56.1 37.8zM56 37.7zM56.4 37.8zM56.1 37.7zM56 37.7zM56.3 37.7c0 .1 0 .1 0 0 0 .1 0 .1 0 0zM56.1 30.2s0 .1 0 0c0 .1 0 0 0 0zM56.5 30.4zM55.9 30.2c0-.1 0-.1 0 0zM57.2 30.6zM56.8 30.5zM55.8 29.5zM55.6 29.7zM55.7 29.9c0-.1 0-.1 0 0zM55.7 29.8zM59.9 30.4zM57.9 30.7zM59.9 30.1zM55.9 29.4s0-.1 0 0zM58 29.1zM59.9 30.1zM58.6 30.7zM58.6 30.8zM59.9 30.4c0-.1 0 0 0 0zM59 30.7zM56.7 30.5zM57 29.4c0-.1 0 0 0 0zM57 29.4zM56.8 29.3zM57.7 28.9c-.1 0-.1.1-.2.1v.1-.2.1-.1h-.1v.1-.1c0-.1 0 .2-.1.2 0 .1 0-.1 0 0v.1-.1.1-.1.1-.1s0 .1 0 0V29c0-.1 0 0 0 0v.1s0 .1 0 0V29s0 .1 0 0c0 .1 0 0 0 0V29.3s0-.1 0 0v-.2.2-.1.1-.1s0-.1 0 0v-.1c0 .1 0 0 0 0v.1-.1.1s0-.1 0 0v-.1c0 .1 0-.1 0 0v.2-.1c0-.1 0 0 0 0v-.1c0 .1 0 0 0 0s0 .1-.1.2v-.2.2-.1.1c0-.1 0 0 0 0v-.1.1-.2.1-.2c0-.1 0-.1 0 0v.1s0 .2-.1.2v.1-.2.1s0-.1 0 0v-.1V29.5v-.2.1-.1.1-.2V29.5v-.2V29.6v-.1.1-.5.1-.1.5-.2.1-.1.1-.1V29.7v-.1.1-.1.1c0-.1 0-.1-.1 0v.1-.2.1-.1.2-.1.1c0-.1 0 0 0 0v.1-.1.1c0-.1 0 0 0 0v.1-.1.2-.1.2-.1.2s0-.1 0 0c0-.1 0 0 .1-.1v.1-.1.2-.2.2-.1c0 .1 0-.1.1 0v.1l.1-.1v.1-.2c0 .1 0-.1.1 0v.1s0-.1 0 0v.1-.1s0 .1 0 0v-.1.1c0-.1 0 0 0 0v.1s0 .1 0 0 0 .1 0 0v.2-.1.2-.1c0-.2.1.1.1 0v.1-.1.1-.1.1s0-.1.1 0v.1-.1c0 .1 0 0 0 0v-.2.1-.1.1-.1.1s0 .2.1.1v-.1h.1c0-.1 0 0 0 0 0-.1 0 .1 0 0v-.1.1s0-.1 0 0c0-.1 0 .1 0 0v.1s0-.1.1-.1v.1-.1l.1.1v.1-.1s.1 0 .1.1v-.1s.1-.1.1 0v.1c0-.1 0 0 0 0 0-.1 0 0 0 0v-.1.1-.1.1-.1.1-.1s0-.1 0 0v.1-.1.1-.1.1-.1.1-.1c.1.1.1 0 .2.2l.1-.1v-.1c0 .1.1.1.1.1 0-.1 0 .1 0 0 0 0 0-.1.1-.2v.1-.1.1-.1.1l.1.1c0-.1.1-.1.1 0v-.1.1-.1.1c0-.1 0 0 0 0s.6.3.8-.3v-.2s0 .1 0 0v-.2.1-.1.1-.2s0-.1 0 0v-.1.1V29.7v.1-.2c-.1-.1-.1-.3-.1-.3v-.1c0 .1-.1-.1-.1-.1 0-.2-.1-.1-.1-.1v.1-.1.1c0-.1-.1-.1-.2-.2-.1 0-.2-.1-.3 0v.1c0-.2-.1 0-.1-.1-.1.1-.1-.1-.2 0v-.1h-.1v.1s0-.1 0 0v.1-.1s0 .1-.1 0v-.1h-.1v.1c0-.1 0 0 0 0 0 .1 0 0 0 0v.1-.1l-.1.1v-.1.2-.1c0 .1-.1-.1-.1 0v.1c0 .1 0-.1-.1 0V29s0 .1 0 0v-.1.1c-.2.1-.2 0-.3-.1l.1.1-.1-.1c.1.1.1.1 0 0 .1.2.1 0 0 0zM56.7 29.3c.1 0 .1 0 0 0zM57.1 29.3zM57.2 29.2zM56.5 29.4zM56 29.4zM56 29.5zM56.7 29.4zM56 29.5zM56 29.4zM56.3 29.5zM56.1 29.4zM55.9 29.4zM56.2 29.4c0 .1 0 .1 0 0 0 .1 0 .1 0 0zM56.1 23.2zM56.5 23.4zM55.9 23.1zM57.2 23.6zM56.8 23.5s0-.1 0 0c0-.1 0-.1 0 0zM55.8 22.5zM55.6 22.7zM55.7 22.8zM55.7 22.8zM59.9 23.4zM57.9 23.6zM59.9 23zM55.9 22.4c0-.1 0 0 0 0 0-.1 0-.1 0 0zM58 22zM59.9 23zM58.6 23.7zM58.6 23.7zM59.9 23.3zM59 23.7zM56.7 23.4zM57 22.4s0-.1 0 0c0-.1 0-.1 0 0zM57 22.3zM56.8 22.2s0 .1 0 0c0 .1 0 0 0 0zM57.7 21.9c-.1 0-.1.1-.2.1v.1-.2.1-.1h-.1v.1-.1c0-.1 0 .2-.1.2 0 .1 0-.1 0 0v.1-.1.1-.1.1-.1s0 .1 0 0V22c0-.1 0 0 0 0v.1s0 .1 0 0V22s0 .1 0 0c0 .1 0 0 0 0V22.3s0-.1 0 0v-.2.2-.1.1-.1s0-.1 0 0v-.1c0 .1 0 0 0 0v.1-.1.1s0-.1 0 0v-.1c0 .1 0-.1 0 0v.2-.1c0-.1 0 0 0 0v-.1c0 .1 0 0 0 0s0 .1-.1.2v-.2.2-.1.1c0-.1 0 0 0 0v-.1.1-.2.1-.2c0-.1 0-.1 0 0v.1s0 .2-.1.2v.1-.2.1s0-.1 0 0v-.1V22.5v-.2.1-.1.1-.2V22.5v-.2V22.6v-.1.1-.5.1-.1.5-.2.1-.1.1-.1V22.7v-.1.1-.1.1c0-.1 0-.1-.1 0v.1-.2.1-.1.2-.1.1c0-.1 0 0 0 0v.1-.1.1c0-.1 0 0 0 0v.1-.1.2-.1.2-.1.2s0-.1 0 0c0-.1 0 0 .1-.1v.1-.1.2-.2.2-.1c0 .1 0-.1.1 0v.1l.1-.1v.1-.2c0 .1 0-.1.1 0v.1s0-.1 0 0v.1-.1s0 .1 0 0v-.1.1c0-.1 0 0 0 0v.1s0 .1 0 0 0 .1 0 0v.2-.1.2-.1c0-.2.1.1.1 0v.1-.1.1-.1.1s0-.1.1 0v.1-.1c0 .1 0 0 0 0v-.2.1-.1.1-.1.1s0 .2.1.1v-.1h.1c0-.1 0 0 0 0 0-.1 0 .1 0 0v-.1.1s0-.1 0 0c0-.1 0 .1 0 0v.1s0-.1.1-.1v.1-.1l.1.1v.1-.1l.1.1v-.1s.1-.1.1 0v.1c0-.1 0 0 0 0 0-.1 0 0 0 0v-.1.1-.1.1-.1.1-.1s0-.1 0 0v.1-.1.1-.1.1-.1.1-.1c.1.1.1 0 .2.2l.1-.1v-.1c0 .1.1.1.1.1 0-.1 0 .1 0 0 0 0 0-.1.1-.2v.1-.1.1-.1.1l.1.1c0-.1.1-.1.1 0v-.1.1-.1.1c0-.1 0 0 0 0s.6.3.8-.3v-.2s0 .1 0 0v-.2.1-.1.1-.2s0-.1 0 0v-.1.1V22.7v.1-.2c-.1-.1-.1-.3-.1-.3v-.1c0 .1-.1-.1-.1-.1 0-.2-.1-.1-.1-.1v.1-.1.1c0-.1-.1-.1-.2-.2-.1 0-.2-.1-.3 0v.1c0-.2-.1 0-.1-.1-.1.1-.1-.1-.2 0v-.1h-.1v.1s0-.1 0 0v.1-.1s0 .1-.1 0v-.1h-.1v.1c0-.1 0 0 0 0 0 .1 0 0 0 0v.1-.1l-.1.1v-.1.2-.1c0 .1-.1-.1-.1 0v.1c0 .1 0-.1-.1 0V22s0 .1 0 0v-.1.1c-.2 0-.2 0-.3-.1l.1.1-.1-.1c.1.1.1 0 0 0 .1.1.1 0 0 0zM56.7 22.2c.1 0 .1 0 0 0zM57.1 22.3zM57.2 22.2zM56.5 22.4zM56 22.4zM56 22.5zM56.7 22.4zM56 22.4zM56 22.4c0-.1 0-.1 0 0zM56.3 22.5zM56.1 22.3zM55.9 22.3zM56.2 22.4zM56.2 16.2zM56.5 16.4zM55.9 16.1zM57.2 16.6zM56.8 16.5zM55.8 15.5zM55.6 15.7zM55.7 15.9c0-.1 0-.1 0 0 0-.1 0-.1 0 0zM55.7 15.8zM59.9 16.4zM57.9 16.7zM59.9 16zM56 15.4c0-.1 0 0 0 0s0-.1 0 0zM58 15.1zM59.9 16zM58.6 16.7zM58.6 16.7c0 .1 0 .1 0 0 0 .1 0 .1 0 0zM59.9 16.4c0-.1 0-.1 0 0zM59 16.7zM56.8 16.5zM57 15.4c0-.1 0-.1 0 0zM57.1 15.4zM56.8 15.3zM57.8 14.9c-.1 0-.1.1-.2.1v.1-.2.1-.1h-.1v.1-.1c0-.1 0 .2-.1.2 0 .1 0-.1 0 0v.1-.1.1-.1.1-.1s0 .1 0 0V15c0-.1 0 0 0 0v.1s0 .1 0 0V15s0 .1 0 0c0 .1 0 0 0 0V15.3s0-.1 0 0v-.2.2-.1.1-.1s0-.1 0 0v-.1c0 .1 0 0 0 0v.1-.1.1s0-.1 0 0v-.1c0 .1 0-.1 0 0v.2-.1c0-.1 0 0 0 0v-.1c0 .1 0 0 0 0s0 .1-.1.2v-.2.2-.1.1c0-.1 0 0 0 0v-.1.1-.2.1-.2c0-.1 0-.1 0 0v.1s0 .2-.1.2v.1-.2.1s0-.1 0 0v-.1V15.5v-.2.1-.1.1-.2V15.5v-.2V15.6v-.1.1-.5.1-.1.5-.2.1-.1.1-.1V15.7v-.1.1-.1.1c0-.1 0-.1-.1 0v.1-.2.1-.1.2-.1.1c0-.1 0 0 0 0v.1-.1.1c0-.1 0 0 0 0v.1-.1.2-.1.2-.1.2s0-.1 0 0c0-.1 0 0 .1-.1v.1-.1.2-.2.2-.1c0 .1 0-.1.1 0v.1l.1-.1v.1-.2c0 .1 0-.1.1 0v.1s0-.1 0 0v.1-.1s0 .1 0 0v-.1.1c0-.1 0 0 0 0v.1s0 .1 0 0 0 .1 0 0v.2-.1.2-.1c0-.2.1.1.1 0v.1-.1.1-.1.1s0-.1.1 0v.1-.1c0 .1 0 0 0 0v-.2.1-.1.1-.1.1s0 .2.1.1v-.1h.1c0-.1 0 0 0 0 0-.1 0 .1 0 0v-.1.1s0-.1 0 0c0-.1 0 .1 0 0v.1s0-.1.1-.1v.1-.1l.1.1v.1-.1l.1.1v-.1s.1-.1.1 0v.1c0-.1 0 0 0 0 0-.1 0 0 0 0v-.1.1-.1.1-.1.1-.1s0-.1 0 0v.1-.1.1-.1.1-.1.1-.1c.1.1.1 0 .2.2l.1-.1v-.1c0 .1.1.1.1.1 0-.1 0 .1 0 0 0 0 0-.1.1-.2v.1-.1.1-.1.1l.1.1c0-.1.1-.1.1 0v-.1.1-.1.1c0-.1 0 0 0 0s.6.3.8-.3v-.2s0 .1 0 0v-.2.1-.1.1-.2s0-.1 0 0v-.1.1V15.7v.1-.2c-.1-.1-.1-.3-.1-.3v-.1c0 .1-.1-.1-.1-.1 0-.2-.1-.1-.1-.1v.1-.1.1c0-.1-.1-.1-.2-.2-.1 0-.2-.1-.3 0v.1c0-.2-.1 0-.1-.1-.1.1-.1-.1-.2 0v-.1h-.1v.1s0-.1 0 0v.1-.1s0 .1-.1 0v-.1h-.1v.1c0-.1 0 0 0 0 0 .1 0 0 0 0v.1-.1l-.1.1v-.1.2-.1c0 .1-.1-.1-.1 0v.1c0 .1 0-.1-.1 0V15s0 .1 0 0v-.1.1c-.2.1-.2 0-.3-.1l.1.1s-.1 0-.1-.1c0 .1 0 .1 0 0 0 .2 0 0 0 0zM56.8 15.3s0-.1 0 0zM57.1 15.3zM57.2 15.2zM56.6 15.4zM56 15.4zM56 15.5zM56.7 15.4zM56.1 15.5zM56 15.4zM56.4 15.5zM56.1 15.4zM56 15.4c0-.1 0-.1 0 0 0-.1 0 0 0 0zM56.3 15.4c-.1 0-.1.1 0 0 0 .1 0 .1 0 0zM36.7 26.4zM36.3 26.3zM37 26.4zM35.4 26.2zM35.9 26.3zM37.4 27c-.1-.1-.1 0 0 0zM37.6 26.7zM37.4 26.6zM37.4 26.6zM32.2 26zM34.6 26.2zM32.1 26.3zM37.2 27.1c.1.1 0 0 0 0 0 .1.1.1 0 0zM34.3 27.8zM32.1 26.3zM33.8 26.1zM33.8 26zM32.2 26c0 .1 0 0 0 0zM33.3 26zM36 26.3zM35.8 27.4s0 .1 0 0c0 .1 0 .1 0 0zM35.7 27.5zM36.1 27.5zM36 27.5zM35.5 27.6zM34.7 27.9c.1 0 .2-.1.3-.1 0-.1 0-.1.1-.1v.2-.1s.1 0 0 .1h.1v-.1.1c.1.1.1-.2.1-.2 0-.1 0 .1 0 0v-.1c0 .1 0 0 .1.1v-.1.1-.1.1s0-.1 0 0v.1c0 .1 0 0 0 0v-.1s0-.1 0 0v.1-.1c0-.1 0 0 .1 0v-.2c0 .1 0-.1.1-.1 0 0 0 .1 0 0v.2-.2s0 .1 0 0v-.1l.1.1s0 .1 0 0v.1c0-.1 0 0 0 0v-.1.1-.1s0 .1 0 0v.1c0-.1 0 .1-.1 0v-.1h.1v-.1.1c0 .1 0 0 0 0v.1c0-.1 0 0 0 0v-.2.2-.2.1-.1c0 .1 0 0 0 0v-.1.2-.1.2c0 .1.1 0 .1 0v-.4c0 .1.1.2.1.2v-.1s.1.1 0 0v.1-.1h.1v-.1c0 .1 0 0 .1.1v.1-.1c0 .2 0 0 .1.1v-.1s0 .1.1.1c0 0 .1 0 .1.1V27.1v.2s0-.2-.1-.2V27v.1-.1s0 .2.1.2v.1-.1c0 .1 0 .1.1.1v-.2c-.1-.1 0-.1 0-.2 0 .1 0 .1.1.1v-.1.1-.1.1-.1s-.1-.1 0-.1v-.1.1-.1.1h.1v-.1c.1.1.1 0 .1 0-.1-.1 0 0 0-.1l.1.1v.1-.1.1c.1 0 0-.1 0-.2 0 0 0 .1.1.1 0 .1 0 0-.1-.1.1.1 0 0 0 0l-.1-.1v.1-.1s0-.1-.1-.1v.1-.2c-.1-.1 0 .1 0 .1v-.2.1-.2s0 .2 0 0v.1c0-.1-.1-.1 0-.1v.1-.2.2-.2.1c-.1-.1 0 .1-.1 0V26v.1c0-.1 0-.1-.1-.1v.2c-.1-.1 0 .1-.1 0v-.1s0 .1 0 0V26v.1s0-.1 0 0v.1-.1c0 .1 0 0 0 0V26s0-.1-.1 0c0 .1 0-.1 0 0v-.1.1-.1c0-.1 0 0-.1-.1v.1c0 .2-.1-.1-.1 0v-.1.1-.1.1-.1s0 .1-.1 0h-.1v-.1.1c0-.1 0 0 0 0v.2-.1.1-.1.1-.1s-.1-.2-.1-.1v.1h-.1c0 .1 0 0 0 0 0 .1 0-.1 0 0v.1-.1s0 .1 0 0c0 .1 0-.1 0 0v-.1s0 .1-.1.1v-.1.1l-.1-.1v-.1.1s-.1 0-.1-.1v.1s-.1.1-.1 0v-.1c0 .1 0 0 0 0 0 .1 0 0 0 0v.1-.1.1-.1h-.1v.1-.1.1s0 .1 0 0v-.1.1-.1c0 .1 0-.1-.1.1v-.1.1-.1.1c0-.1-.1-.1-.2-.2l-.1.1v.1c0-.1-.1-.1-.1-.1-.1.1 0-.1 0 0l-.1.1v-.1.1-.1.1-.1s-.1 0-.1-.1c-.1.1-.1 0-.2 0v-.1s0 .1-.1.1v-.1c0 .1 0 0 0 0l-.4-.2c-.2 0-.4 0-.6.2 0 .1-.1.1-.1.1s0-.1 0 0c0 0-.1.1-.1.2v-.1.1s.1-.2.1-.1v.6c0 .1 0-.1.1 0v.2c.1.1 0 .4.1.3v.1c.1-.1 0 .1.1.2 0 .2.1.1.2.2l.1-.1v.1-.1c0 .1.2.1.2.2.1 0 .3.1.4.1v-.1c0 .2.1 0 .1.1.1-.1.1.1.2 0v.1h.1v-.1s0 .1 0 0v-.1.1s.1-.1.1 0 0 .1.1.1h.2v-.1c0 .1 0 0 0 0 0-.1 0 0 0 0v-.1.1c.1 0 .1-.1.1-.1v.1-.2.1c0-.1.1.1.1 0v-.1c0-.1 0 .1.1 0v.1s0-.1 0 0v.1-.1.1-.1c-.8.4-.7.4-.7.5 0-.1 0 .1 0 0zM36.1 27.5zM35.6 27.5zM35.5 27.7c0-.1 0-.1 0 0 0-.1 0-.1 0 0zM36.4 27.3zM37.2 27.2c0-.1 0-.1 0 0 0-.1 0-.1 0 0zM37.1 27.1zM36.2 27.4zM37.1 27.1zM37.2 27.2zM36.6 27.2zM37.1 27.2zM37.2 27.2zM36.8 27.2zM37.6 35.1zM36.9 35.2zM38 35zM35.5 35.3zM36.3 35.3zM38.4 35.5zM38.7 35.1zM38.5 35.1zM38.5 35.1zM31.1 34.6zM34.4 35.4zM30.9 34.8c-.1 0-.1 0 0 0zM38.3 35.7s-.1 0 0 0c0 0 0 .1 0 0zM34.1 37zM30.9 34.8zM33.2 35.3zM33.2 35.2zM31.1 34.6c-.1 0-.1 0 0 0zM32.5 35.1zM36.4 35.3zM36.2 36.5c0-.1 0 0 0 0zM36.1 36.5zM36.7 36.4zM36.6 36.5zM35.8 36.7z"/><path class="st0" d="M34.7 37.1c.1 0 .3-.1.4-.1 0-.1.1-.1.1-.1v.2-.1s.1 0 0 .1h.1V37v.1c.1.1.1-.2.2-.2 0-.1 0 .1 0 0v-.1c0 .1.1 0 .1.1v-.1.1-.2.1h.1c0 .1 0 0 0 0v-.1s0-.1 0 0v.1-.1c0-.1.1 0 .1 0v-.2c0 .1 0-.1.1-.1 0 0 0 .1 0 0v.2-.2s0 .1 0 0v-.1s.1 0 .1.1c0 0 0 .1 0 0v.1c0-.1 0-.1 0 0v-.1c0-.2 0 .1.1.1v-.1s0 .1.1 0c0 0 0 .1.1.1 0 0 .1 0 .1-.1-.1-.1 0 .1-.1 0v-.1h.1s0-.1.1-.1v.1h.1v.1c0-.1 0 0 .1 0s0-.1 0-.2v.1l.1.1v-.2h.1v.1-.1c0 .1 0 0 0 0h.1v-.1s.1.1.1.2v-.1c0 .1.1 0 .1.1s.1 0 .1 0c0-.1 0 0-.1-.1.1 0 0-.2 0-.2v-.1c0 .1.1.2.1.2l-.1-.1s.1.1.1 0l.1.1V36c0-.1 0 0 .1 0 0 0-.1-.1 0-.1 0 .1.1 0 .1.1v.1-.1l.1.1V36l.1.1s.1 0 .1.1V35.9v.1s0-.2-.1-.2v-.1.1-.1h.1s0 .2.1.2v.1-.1c0 .1.1.1.1.1v-.1c-.1-.1 0-.1 0-.2 0 .1.1.1.1.1v-.1h.1s-.1-.1 0-.1c0 .1.1.1 0 .1 0 0 .1 0 0-.1l-.1-.1v-.1.1-.1h.1v-.1c.1.1.1 0 .1 0-.1-.1 0 0 0-.1l.1.1c0 .1 0 .1.1.1v-.1.1c.1 0 0-.1 0-.2 0 0 .1 0 .1.1s-.1 0-.1-.1c.1.1.1 0 0-.1l-.1-.1s.1.1 0 .1V35v.1s0-.1-.1-.1l.1.1s0-.1 0 0V35c-.1-.1 0 .1 0 .1v-.2.1s-.1 0 0-.1v-.1s0 .2-.1 0c0 .1 0 .1-.1.1 0-.1-.1-.1-.1-.1v.1l-.1-.1s0-.1-.1-.1v.2-.1c0 .1 0-.1-.1-.1v.1c-.1-.1 0 .1-.1 0v-.1s-.1 0-.1.1c0-.1-.1-.1-.1-.1v.1h-.1v.1c-.1-.1 0 .1-.1 0v-.1h-.1s0 .1 0 0 0 0-.1-.1v.1s-.1-.1-.1 0v.1H37v-.1.1-.1s-.1-.1-.1 0-.1-.1-.1 0v-.1.1-.1c-.1-.1-.1 0-.1-.1v.1c0 .2-.2 0-.2.1v-.1.1-.1.1-.1l-.1.1h-.1v-.1s0 .1-.1 0v.1c0-.1 0 .1-.1 0v.2c0-.1-.1 0-.1 0v.1-.1.1l-.1-.1s-.1-.2-.1 0v.1h-.1c0 .1 0 0-.1 0 0 .1-.1-.1-.1 0v.1-.1s0 .1-.1 0c0 .1-.1-.1-.1.1v-.1l-.1.1v-.1.1c-.1 0-.1-.1-.2-.1V35v.1h-.2s0 .1-.1.1c0 0-.1.1-.1 0v-.1c0 .1 0 0 0 0 0 .1 0 0 0 0v.1-.1.1-.1h-.1v.1-.1.1s0 .1-.1 0v-.1.1-.1c0 .1-.1-.1-.1.1v-.1.1-.1.1c0-.1-.1-.1-.1-.1-.1 0-.1 0-.1-.1 0 0-.1.1-.2 0v.1c0-.1-.1-.1-.2-.1-.1.1 0-.1-.1 0-.1 0-.1.1-.1.1V35v.1-.1.1-.1s-.1 0-.1-.1c-.1.1-.2 0-.2 0h-.1v-.1s-.1.1-.1 0h-.1v-.1c0 .1 0 0 0 0s-.1 0-.1-.1c-.1-.1-.2-.1-.3-.2-.3-.1-.5-.2-.8-.1 0 0-.1 0-.1.1l-.1.1-.1.1.1-.1v.1l.1-.1v.2h-.1v.1h.1c-.1.1.1 0 0 .1l-.1.1h.1v.1c0 .1.1-.1.1 0 0 0-.1.1-.1 0v.2c0 .1 0 .1.1.1 0 .1 0 0-.1.1.1 0 0 .2.1.2 0 .1 0 .1.1.2l.1.1h.1s-.1.1 0 .1V36c0 .1.1.1.1.2.1 0 .1.1.2.2.1 0 .2.1.3.1.1 0 .2.1.3.1v-.1c0 .2.1 0 .1.2.1 0 .2.2.3 0v.1h.1v-.1s0 .1 0 0v-.1c0 .1.1 0 .1.1 0 0 .1-.1.1 0s.1.1.1.1h.3v-.1c0 .1.1 0 .1 0 0-.1 0 0 0 0v-.1.1c.1 0 .1-.1.2-.1 0 .1.1 0 0 .1.1 0 0-.1 0-.2v.1c.1-.1.1.1.2 0v-.1c.1-.1.1.1.1 0v.1s0-.1.1 0v.1s.1 0 .1-.1v.1-.1c-.3.5-.2.4-.1.5-.1 0-.1 0 0 0-.1-.1-.1.1 0 0zM36.7 36.4s0 .1 0 0zM36 36.6zM35.8 36.7c.1 0 0 0 0 0zM37.1 36.1s0 .1 0 0c0 .1 0 0 0 0zM38.2 35.7zM38.1 35.7zM36.8 36.2s0 .1 0 0c0 .1 0 .1 0 0zM38 35.7zM38.2 35.7s0 .1 0 0c0 .1 0 .1 0 0zM37.4 35.9zM38 35.8zM38.3 35.7c0 .1 0 .1 0 0 0 .1 0 0 0 0zM37.7 35.9z"/></svg>