<svg version="1.1" id="Layer_1" xmlns="http://www.w3.org/2000/svg" x="0" y="0" viewBox="0 0 70 65" style="enable-background:new 0 0 70 65" xml:space="preserve"><style>.st0{fill:#fff}</style><path class="st0" d="M12.1 15.9zM10.8 15zM12.6 16.6c0 .1 0 .1 0 0zM7.5 15.9zM9.4 15zM12.3 17.3c0-.1 0 0 0 0zM12.7 18zM12.8 17.6s-.1 0 0 0c-.1 0-.1 0 0 0zM12.7 17.6zM13.3 18.4c0-.1 0-.1 0 0zM6.7 19zM13 18.3zM12.1 17c-.1 0-.1-.1 0 0-.1 0-.1 0 0 0zM8.2 19.1zM13 18.3zM8.8 21.5zM9 21.6zM13.3 18.3c-.1 0 0 0 0 0zM11 21.6s-.1 0 0 0c-.1 0 0 0 0 0zM9.5 15zM8.8 16.2s.1 0 0 0zM8.7 16.3zM9.7 16s-.1 0 0 0c-.1 0-.1 0 0 0zM9.5 16zM8.4 16.7z"/><path class="st0" d="M8.1 18.3s0-.1 0 0v-.5c-.1-.1-.1-.1-.1-.2h.2-.1s.1-.1.1 0c0 0 0-.1.1-.1 0 0-.1-.1 0-.1s0-.1 0-.1c0-.1-.1-.1 0-.2V17c-.1 0 0 0 0 0-.1 0 0-.1-.1-.1v-.1c.1 0 .1-.1.1-.1s-.1-.1 0-.1h.2v-.1.1l.1-.1c.1 0 0-.1 0-.1h-.1v-.1.1-.1c0-.1.1-.1.1-.1v-.1l-.1-.1c.1 0 0-.1.1-.1 0 0 0 .1 0 0 0 .1.1.1 0 .2 0 0 0-.1 0 0V16l-.1-.1s.1.1 0 0v-.1c.1 0 .1-.1.1 0s0 0 .1 0c0 0 0-.1.1-.1 0-.2 0 .1.1 0v-.1H9s.1 0 .1.1h.1c-.1 0 0 .1-.1 0v-.1s.1-.1.1 0c.1 0 .1-.1.1-.1v.1h.1v.1h.1c0-.1.1 0 .1 0 .1 0 .1-.1.2-.2v.1l.1.1c.1 0 0 0 0-.1h.1v-.1h.1v.1h.1s.1 0 0-.1c0 .1 0 0 .1 0 0 0 .1 0 .1.1h.1v-.1h.1v.1s0-.1.1-.1v.1c0 .1.1.1.1.1v-.1c.1 0 .2-.1.2-.1h.1v.1s0 .1.1.1v-.1h.1c.1 0 0 .1.1.1v.1h.1c.1 0 .1 0 .1.1 0 0 0-.1.1-.1-.1.1.1.1 0 .1 0 0 0 .1 0 0v.1c.1-.1.1 0 .2 0-.1.1.1 0 0 .1.1-.1.1 0 .1 0V16.4h.2c.1-.1 0 0 .1 0v.1s.2 0 .2-.1h.1l-.1.1h.1v.1s-.2 0-.1.1h-.1.1c-.5.2-.5.2-.5.3v-.1h.1c.1-.1.1 0 .2 0-.1 0-.1.1-.1.1s0-.1.1-.1v.2s0-.1.1 0v.1h-.1s.1.1.1 0c0 0 0-.1.1-.1h.2v.1h.1c-.1 0-.1.1 0 .1l.1.1h.1s-.1.1-.1 0c-.1 0-.1-.1-.1 0l.1.1c0 .1.1 0 .1.1s-.1.1-.1.1v.1s0-.1.1-.1c-.1 0 0 .1 0 .1.1-.1 0-.1.1-.2 0 0-.1 0-.1-.1h.1v-.1h.1-.1s.1 0 0 0h.1c.1-.1-.1-.1-.1-.2h.1v-.1h.1l-.1-.1s0-.1.1 0v-.1h.1s-.2-.1 0-.1l-.1-.1v-.1c.1 0 0-.1.1-.1 0-.1-.1 0-.1-.1 0 0 .1-.1.1 0h-.2c0-.1.1 0 0-.1H13c.1 0 0 0 0 0l-.1-.1c-.1 0 .1 0 0-.1 0-.1-.1-.1-.1-.2h.1s-.1 0-.1-.1.1-.1 0-.2h-.1c0-.1-.1-.1-.1-.1h-.1c0-.1 0-.1-.1-.1 0 0-.1 0-.1-.1l-.1-.1H12c.1 0 0 0 0-.1h-.1c-.1 0 0-.1-.1-.1 0 0 0 .1-.1 0-.1 0-.1-.1-.1-.1v-.1h-.2v-.1h-.1c-.1 0-.1 0-.1-.1h-.1c-.1 0 0-.1-.2 0v-.1l-.1.1v-.1c0-.1-.1 0-.2-.1v.1h-.2s-.1 0-.1-.1h-.2v-.1l-.1.1v-.1c-.1 0 0 .1-.1.1s0 0 0-.1c-.1 0-.2.1-.3.1H9.3v-.1c-.1 0-.1.1-.2 0v.1c0 .6-.1.7-.2.7 0 0-.1 0-.1.1l-.1.1c-.1-.1-.1.1-.2 0-.1 0 .1 0 0 .1h-.1v-.1.1H8.1c-.1 0-.1 0-.1.1h-.1l-.1.1c-.1 0-.2.1-.2.2l-.1.1-.1.1s0 .1-.1.1c0 0-.1 0 0 0v.1c0 .1 0 0-.1 0 0 0 0 .1-.1.1v.1c0 .1-.1.1-.1.2l-.1.1c0 .1 0 .2-.1.3-.1 0 0 0-.1.1 0 .1-.1.1-.1.2s-.1.2-.1.2h-.1c0 .1-.1.2-.1.3v.8h-.1c.1 0 0 .1 0 .1.1 0 0 .1 0 .1l.1.1h-.1l.1.1s0 .1 0 0v.2s.1 0 .1.1c-.1 0-.1 0-.1.1h.1l.1.1v.2c.1 0 0 .1.1 0v.1l.1.1v.1c.1 0 .1.2.2.1v.1H7c0 .1 0 .1-.1.1H7c0 .1 0 .1.1.2 0 .1.1.1.1.2 0 0 0 .1.1.1l.1.1c.1.1.1.1.1.2.4-.1.5-.1.5 0 0 0 .1 0 .1.1 0 0 .1 0 .1.1l.1.1-.1-.1h.1l.1.1.1.1.1.1h.2c.2-.1 0 .1.2.1h.4v.1l.1.1.1-.1v.1h.2c.1 0 .1 0 .1.1h.8s.1-.1.2-.1h.1c.1 0 .1-.1.2-.1s.1 0 .1-.1c.1 0 .1 0 .1.1 0 0 0-.1.1-.1h.2s.1 0 .2-.1h.1s.1 0 .1-.1c.3-.1.7-.4 1-.8l.1-.1.1-.1c.1-.1.1-.2.2-.3.1-.1.1-.2.1-.3 0-.1.1-.2.1-.3v-.7c0-.1-.1-.1-.1-.2l-.1-.1c0-.1.1-.1 0-.1 0 .1-.1 0-.2 0 0 0 0 .1 0 0h.1s0 .1-.1.1c0 0 .2.1.1.1 0 .1-.1 0-.1 0h-.1v-.1c0 .1 0 0 0 0h-.1v.2c-.1 0 0 .1-.1.1 0-.1 0 0-.1 0V19.2s0 .1-.1.1c-.1.1.1.1 0 .1 0 0 0-.1 0 0v.1s-.1 0 0-.1l-.1.1-.1.1s-.1 0-.1.1c0 0 0 .1-.1.1s0 0 0-.1c0 .1-.1.1-.1.1-.1 0-.1 0-.1.1-.1 0-.1.1-.2.1l-.1.1s-.1 0-.1.1v.1s0-.1-.1 0h.1-.2s-.1 0-.1.1c-.1 0-.1 0-.2.1h-1v.1c0-.1-.1-.1-.1-.1H9.4v.1h-.1v-.1L9 20s-.1 0-.2-.1c0 0 0-.1-.1-.1l-.1-.1-.1-.1c0-.1-.1 0 0-.1 0 0-.1.1-.1 0 0 0 0-.1.1-.1l-.1-.1-.1-.1c.1 0 0-.1.1-.1h-.1.1v-.2c-.1-.1 0-.1 0-.1h.1s-.1 0-.1-.1h.1s0-.1-.1-.1v-.1h-.1c-.3 0-.3-.1-.2-.2-.1.1 0 .1 0 0-.1 0 0 0 0 0zM9.7 16zM8.6 16.4s0 .1 0 0c0 .1 0 0 0 0zM8.5 16.7c-.1 0 0 0 0 0zM10.3 15.8c0 .1 0 0 0 0zM11.9 16.8zM12 16.7c-.1 0-.1 0 0 0-.1 0-.1 0 0 0zM9.9 15.8s0 .1 0 0c0 .1 0 .1 0 0zM11.9 16.6zM12 16.8s-.1 0 0 0c-.1 0-.1 0 0 0zM11.1 16c-.1 0-.1 0 0 0zM11.8 16.6zM12 16.9zM11.4 16.2zM23.3 15.9zM22 15zM23.8 16.6c0 .1 0 .1 0 0zM18.7 15.9zM20.6 15s-.1 0 0 0c-.1 0 0 0 0 0zM23.5 17.3c0-.1 0 0 0 0zM23.8 18zM23.9 17.6zM23.9 17.6zM24.5 18.4c0-.1 0-.1 0 0zM17.8 19zM24.2 18.3zM23.2 17s0-.1 0 0zM19.3 19.1zM24.2 18.3zM20 21.5zM20.2 21.6c-.1 0-.1 0 0 0-.1 0-.1 0 0 0zM24.4 18.3zM22.1 21.6zM20.7 15zM20 16.2zM19.9 16.3zM20.8 16zM20.6 16zM19.6 16.7zM19.3 18.3s0-.1 0 0v-.5c-.1-.1-.1-.1-.1-.2h.2-.1s.1-.1.1 0c0 0 0-.1.1-.1 0 0-.1-.1 0-.1s0-.1 0-.1c0-.1-.1-.1 0-.2V17c-.1 0 0 0 0 0-.1 0 0-.1-.1-.1v-.1c.1 0 .1-.1.1-.1s-.1-.1 0-.1h.2v-.1.1l.1-.1c.1 0 0-.1 0-.1h-.1v-.1.1-.1c0-.1.1-.1.1-.1v-.1l-.1-.1c.1 0 0-.1.1-.1 0 0 0 .1 0 0 0 .1.1.1 0 .2 0 0 0-.1 0 0V16l-.1-.1s.1.1 0 0v-.1c.1 0 .1-.1.1 0s0 0 .1 0c0 0 0-.1.1-.1 0-.2 0 .1.1 0v-.1h.1s.1 0 .1.1h.1c-.1 0 0 .1-.1 0v-.1s.1-.1.1 0c.1 0 .1-.1.1-.1v.1h.1v.1h.1c0-.1.1 0 .1 0 .1 0 .1-.1.2-.2v.1l.1.1c.1 0 0 0 0-.1h.1v-.1h.1v.1h.1s.1 0 0-.1c0 .1 0 0 .1 0 0 0 .1 0 .1.1h.1v-.1h.1v.1s0-.1.1-.1v.1c0 .1.1.1.1.1v-.1c.1 0 .2-.1.2-.1h.1v.1s0 .1.1.1v-.1h.1c.1 0 0 .1.1.1v.1h.1c.1 0 .1 0 .1.1 0 0 0-.1.1-.1-.1.1.1.1 0 .1 0 0 0 .1 0 0v.1c.1-.1.1 0 .2 0-.1.1.1 0 0 .1.1-.1.1 0 .1 0V16.4h.2c.1-.1 0 0 .1 0v.1s.2 0 .2-.1h.1l-.1.1h.1v.1s-.2 0-.1.1h-.1.1c-.1 0-.1.1-.1.1v-.1h.1c.1-.1.1 0 .2 0-.1 0-.1.1-.1.1s0-.1.1-.1v.2s0-.1.1 0v.1h-.1s.1.1.1 0c0 0 0-.1.1-.1h.2v.1h.1c-.1 0-.1.1 0 .1l.1.1h.1s-.1.1-.1 0c-.1 0-.1-.1-.1 0l.1.1c0 .1.1 0 .1.1s-.1.1-.1.1v.1s0-.1.1-.1c-.1 0 0 .1 0 .1.1-.1 0-.1.1-.2 0 0-.1 0-.1-.1h.1v-.1h.1-.1s.1 0 0 0h.1c.1-.1-.1-.1-.1-.2h.1v-.1h.1l-.1-.1s0-.1.1 0v-.1h.1s-.2-.1 0-.1l-.1-.1v-.1c.1 0 0-.1.1-.1 0-.1-.1 0-.1-.1 0 0 .1-.1.1 0h-.2c0-.1.1 0 0-.1h-.2c.1 0 0 0 0 0l-.1-.1c-.1 0 .1 0 0-.1 0-.1-.1-.1-.1-.2h.1s-.1 0-.1-.1.1-.1 0-.2h-.1c0-.1-.1-.1-.1-.1h-.1c0-.1 0-.1-.1-.1 0 0-.1 0-.1-.1l-.9.5h-.2c.1 0 0 0 0-.1h-.1c-.1 0 0-.1-.1-.1 0 0 0 .1-.1 0-.1 0-.1-.1-.1-.1v-.1h-.2v-.1h-.1c-.1 0-.1 0-.1-.1h-.1c-.1 0 0-.1-.2 0v-.1l-.1.1v-.1c0-.1-.1 0-.2-.1v.1h-.2s-.1 0-.1-.1h-.2v-.1l-.1.1v-.1c-.1 0 0 .1-.1.1s0 0 0-.1c-.1 0-.2.1-.3.1H20.1v-.1c-.1 0-.1.1-.2 0v.1c-.1-.1-.1.1-.2.1 0 0-.1 0-.1.1l-.1.1c-.1-.1-.1.1-.2 0-.1 0 .1 0 0 .1h-.1v-.1.1H18.9c-.1 0-.1 0-.1.1h-.1l-.1.1c-.1 0-.2.1-.2.2l-.1.1-.1.1s0 .1-.1.1c0 0-.1 0 0 0v.1c0 .1 0 0-.1 0 0 0 0 .1-.1.1v.1c0 .1-.1.1-.1.2l-.1.1c0 .1 0 .2-.1.3-.1 0 0 0-.1.1 0 .1-.1.1-.1.2s-.1.2-.1.2h-.1c0 .1-.1.2-.1.3v.8H17c.1 0 0 .1 0 .1.1 0 0 .1 0 .1l.1.1H17l.1.1s0 .1 0 0v.2s.1 0 .1.1c-.1 0-.1 0-.1.1h.1l.1.1v.2c.1 0 0 .1.1 0v.1l.1.1v.1c.1 0 .1.2.2.1v.1h.1c0 .1 0 .1-.1.1h.1c0 .1 0 .1.1.2 0 .1.1.1.1.2 0 0 0 .1.1.1l.1.1c.1.1.1.1.1.2.1 0 .1.1.2.1 0 0 .1 0 .1.1 0 0 .1 0 .1.1l.1.1-.1-.1h.1l.1.1.1.1.1.1h.2c.2-.1 0 .1.2.1h.4v.1l.1.1.1-.1v.1h.2c.1 0 .1 0 .1.1h.8s.1-.1.2-.1h.1c.1 0 .1-.1.2-.1s.1 0 .1-.1c.1 0 .1 0 .1.1 0 0 0-.1.1-.1h.2s.1 0 .2-.1h.1s.1 0 .1-.1c.3-.1.7-.4 1-.8l.1-.1.1-.1c.1-.1.1-.2.2-.3.1-.1.1-.2.1-.3 0-.1.1-.2.1-.3v-.7c0-.1-.1-.1-.1-.2l-.1-.1c0-.1.1-.1 0-.1 0 .1-.1 0-.2 0 0 0 0 .1 0 0h.1s0 .1-.1.1c0 0 .2.1.1.1 0 .1-.1 0-.1 0h-.1v-.1c0 .1 0 0 0 0h-.1v.2c-.1 0 0 .1-.1.1 0-.1 0 0-.1 0V19.1s0 .1-.1.1c-.1.1.1.1 0 .1 0 0 0-.1 0 0v.1s-.1 0 0-.1l-.1.1-.1.1s-.1 0-.1.1c0 0 0 .1-.1.1s0 0 0-.1c0 .1-.1.1-.1.1-.1 0-.1 0-.1.1-.1 0-.1.1-.2.1l-.1.1s-.1 0-.1.1v.1s0-.1-.1 0h.1-.2s-.1 0-.1.1c-.1 0-.1 0-.2.1h-1v.1c0-.1-.1-.1-.1-.1H19.9v.1h-.1v-.1h-.1s-.1 0-.2-.1c0 0 0-.1-.1-.1l-.1-.1-.1-.1c0-.1-.1 0 0-.1 0 0-.1.1-.1 0 0 0 0-.1.1-.1l-.1-.1-.1-.1c.1 0 0-.1.1-.1H19h.1v-.2c-.1-.1 0-.1 0-.1h.1s-.1 0-.1-.1h.1s0-.1-.1-.1v-.1H19c.2-.4.2-.5.3-.6-.1.1-.1.1 0 0-.1 0 0 0 0 0zM20.8 16zM19.8 16.4s0 .1 0 0c0 .1 0 0 0 0zM19.6 16.7zM21.5 15.8c0 .1 0 0 0 0zM23.1 16.8zM23.1 16.7z"/><path class="st0" d="M21.1 15.8c-.1 0-.1.1 0 0-.1.1 0 .1 0 0zM23.1 16.6zM23.1 16.8zM22.2 16zM22.9 16.6zM23.2 16.9zM22.5 16.2c.1 0 .1 0 0 0 .1 0 .1 0 0 0zM34.3 15.9s.1 0 0 0c.1 0 0 0 0 0zM33 15zM34.9 16.6c0 .1 0 .1 0 0zM29.8 15.9zM31.6 15zM34.6 17.3c0-.1 0 0 0 0zM34.9 18zM35 17.6zM35 17.6zM35.6 18.4c0-.1-.1-.1 0 0zM28.9 19zM35.2 18.3zM34.3 17s0-.1 0 0zM30.4 19.1zM35.2 18.3zM31.1 21.5zM31.2 21.6zM35.5 18.3zM33.2 21.6zM31.8 15zM31.1 16.2zM31 16.3zM31.9 16zM31.7 16zM30.7 16.7z"/><path class="st0" d="M30.3 18.3s0-.1 0 0v-.5c-.1-.1-.1-.1-.1-.2h.2-.1s.1-.1.1 0c0 0 0-.1.1-.1 0 0-.1-.1 0-.1s0-.1 0-.1c0-.1-.1-.1 0-.2V17c-.1 0 0 0 0 0-.1 0 0-.1-.1-.1v-.1c.1 0 .1-.1.1-.1s-.1-.1 0-.1h.2v-.1.1l.1-.1c.1 0 0-.1 0-.1h-.1v-.1.1-.1c0-.1.1-.1.1-.1v-.1l-.1-.1c.1 0 0-.1.1-.1 0 0 0 .1 0 0 0 .1.1.1 0 .2 0 0 0-.1 0 0V16l-.1-.1s.1.1 0 0v-.1c.1 0 .1-.1.1 0s0 0 .1 0c0 0 0-.1.1-.1 0-.2 0 .1.1 0v-.1h.1s.1 0 .1.1h.1c-.1 0 0 .1-.1 0v-.1s.1-.1.1 0c.1 0 .1-.1.1-.1v.1h.1v.1h.1c0-.1.1 0 .1 0 .1 0 .1-.1.2-.2v.1l.1.1c.1 0 0 0 0-.1h.1v-.1h.1v.1h.1s.1 0 0-.1c0 .1 0 0 .1 0 0 0 .1 0 .1.1h.1v-.1h.1v.1s0-.1.1-.1v.1c0 .1.1.1.1.1v-.1c.1 0 .2-.1.2-.1h.1v.1s0 .1.1.1v-.1h.1c.1 0 0 .1.1.1v.1h.1c.1 0 .1 0 .1.1 0 0 0-.1.1-.1-.1.1.1.1 0 .1 0 0 0 .1 0 0v.1c.1-.1.1 0 .2 0-.1.1.1 0 0 .1.1-.1.1 0 .1 0V16.4h.2c.1-.1 0 0 .1 0v.1s.2 0 .2-.1h.1l-.1.1h.1v.1s-.2 0-.1.1h-.1.1c-.1 0-.1.1-.1.1v-.1h.1c.1-.1.1 0 .2 0-.1 0-.1.1-.1.1s0-.1.1-.1v.2s0-.1.1 0v.1h-.1s.1.1.1 0c0 0 0-.1.1-.1h.2v.1h.1c-.1 0-.1.1 0 .1l.1.1h.1s-.1.1-.1 0c-.1 0-.1-.1-.1 0l.1.1c0 .1.1 0 .1.1s-.1.1-.1.1v.1s0-.1.1-.1c-.1 0 0 .1 0 .1.1-.1 0-.1.1-.2 0 0-.1 0-.1-.1h.1v-.1h.1-.1s.1 0 0 0h.1c.1-.1-.1-.1-.1-.2h.1v-.1h.1l-.9.6s0-.1.1 0v-.1h.1s-.2-.1 0-.1l-.1-.1v-.1c.1 0 0-.1.1-.1 0-.1-.1 0-.1-.1 0 0 .1-.1.1 0H35c0-.1.1 0 0-.1h-.2c.1 0 0 0 0 0l-.1-.1c-.1 0 .1 0 0-.1 0-.1-.1-.1-.1-.2h.1s-.1 0-.1-.1.1-.1 0-.2h-.1c0-.1-.1-.1-.1-.1h-.1c0-.1 0-.1-.1-.1 0 0-.1 0-.1-.1l-.1-.1h-.2c.1 0 0 0 0-.1h-.1c-.1 0 0-.1-.1-.1 0 0 0 .1-.1 0-.1 0-.1-.1-.1-.1v-.1h-.2v-.1h-.1c-.1 0-.1 0-.1-.1h-.1c-.1 0 0-.1-.2 0V15l.3.1V15c0-.1-.1 0-.2-.1v.1h-.2s-.1 0-.1-.1h-.2v-.1l-.1.1v-.1c-.1 0 0 .1-.1.1s0 0 0-.1c-.1 0-.2.1-.3.1H31.5v-.1c-.1 0-.1.1-.2 0v.1c-.1-.1-.1.1-.2.1 0 0-.1 0-.1.1l-.1.1c-.1-.1-.1.1-.2 0-.1 0 .1 0 0 .1h-.1v-.1.1H30.3c-.1 0-.1 0-.1.1h-.1l-.1.1c-.1 0-.2.1-.2.2l-.1.1-.1.1s0 .1-.1.1c0 0-.1 0 0 0v.1c0 .1 0 0-.1 0 0 0 0 .1-.1.1v.1c0 .1-.1.1-.1.2l-.1.1c0 .1 0 .2-.1.3-.1 0 0 0-.1.1 0 .1-.1.1-.1.2s-.1.2-.1.2h-.1c0 .1-.1.2-.1.3v.8h-.1c.1 0 0 .1 0 .1.1 0 0 .1 0 .1l.1.1h-.1l.1.1s0 .1 0 0v.2s.1 0 .1.1c-.1 0-.1 0-.1.1h.1l.1.1v.2c.1 0 0 .1.1 0v.1l.1.1v.1c.1 0 .1.2.2.1v.1h.1c0 .1 0 .1-.1.1h.1c0 .1 0 .1.1.2 0 .1.1.1.1.2 0 0 0 .1.1.1l.1.1c.1.1.1.1.1.2.1 0 .1.1.2.1 0 0 .1 0 .1.1 0 0 .1 0 .1.1l.1.1-.1-.1h.1l.1.1.1.1.1.1h.2c.2-.1 0 .1.2.1h.4v.1l.1.1.1-.1v.1h.2c.1 0 .1 0 .1.1h.8s.1-.1.2-.1h.1c.1 0 .1-.1.2-.1s.1 0 .1-.1c.1 0 .1 0 .1.1 0 0 0-.1.1-.1h.2s.1 0 .2-.1h.1s.1 0 .1-.1c.3-.1.7-.4 1-.8l.1-.1.1-.1c.1-.1.1-.2.2-.3.1-.1.1-.2.1-.3 0-.1.1-.2.1-.3v-.7c0-.1-.1-.1-.1-.2l-.1-.1c0-.1.1-.1 0-.1 0 .1-.1 0-.2 0 0 0 0 .1 0 0h.1s0 .1-.1.1c0 0 .2.1.1.1 0 .1-.1 0-.1 0h-.1v-.1c0 .1 0 0 0 0H35v.2c-.1 0 0 .1-.1.1 0-.1 0 0-.1 0V19.2s0 .1-.1.1c-.1.1.1.1 0 .1 0 0 0-.1 0 0v.1s-.1 0 0-.1l-.1.1-.1.1s-.1 0-.1.1c0 0 0 .1-.1.1s0 0 0-.1c0 .1-.1.1-.1.1-.1 0-.1 0-.1.1-.1 0-.1.1-.2.1l-.1.1s-.1 0-.1.1v.1s0-.1-.1 0h.1-.2s-.1 0-.1.1c-.1 0-.1 0-.2.1h-1v.1c0-.1-.1-.1-.1-.1H31.3v.1h-.1v-.1h-.1s-.1 0-.2-.1c0 0 0-.1-.1-.1l-.1-.1-.1-.1c0-.1-.1 0 0-.1 0 0-.1.1-.1 0 0 0 0-.1.1-.1l-.1-.1-.1-.1c.1 0 0-.1.1-.1h-.1.1v-.2c-.1-.1 0-.1 0-.1h.1s-.1 0-.1-.1h.1s0-.1-.1-.1V19h-.1c-.1-.5-.1-.6-.1-.7 0 .1 0 .1 0 0-.1 0 .1 0 0 0zM31.9 16zM30.9 16.4s0 .1 0 0c0 .1 0 0 0 0zM30.7 16.7zM32.6 15.8c0 .1 0 0 0 0zM34.2 16.8zM34.2 16.7zM32.1 15.8s0 .1 0 0c0 .1 0 .1 0 0zM34.1 16.6zM34.2 16.8zM33.3 16zM34 16.6zM34.2 16.9zM33.6 16.2s.1 0 0 0zM1.5 39.7zM1.3 58.3v-.2.2zM1.5 28.6v-.8.8zM37.5 64.5h-.2.2zM14 64.4h.3-.3zM2.1 22.7v.3-.3zM2.7 11.7c0 .1 0 0 0 0zM1.8 15.8v.3-.3zM1.8 16.3v-.2.2zM7.4 9.6c-.3 0-.6 0-.9.1l.9-.1zM69.9 58zM7 10h-.2.2zM2.2 28.7v1c0-.4.1-.8 0-1zM68.5 50.4v-.2.2zM7 10h.3H7zM69.9 20.7zM70 18.7v.4-.4zM6.5 9.7H6h.5zM54.8 9.4h.2-.2zM12.5 64.4h-.2.2zM27.3 63.4zM26.5 63.4h.8-.8zM29 63.4s-.1 0 0 0c-.1 0 0 0 0 0zM13.1 63.3zM16.3 63.3h.2-.2zM36.8 63.3z"/><path class="st0" d="M66.2 62.9c-.1 0-.3.1-.4.1H56.7c-.6.1-1.6.1-2.5.1h-1c-.3 0 .6 0 0-.1l-.2.1c-.1 0-2 0-.7-.1h-3c-.7 0-.4.1-1.1.1-.2 0 .3 0 .2-.1-2.2-.1-2.6.2-4.7.2h.2-1c.3.1.4-.1 1 0-.1.1-.8 0-.8.1h-1.2c-.7-.1-1.8 0-2.3-.1-.4 0-.8.1-1.5.1-.5-.1.1-.1-.6-.1l-.1.1h-.5c-.7 0-.5.1-1.4 0h.5-1.7.6c-.5-.1-.8 0-1 0 .1 0 .7 0 .4.1-.4 0-.9.1-1.2 0h.5c-.9 0-.5.1-1.5 0 .1 0 0 0 0 0-.6.1-1.5 0-2.4 0h.2c-.4 0-.6.1-.8.1.5 0 .4 0 .4.1-.7-.1-1.1.1-2.2 0 0 0 .3-.1.6 0 .4-.1.4-.2 1.1-.2h-1.7c-.1 0 .5.1-.1.1-.7 0-.4-.1-.5 0-1 0-.4.1-1.3.1h.3c-.7 0-1.6 0-1.8-.1h.4c.7-.1-.6 0-.4-.1.1.1-.9 0-1.3 0l.1.1c-1.4.2.1-.1-1.3-.1-.9 0 .3 0-.2.1-.6 0-.8-.1-1.7 0-.2 0-.7-.1-.8-.1h-1.9c.9.1.9-.1 1.9 0l-.3.1h-2.1.1c-1 0-1.3.1-2.3.1-.1-.1.5 0 .9-.1h-1.7c-.1-.1.7 0 .8 0H13c-.2.1-.8 0-1.5 0-1.6 0-1.9.1-2.7.2-.2 0-.3 0-.2-.1h.5c-.5 0-1.2-.1-.9-.1-.9 0 .3 0-.2.1H6.8c.1 0 .6.1-.1.1H5.3h.3-.5c-.2 0-.3 0-.4-.1.2.1.2.1.1.1H4.5c-.3-.1-.6-.2-.4-.1-.2-.1-.4-.2-.6-.4.1 0 .1.1.1.1s.1.1.2.1l-.1-.1s-.1 0-.1-.1c0 0-.1 0-.1-.1-.1-.1-.3-.1-.3-.2-.1-.1-.2-.2-.3-.4 0-.4-.1-.5-.1-.5 0-.1-.1-.1-.1-.1-.1-.1-.2-.2-.2-.4-.1-.2-.1-.3-.1-.3-.1-.3 0 0-.1-.1-.1-.3-.2-.7-.2-1.1l.1-.1v-.8c.1.4.1-.9.1-.3.1-.4.1-1.5 0-2.1-.1-.4 0 .7-.1.6 0-1.7-.2-1.8-.2-3.1v.3c0-.8 0-.7-.1-1.1.1.2.2-.9.2-2.2 0-.1-.1.7-.1.5v-.9.1c0-.8.1-1.4 0-1.6l.1-.8v.3c0-.1 0-1-.1-1.1V46c0 .2-.1.5-.1-.2.1 0 0-1.4.1-1.4v-.8h.1c-.1-.1-.1-1.1-.1-1.8.1.2 0-.8.1-1.2-.1-.1 0-1.4-.1-1.5 0-.6.1-.5.1-.7v-.3c0-.3.1-1.4.1-2.1l-.1-.6v-.2c0-.1 0-.6-.1-.3v-.3c-.1 0 0-.5-.1-1.1 0-.2 0-.1 0 0 0-.3 0-.2.1-.4.2.5 0-1 0-.1 0 .1-.1-.5 0-.8V32l-.1-.4v-1.1c0 .4.2.9.2-.2 0 .6.1.9.1 1.2 0-.2 0-.3 0 0 0-.9 0-.3-.1-1.1.1 0 .1-.2.1-.9l.1.5v-.1.3c0-.2-.1-1 0-1.1-.3.8-.2-1.5-.3-1v-.8c.1.7.1-.5.1-.4 0-.3-.1.6-.1.2 0-.4 0-.7.1-1v.2-.7c0-.1-.1.6-.1 0v-.7c0 .3.1.1.1.6 0-.4 0-1.8-.1-1.2v-.5c0 .3-.1 1.2-.1.2l.1-.7v-.7c0-.1 0-.3.1-.3 0-.8 0-.7-.1-.8 0-.4 0-.6.1-.4v-2c0-.8 0 .2-.1-.3.1-.7 0-2.6 0-3.9-.1.3 0-.3-.1-.6 0 .1 0-.2.1-.4v-.1.4-.7.4c0 .2 0 .5.1.1V13.1c0-.1.1-.3.1-.5.1-.2.1-.3.2-.5 0 .1 0 0 .1-.1s.2-.3.2-.2c-.1.1-.2.3-.3.5l.1-.1c.1-.2.2-.3.2-.4l.1-.1s0-.1.1-.1l.1-.1v-.1l.1-.1.1-.1.1-.1c.2 0 .4-.1.5-.1.1-.1.2-.1.2-.1h.1c.1 0 .2-.1.4-.2.1 0 .2-.1.2-.1.1 0 .1-.1.2-.1-.3.1-.5.2-.7.2h-.1c.1 0 .2-.1.4-.1.1 0 .3-.1.5-.1.3-.1.6-.1.8-.1h-.7c-.2 0-.3.1-.4.1-.1 0-.2.1-.4.1-.2.1-.4.1-.6.3l-.1.1s0 .1-.1.1l-.5.5c.3-.4-.1 0-.2.1.1 0 0 .1-.1.2-.1.2-.2.4-.3.5-.1.1 0 0 0-.1 0 0 0 .1-.1.1 0 .1-.1.1-.1.2s0 .1.1.2l-.1.1c-.1.1-.2.1-.2.4V12.5s0-.1.1-.1c-.3.5-.3.9-.3 1.3s.1.8.1 1.2v-.2.8c0 .6 0-.5-.1-.3v1.5c0-.3-.1-.4-.1-.6l.1 1c0-.1-.1.8-.1.1V19v-.1c0 .5.1 2.2 0 1.9.1 1.1 0 1.5.1 2.9-.1-1.1-.1 1.2-.1.1 0 .7 0 .8.1 1.3 0 .5-.1.3-.1-.3v1.1c0 .6-.1.1-.1.7l.1.1v1.5c0-.5 0 .5-.1.2v1.2-.1c0 1-.1 0-.1.9l.1-.1c-.1 1.2 0 2.1 0 3 0-.5-.1-.4-.1-.4 0 .8 0 2 .1 2.8-.1.3-.1.4-.1 1.2 0 .6 0 .7.1.9v2.6h.1c-.1 1 .1 1.7 0 2.8V43v.4c0 .1 0-.1-.1-.1v2-.4c0 .4.1.7 0 1.2-.1-.8 0 .7-.1.8v-.4c0 .6 0 .6.1.5 0 .8-.1.5 0 1.2v-.5c0-.1.1.2.1.6V50.2c0 .3-.1.2-.1 0v2.3l-.1.6v-.2 1.2-.2c0 1.2-.1 1.4 0 2.5v-.2c.1 1.1-.1.8 0 1.9 0-.1 0 .1 0 0v.5h-.1l.1.4-.1.3v1.1l.3 1.2v-.2c.2.5.5.9.9 1.3s.9.8 1.4 1c.5.3 1.2.4 1.8.4h1.6v.1l.9-.1c.5 0-.3 0-.1.1 1 0 .4-.1 1.5-.1.6 0-.2 0-.5.1 1 0 2.6-.1 3.3 0 0 0 .1 0 0 0h2.4-.4.9-.3 1.8c-.1 0 0-.1.5-.1.3.1 1.4 0 2.2 0h-.5 1.1-.1H22c.3.1 1.8 0 1.7.1h1-.1.6l-.4.1c.5 0 .9-.1.9-.1.5 0 1.2 0 1.4.1h-.2c1.4 0 2.3.2 3.3.1h-.1.8-.2l1.4-.1h3.6-.2 2.2-.1.9-.2c.6-.1 1.8.1 1.4 0 .4 0 1-.1 1.1-.1.9 0 .2 0 .8.1h3-.2c1-.1 1.2.1 2 0 .4 0 1.2 0 1.1.1 1.2 0 2.1-.1 3.3-.1.2.1.3 0 1 0l-.1-.1c1.7 0 3.6.1 5.5.1l.1.1.4-.1h6.2c.3 0 .6 0 1-.1h.6c.2 0 .5 0 .7-.1h-.1c.8-.1 1.7-.5 2.3-1.1.7-.6 1.2-1.4 1.4-2.3 0 .1.1-.1 0 .1 0-.2.1-.5.1-.8 0-.3.1-.5.1-.7v.4-1.4l-.1-.7v-.2l.1-.4c0-.2 0-1.1-.1-1.4 0-.1 0-.7.1-.2v-2.6.4c-.1.1-.1-.7-.1-1.1 0 .5.1 0 .1-.2 0-.4 0 .3-.1.1 0-.4-.1-1.4 0-1.6v.3c0-.6.1-.9.1-1.5 0-.5 0-.9-.1-.8 0-.8.1-.3.1-.5v-1.6c-.1-.4 0-2.1-.1-2.2l.1-.6s-.1-.1-.1-.7c0-.5.1-.4.1-.5l-.1-.3c.1-2.8 0-6.5.1-9.5 0-1.4-.1-3.1-.1-4.7v.2-1.6 1.2-1c0-1.7.1-4.1 0-6.2-.1-1.4.1-.9 0-2.3v.3c0-1.4-.1-2.2-.1-3.6.1.2 0-.9.1-.8v-1.3c-.1-.2-.2-.5-.3-.7v-.1c-.1-.2-.2-.5-.4-.8-.2-.3-.4-.6-.7-.8-.3-.2-.5-.4-.8-.6-.2-.2-.5-.3-.6-.3-.3-.1-.6-.2-1-.2-.2 0-.4 0-.5-.1H57.3l-.6-.1c-.6 0-1.2.1-1.8.1h.1-1.8c-.7 0-1.3 0-1.1-.1-.1.1-1.4 0-1.4 0s-34.6-.2-43 .3c-.3 0-1.1.1-.8.1-.6 0-.9-.1-1 0 .8 0-.3.1.6.2H6h.6l.1-.1c.4 0 .6 0 .8.1.4 0 .6-.2 1.6-.1h-.3c.8 0 .5.1.6.1l-.4.3h.6-.9.4c.4 0 .3 0 .3.1h.8-.2 1c.2.1 1-.1 1.5.1-.7 0 .1 0 0 .1h1.7-.2.7c.1 0 1.3 0 1.2.1 1.1 0 .5-.1 1.6-.1.1 0-.9 0-.4.1h1.1c-.1 0-.2.1-.6.1 3 .1 4.6.3 7.4.2.4.1-.3 0-.6.1 2-.1 2.8.1 4.5.1 2.4.1 5.2.1 7.9.1h-.3c.4 0 1 0 1.4-.1.1 0-.3.1.5.1-.2 0-.5 0-.4-.1 2.3.1 7.1.1 10.9.1 5.1 0 10.6.1 15.6 0-.8 0-.4-.1.1-.1.2 0 .4 0 .6.1h.5c.3 0 .6.1.8.2.1 0 .3.1.4.2.1 0 .1.1.2.1s.1.1.2.1l.3.3c.1.1.2.2.3.4.4.5.6 1 .7 1.6v6l-.1.1V23.6h.1v.9l.1.7c-.1-.1 0 1.7-.1 2.2 0 .8.1 2.2 0 3.4-.1.2-.1 1.7-.1 2.6V40h.1v.6s0 .1 0 0c-.1.5 0 1.4 0 1.8.1-.3 0-.4 0-.8 0-.5.1 0 .1.6v.4c-.1 0-.1.5-.1.5 0 1.9.1 3.3.1 5.3-.1-.2 0 1.4-.1 1 0 1.2.1-.2.1.4v.8c0-.2-.1.3-.1 0v.8-.2c.1 1.6-.1 2.9 0 4.4v-.5c.1 1.5-.1 1.3 0 2.7v-.3c0 .4.1.6 0 1.4-.1.1 0-.6-.1-1 0 .5 0 1.8.1 1.4V60.4v-.2c0-.1 0-.1 0 0 0 .3-.1.8-.3 1.2-.2.4-.5.8-.8 1 0 0-.1 0 0 0l-.3.3c-.1.1-.2.1-.2.1s-.1 0-.1.1c0 0-.1 0-.2.1-.2-.2-.3-.2-.5-.1zM12.7 63.3H13.3h-.6zM32 63.3h.1-.1z"/><path class="st0" d="M36.7 63.2h.1c0 .1 0 .1-.1 0zM2.7 61.9c.1 0 .1.1 0 0zM2.2 32v.1-.1zM2.1 33.7v.3-.3zM9.1 63.4h.3-.3zM2.1 34.4v.4-.4zM2.2 31.5v.5-.5zM2.1 51.1s0 .1 0 0c0 .4 0 .2 0 0zM2.2 36.2c0 .1 0 .1 0 0v.2-.2zM2.2 29.7v.2-.2zM2.2 44.8v-.2c-.1.2-.1.3 0 .2zM60.1 25zM54.8 24.8zM63.3 25h.2-.2zM43.5 24.6zM50.2 24.7c0 .1-.1.1 0 0-.1.1 0 .1 0 0zM65 25.6c-.1 0-.1 0 0 0zM68.2 25.4zM67 25.3c-.1 0-.1 0 0 0-.1 0-.1 0 0 0zM66.8 25.3zM2.3 24.8c-.1 0-.2 0-.3.1l.3-.1zM33.2 24.6zM2.2 25.1c-.1 0-.1 0 0 0zM63.3 25.7H63c.1 0 .2.1.3 0zM31 26zM2.2 25.1zM22.5 24.6zM21.9 24.5h.1-.1zM2 24.9h-.1.1zM15.8 24.6s.1 0 0 0c.1 0 0 0 0 0zM50.6 24.8c.1 0 .1 0 0 0zM46.4 25.7zM46.6 25.7h-.2.2zM45.9 25.7zM50.4 25.8zM49.5 25.8zM43.7 25.8z"/><path class="st0" d="M35.2 26.1c.9 0 2-.1 2.8-.1.2-.1.5-.1.7-.1v.1h.2c.1 0-.2 0 0 .1l.1-.1s.6 0 .2.1h.9c.2 0 .1-.1.3-.1 0 0-.1 0-.1.1.6.1.7-.2 1.3-.2h-.1.3c-.1-.1-.1.1-.3 0 0-.1.2 0 .2-.1h.3c.2.1.5 0 .7.1.1 0 .2-.1.4-.1.2.1 0 .1.2.1v-.1h.1c.2 0 .2-.1.4 0h-.1.5-.2c.1.1.2 0 .3 0 0 0-.2 0-.1-.1.1 0 .3-.1.3 0h-.1c.2 0 .1-.1.4 0 .2-.1.4 0 .7 0h-.1c.1 0 .2-.1.2-.1-.2 0-.1 0-.1-.1.2.1.3-.1.6 0 0 0-.1.1-.2 0-.1.1-.1.2-.3.2h.2v-.1h.2s-.2-.1 0-.1.1.1.1 0c.3 0 .1-.1.4-.1h-.1c.2 0 .5 0 .5.1h-.1c-.2.1.2 0 .1.1 0-.1.2 0 .4 0v-.1c.4-.2 0 .1.4.1.2 0-.1 0 .1-.1.2 0 .2.1.5 0 .1 0 .2.1.2.1h.5c-.3-.1-.3.1-.6 0l.1-.1h.6c.3 0 .4-.1.7-.1 0 .1-.1 0-.3.1h.5c0 .1-.2 0-.2 0h.3c0-.1.2 0 .4 0 .5 0 .5-.1.8-.2.1 0 .1 0 .1.1h-.1c.2 0 .3.1.3.1.2 0-.1 0 .1-.1h.3s-.2-.1 0-.1h.4s.1.1-.1.1h.3c-.2 0 .3 0 .2-.1h.2-.1c.1.1.2 0 .2 0h.6c.1 0 0 0 0-.1h.3v.2c.1 0 0-.1.2-.1-.1.1.3.1.1.1.1.1.4.1.6 0 .1-.1-.2 0-.2-.1.5 0 .5-.2.9-.2h-.1c.2 0 .2 0 .3-.1-.1.1.3.2.6.2 0 0-.2-.1-.1-.1h.2c.2 0 .4.1.5 0l.2.1h-.1s.3 0 .3-.1h.5s-.2-.1 0-.1c0 .1.4 0 .4.1h.2v.1c0-.1.3-.1.5-.1-.1.1.2 0 .3.1 0-.1.4 0 .4-.1.2 0 .2.1.2.1h.1c.1 0 .4.1.6.1l.2-.1h.1s.2 0 .1-.1h.1c0-.1.1 0 .3-.1.1 0 .1 0 .1.1-.1 0 .3-.2.1-.2 0 0 .1-.1.2 0l.1.1.1-.1h.3c-.1 0-.3.2 0 .2-.2 0-.2.1-.3.1.1 0 .1 0 0 0 .2 0 .1 0 .3-.1 0 .1.1.1.3.1l-.2-.1h-.1s.3-.1.3 0c-.2-.1.4-.1.3-.2h.2c-.2.1.2.1.1.1.1 0-.2-.1-.1-.1s.2 0 .3.1h-.1.2s-.2-.1 0-.1h.2c-.1 0 0 .1-.2.1.1 0 .5 0 .4-.1h.1c-.1 0-.3-.1-.1-.1l.2-.1h.2s.1 0 .1.1c.2 0 .2 0 .2-.1.1 0 .2 0 .1.1h.6c.2 0 0 0 .1-.1.2.1.7 0 1.1 0-.1-.1.1 0 .2-.1-.1 0 .3.1 0 .1h.2c.1.1-.3 0-.1.1.2 0 .4-.1.6-.1-.1.1.2 0 .1.1h-.2c.5 0 .1-.1.4-.1.3 0 .2.1.2.1h.3c-.2 0-.3 0-.2-.1.1.1.4 0 .5 0-.4-.1-.3 0-.7-.1-.1 0 0 .1-.3.1.1 0 0 0-.1-.1h-.2c-.1 0 .1-.1-.1-.1v.1c-.1 0 0-.1-.2-.1.1-.1 0-.1.2-.1-.3-.1-.5 0-.7.1h.1-.2c-.2 0 .1 0 .1-.1h-.5c.1 0 .1-.1.2-.1l-.3.1s-.2-.1 0-.1h-.4v-.1c-.1 0-.1 0 0 0-.1 0-.6.1-.6 0-.3.1-.4 0-.8.1.3-.1-.3-.1 0-.1-.2 0-.2 0-.4.1-.1 0-.1-.1.1-.1h-.4c-.2 0 0-.1-.2-.1v.1h-.4c.1 0-.1 0-.1-.1h-.4c-.3 0 0-.1-.3-.1v.1c-.3-.1-.6 0-.8 0 .9 1 .9.9.9.9-.2 0-.6 0-.8.1-.1-.1-.1-.1-.3-.1-.2 0-.2 0-.3.1h-.7v.1c-.3-.1-.5.1-.8 0h.1L59 25v-.1h-.6.1c-.1 0-.2.1-.3 0 .2-.1-.2 0-.2-.1h.1c-.2 0-.2 0-.2.1-.2 0-.2-.1-.4 0h.1s-.1.1-.2.1c0 0-.1 0 0 0h-.5c-.1 0-.1-.1 0-.1h-.6l-.2-.1h.1-.3.1c-.3 0-.4-.1-.7 0h.1c-.3.1-.2-.1-.5 0h-.1v-.1l-.1.1-.1-.1h-.1c-.1-.1-.4 0-.6-.1v.1c-.5.1-1.2-.1-1.8 0v-.1l-.3.1c-.1 0 .1 0 0-.1-.3 0-.1.1-.4.1-.2 0 .1 0 .1-.1-.3 0-.7.1-.9 0h-.7.1-.3.1-.5s0 .1-.1.1c-.1-.1-.4 0-.6 0h.1-.8c-.1-.1-.5 0-.5-.1h-.5l.1-.1c-.1 0-.3.1-.3.1-.1 0-.3 0-.4-.1h.1c-.4 0-.6-.2-1-.1h-.2.1l-.3.3h-1 .1-.8.1c-.2.1-.5-.1-.4 0-.1 0-.3.1-.3.1-.3 0-.1 0-.2-.1h-.9.1c-.3.1-.3-.1-.6 0-.1 0-.3 0-.3-.1-.3 0-.6.1-1 .1-.1-.1-.1 0-.3 0v.1c-.5 0-1-.1-1.6-.1v-.1l-.1.1H36c-.2 0-.4.1-.6.1-.4 0-.9.1-1.3 0v-.1c-.1.1-.3 0-.4 0h.1-.4l-.2.1-.1-.1c-.1 0-.3 0-.4.1 0 0-.2 0-.1-.1h-.7.1c0 .1-.2.1-.3.1.2 0 0-.1-.1-.1s.1 0 0 .1c-.1 0-.4.1-.5 0h.1c-.2 0-.3-.1-.4-.1-.2 0-.3 0-.2.1-.2 0-.1-.1-.2-.1h-.5c-.1.1-.6 0-.6.1l-.2-.1s0 .1-.2.1c-.1 0-.1-.1-.1-.1l-.1.1c-.8-.1-1.9 0-2.7-.1-.4 0-.9.1-1.3.1h.1-.5.3-.3c-.5 0-1.2-.1-1.8 0-.4.1-.3-.1-.6 0h.1c-.4 0-.6.1-1 .1 0-.1-.3 0-.2-.1-.1 0-.3 0-.3-.1l-.2.1v-.1c-.2 0-.8 0-.9-.1-.6.1-1.5.1-2.3 0h-.5l-.2-.1c-.2 0-.4.1-.5.1h-.5c-.2 0-.4 0-.3-.1 0 .1-.4 0-.4 0s-9.9-.2-12.3.3c-.1 0-.3.1-.2.1-.2 0-.3-.1-.3 0 .2 0-.1.1.2.2H2h.2V25c.1 0 .2 0 .2.1.1 0 .2-.2.5-.1h-.1c.2 0 .1.1.2.1h.2H3h.1c.1 0 .1 0 .1.1h.2-.1.3c.1.1.3-.1.4.1-.2 0 0 0 0 .1h.5-.1.2s.4 0 .3.1c.3 0 .1-.1.4-.1 0 0-.2 0-.1.1h.3s-.1.1-.2.1c.9.1 1.3.3 2.1.2.1.1-.1 0-.2.1.6-.1.8.1 1.3.1.7.1 1.5.1 2.3.1h-.1c.1 0 .3 0 .4-.1 0 0-.1.1.1.1 0 0-.1 0-.1-.1.7.1 2 .1 3.1.1 1.5 0 3 .1 4.5 0-.2 0-.1-.1 0-.1.4.2.8 0 1.2.1.8-.1 1.6.1 2.4 0v.1h1.1v-.1h.3l.2-.1c0 .1.5 0 .6.1.2 0 .6-.1 1 0 .1.1.5.1.7.1h1.9v-.1h.2c.1.1.4 0 .5 0-.1-.1-.1 0-.2 0s0-.1.2-.1h.1c0 .1.1.1.1.1.6 0 .9-.1 1.5-.1-.1.1.4 0 .3.1.3 0-.1-.1.1-.1h.2s.1.1 0 .1h.2-.1c.5-.1.8.1 1.3 0h-.1c.4-.1.4.1.8 0L33 26c.1 0 .2-.1.4 0 0 .1-.2 0-.3.1.1 0 .5 0 .4-.1h.3s-.2 0-.1-.1h.9c.3.1.3.2.6.2zM50.6 25.8h-.2.2zM45 25.8z"/><path class="st0" d="M43.7 25.9c.1 0 0-.1 0 0 0-.1 0 0 0 0zM53.7 25.7zM62.3 25.7zM61.8 25.6zM51.6 25.7s-.1 0 0 0c-.1 0 0 0 0 0zM61.6 25.6h-.1.1zM62.5 25.7h-.2.2zM56.9 25.6c-.1 0-.1 0 0 0-.2 0-.1 0 0 0zM61.1 25.7zM63 25.7s-.1 0 0 0c-.1 0 0 0 0 0zM58.7 25.7s0-.1 0 0c0-.1-.1-.1 0 0zM12.8 36.2zM12.2 35.6zM13.2 36.6s.1 0 0 0zM10.7 34.4zM11.6 35.2c-.1 0-.1 0 0 0-.1 0-.1 0 0 0zM13.3 37zM13.8 37.3c0-.1 0-.1 0 0 0-.1 0-.1 0 0zM13.7 37c-.1 0-.1 0 0 0-.1 0-.1.1 0 0zM13.6 37zM14.1 30.6c0-.1 0-.1 0 0zM10.4 34.1zM14 30.4zM13 36.9zM10 33.2zM14 30.4zM11.7 32.9zM11.8 32.9zM14.1 30.5zM12.5 32.2zM11.6 35.2zM10.7 35.3zM10.7 35.3c0 .1 0 .1 0 0zM10.6 35.3zM11.2 35.8zM11.1 35.7zM10.2 35.1z"/><path class="st0" d="M9.2 33.8c-.2.2-.3.3-.4.5.1.1.2.1.2.1.1 0 .2.1.3.1h-.1.1s-.1 0 0 0h.1s.1.1 0 .1l.2.2h.1c-.1.1 0 .2.1.2h.2c0-.1 0 0 0 0h.2l.1.1h.1v.1h.2c0 .1 0 0 0 0v-.1h.2s.1 0 .1.1h.1v-.1c0 .1.1 0 .1 0l-.1.1v-.1s0 .1 0 0h.1s.1 0 0 .1c-.1 0 0 0 0 0h.1c.1-.1 0 .1 0 .1s0 .1.1.1v.1s.1.1.1 0-.1 0-.1-.1c0 0 .1 0 .1.1h.1-.1l.1.1H11.8v.1h.2v.1s0 .1-.1.1c0 0 0-.1.1 0v.1s0 .1.1.1V36H12.4v.2-.1s0 .1.1 0v.1h.1s.1 0 .1.1v-.1.1c0-.1.1 0 .1 0-.1.1 0 0 0 .1h.1v.1s0 .1.1.1h.2v.1l.1-.1v.1l-.1.1h-.1.1v.1h.1c0-.1.1 0 .1-.1v.2s0-.1 0 0c0 0 0 .1-.1.1h.1V37h.1s.1 0 .1.1.1.1.1.1c0-.1 0 0 .1 0v.1s-.1 0-.1.1h.1c.1.1.1 0 .1 0v.1-.1c0 .1.1 0 .1 0 0-.1 0 0-.1-.1 0 0 0 .1-.1 0 0 0 .1 0 0-.1v.1s0-.1.1 0c0-.1-.1 0-.1 0h.1-.1v-.1h-.1s-.1 0-.1-.1h-.1c.1 0 0-.1 0-.1h-.1s0-.1.1-.1v-.1h-.1c-.1 0 0 0 0-.1s-.1 0-.1-.1c0 0-.1-.1-.1 0v-.1h-.1s-.1 0-.1-.1-.1 0-.1-.1l-.3-.3h-.1c.1 0 0 0 0-.1v-.1h-.2v-.1h-.1c-.1 0 0-.1-.1-.1s0-.1-.1 0v-.1c-.1 0-.1-.2-.2-.2h-.2c-.1 0-.1 0-.1-.1 0 0-.1 0-.1-.1 0 0-.1 0-.1-.1s-.1 0-.1-.1H11c0-.1-.1 0 0-.1h-.1v-.1c-.1 0 0-.1-.1-.1h-.1l-.1-.1c-.1 0 0 0-.1-.1v-.1h-.1v-.1H10.1c.1 0 0 0 0 0H10s-.1 0 0 0v-.1l.1-.1v-.1h.1v-.1h.1v-.1s0-.1.1 0c0-.1.1 0 .1-.1v-.1h.1v-.1c.2 0 .2-.2.4-.2 0-.1.1-.1.1-.2h.1-.1c.1 0 .2-.1.2-.2s.1 0 .1-.1.1-.1.1-.2c0 .1 0 0 .1 0h.1v-.1l.1-.1c0-.1.2-.2.3-.3v-.2s.1 0 0-.1h.1c0-.1.1 0 .1 0s1.3-1 1.4-1.5v-.1s.1 0 0 0c0 0 0-.1-.1-.1v.1h-.1v.1h-.1s0-.1 0 0v.1c-.1 0 0 .1-.1 0l-.1.1h-.1c-.1 0 0 .1 0 .1v-.1c-.1.1-.3 0-.4.1v-.1c0 .1-.2 0-.2.1-.1 0-.2.1-.3.2v.1s0-.1 0 0c-.1 0-.3.2-.4.3-.2.2-.4.3-.6.5 0 0 .1 0 0 0s-.1.1-.2.1c-.1.1-.2.1-.3.3l-.1.1c0-.1-.1 0-.1 0l-.1.1h-.1c-.1.1-.1.2-.2.2 0 0 0 .1-.1 0v.1h-.1c-.1.1-.1.2-.2.2 0 0 0 .1-.1 0 0 .1 0 0 .1.1 0 .1-.1.1-.2.1 0 0 0 .1-.1.1v-.1l-.1.1s-.1 0-.1.1h.1c-.1 0-.2.1-.2.2.2.5.1.5.1.5zM11.2 35.8zM10.5 35.2z"/><path class="st0" d="M10.2 35.2c.1 0 0-.1 0 0 0-.1 0-.1 0 0zM11.7 36zM12.9 36.8zM12.8 36.7zM11.4 35.8zM12.8 36.7zM12.9 36.8zM12.2 36.2c-.1.1-.1.1 0 0zM12.7 36.7zM12.9 36.9zM12.4 36.5c0-.1 0-.1 0 0zM20.2 36.6zM21 36.1c0 .1 0 0 0 0zM19.8 36.8s-.1 0 0 0zM22.7 35.2c-.1 0 0 0 0 0zM21.7 35.7zM19.3 36.7zM18.9 37.1zM19.2 37zM19.2 37zM19.1 30.1zM23.1 33.4zM19 30.2zM19.5 36.5c0-.1.1-.1 0 0 0-.1 0-.1 0 0zM22.2 33.9zM19 30.2zM21.7 32.2c.1 0 .1 0 0 0zM21.7 32.1zM19.1 30.1zM20.9 31.5zM21.6 35.8zM21.8 34.9s0-.1 0 0c0-.1 0-.1 0 0zM21.9 34.8zM21.2 35.2zM21.4 35.1zM22.2 34.5z"/><path class="st0" d="M22.4 34.2c.1 0 .1 0 0 0h.1-.1c0-.1 0 0 0 0 .1.1.1.1 0 .1v.1h-.1v.1h-.1v.1h-.1s0 .1 0 0v.1c0 .1-.1 0-.1.1v.1h.1c-.1 0 0 .1-.1.1v-.1s.1 0 0 .1v.1s-.1.1-.1 0v.1c0 .1 0-.1-.1 0h-.2s-.1 0-.1.1c.1 0 0-.1.1 0l-.1.1s0 .1-.1.1v-.1h-.1c0 .1 0 0-.1.1-.1 0 0 .1 0 .2H21v.1h-.1l-.1-.1v.1s-.1 0-.1-.1h-.1.1c-.1.1 0 .1-.1.2v.1s-.1-.1-.2 0c0 0 .1 0 .1.1h-.2v.1h-.1s.1 0 0 .1c0-.1-.1 0-.1 0v.1c0-.1 0 0-.1 0v.1h-.2v.2s0 .1.1.1v.1h-.1s0-.1-.1-.1v-.1.1h-.1v.1c.1 0 0 .1 0 .1s-.1 0-.1-.1h-.1v-.1s-.1.1 0 .1c0 0 .1 0 0 0v.1h-.1c-.1-.1-.1 0-.2.1.1.1 0 0 0 .1 0 0-.1 0 0-.1V37s0 .1-.1.1c0-.1 0 0 0 0-.1 0 0 .1 0 .1h-.1.1c-.1 0-.1 0-.1.1h.1v-.1s0 .1.1.1v-.1.1c.1 0 0-.1.1-.1v.2-.1s.1 0 0 0h.1s0-.1.1 0c0-.1 0-.1.1-.1 0 .1.1 0 0 .1v-.1.1h.2c.1 0 .1-.1.1-.1l.1-.1h.1V37s.1-.1.1 0c.1 0 0-.1.1-.1h.1c0 .1 0 0 .1 0h.1v-.1s.1 0 .1-.1 0 0 .1-.1c0 0 .1 0 .1-.1s.1 0 .1-.1v-.1h.1c0-.1.2-.1.3-.2v-.2l.1-.1s.1 0 .1-.1c0 0 .1-.1.1 0 0 0 0-.1.1-.1v-.1l.1-.1s.1-.1.1 0v-.1h.1s.1 0 .2-.1v-.1l.1-.1c0-.1.1 0 .1-.1s.1 0 .1 0v-.1h.1l.1-.1v-.1h.1v-.1s.1-.1.1 0l.2-.2h.1c.1 0 .1-.1.2-.1s.2-.1.2-.1h.1c.1 0 .1-.1.2-.1l-.3-.3c-.1 0-.2-.1-.2-.1l-.3-.3c-.1 0-.1-.1-.1-.1-.1 0-.1-.1-.1-.1h-.1V33h-.1l-.1-.1h-.1v-.1h-.1v-.1h-.1v-.1s-.1 0 0-.1c-.1 0-.1-.1-.1 0v-.1h-.1v-.1H22c0-.1-.2-.2-.3-.4-.1 0-.1-.1-.2-.1v-.1.1c0-.1-.1-.2-.2-.2s0-.1-.1-.1-.1 0-.2-.1c.1-.1 0 0 0-.1v-.1h-.1l-.1-.1c-.1 0-.2-.1-.3-.2h-.1v-.1h-.2v-.2s-1.1-1.2-1.7-1.2h-.1s0-.1 0 0l-.1.1v.1s.1-.1.1 0v.1s-.1 0 0 0h.1c0 .1.1 0 0 .1l.1.1v.1c0 .1.1 0 .1 0h-.1c.1.1 0 .3.2.3h-.1c.1 0 0 .1.1.2 0 .1.2.2.2.3h.1s-.1 0 0 .1c0 .1.2.3.3.4.2.1.4.4.5.5 0 0 0-.1 0 0s.1.1.1.2c.1.1.2.2.3.2l.1.1.1.1s.1 0 .1.1c0 0 0 .1.1.1.1.1.2.1.2.2s.1 0 .1.1h.1v.1c.1.1.2.1.2.1s.1 0 0 .1c.1 0 0 0 .1-.1.1 0 .1.1.2.1.8.8.8.8.8 1 0-.1 0-.1 0 0 0-.1 0-.1 0 0 0-.1 0-.1 0 0 0-.1.1-.1 0 0 0-.1 0-.1 0 0 0-.1 0-.1 0 0 0-.1 0-.1 0 0 0-.1 0-.1 0 0 0-.1 0-.1 0 0 0-.1 0-.1 0 0 .1-.1 0 0 0 0zM21.2 35.2zM22 34.7zM22.1 34.5s.1 0 0 0c.1 0 .1 0 0 0zM20.9 35.6c-.1 0-.1 0 0 0zM19.6 36.4c.1 0 .1 0 0 0 .1 0 .1 0 0 0zM19.7 36.4c.1 0 .1 0 0 0 .1 0 0 0 0 0zM21.1 35.4s0-.1 0 0c0-.1 0 0 0 0zM19.8 36.3zM19.6 36.4zM20.4 35.9zM19.8 36.2zM19.5 36.4zM20.2 36s0 .1 0 0c0 .1 0 .1 0 0zM15.2 37c0 .1.1.1 0 0 .1.1 0 .1 0 0zM15.6 36.3zM15 37.5zM16.3 34.7zM15.9 35.6zM14.6 37.6zM14.5 38.1zM14.7 38zM14.7 38zM18.3 28.6c.1 0 0 0 0 0zM16.9 33.2zM18.1 28.5zM14.6 37.3zM16.1 32.6zM18.1 28.5zM17.4 31.6zM17.5 31.6zM18.3 28.6zM17.8 30.7zM15.9 35.7zM15.5 34.9zM15.5 34.8zM15.2 35.4zM15.3 35.3zM15.6 34.5c0-.1 0 0 0 0z"/><path class="st0" d="M15.8 33.1c0 .1 0 .3-.1.4v.1h-.1s0 .1-.1 0v.2c-.1.1.1.2 0 .2v.1c.1 0 0 0 0 0 .1 0 0 0 .1.1v.1s0 .1-.1.1c0 0 .1.1 0 .1h-.1v.2c-.1 0 0 0 0 0h.1V35h.1c-.1 0 0 .1 0 .1l-.1-.1h.1s-.1 0 0 0v.1s0 .1-.1.1v.1c.1.1-.1 0-.1 0s-.1 0 0 .1h-.1v.1-.1.4c.1 0 0 0 0 .1s0 .1.1.2h-.1.1v.1s0 .1.1.1h-.1s.1 0 .1.1h-.1l-.1.1h.1c0 .1.1.1 0 .2v.1s-.1 0-.1.1h.1s-.1 0 0 .1h-.1v.2h.1c-.1 0 0 .1-.1 0 .1 0 0 .1 0 .1h-.1c.1 0 0 .1 0 .1h-.1s-.1 0-.1.1c.1 0 0 0 0 .1h-.1l.1.1h-.1s-.1-.1-.1 0v-.1.1h-.1v.1c.1 0 0 .1.1.1h-.1.1-.1.1s-.1 0-.1-.1v.1h.1s0 .1-.1.1-.1.1-.1.2h.1-.1s0-.1-.1 0c0 0 .1.1 0 .1 0 .1.1 0 .1.1h-.1.1c-.1 0 0 .1 0 .1.1 0 0 0 .1-.1 0 0-.1 0 0-.1h.1-.1s.1 0 .1.1c.1 0 0-.1 0-.1h.1v-.1h.1V37.9c0 .1.1 0 .1 0v-.1h.2v-.1c0-.1 0 0 .1 0s0-.1 0-.1v-.1h.1v-.1c.1 0 0-.1.1-.1v-.2c0 .1 0 0 .1 0 0 0 .1 0 0 0V36.8c0-.1.1 0 0-.1 0-.1.1 0 0-.1.1 0 0 0 .1-.1-.1-.1.1-.2.1-.3v-.5c.1 0 0-.1 0-.1v-.2c.1 0 0-.1.1-.1 0 0 0-.1-.1-.1h.1c0-.1.1-.1.1-.1v-.4s.1-.1 0-.1v-.1h.1v-.2c0-.1.1 0 0-.1h.1V34c.1 0 0 0 0 0 0-.1.1-.1.1-.2s.1-.2.1-.3v-.1c0-.1 0-.1.1-.2V33h.4v-.1h.1v-.1h.1v-.1h.1v-.1c-.1 0 .1-.1 0-.1 0 0-.1 0-.1-.1h.1-.1c.1-.1.1-.3.2-.4V31.7c.1-.1.1-.1.1-.2-.1-.1.1 0 0-.1v-.2h.2s0-.1.1-.1c0-.1 0-.2.1-.3V30.5h.1c-.1 0 0-.1 0-.1s.7-1.4.4-1.9c0 0 0-.1-.1-.1 0 0 .1 0 0 0h-.1.1-.1s.1.1 0 .1h-.1s0-.1 0 0H18v.1c-.1 0 0 .1-.1.1v.1s0 .1-.1 0c0 0 .1 0 0 .1v.1c-.1.1-.2.1-.3.3 0 .1-.1.1-.1.2-.1.1-.1.2-.2.3v.1h-.1c-.1.1-.2.3-.2.4-.1.2-.2.4-.2.6 0 0 .1 0 0 0s0 .1-.1.2c0 .1-.1.2-.1.4v.1c-.1 0 0 .1-.1.1v.2l-.1.1c0 .1 0 .2-.1.3-.1 0 0 .1 0 .1s.1 0 0 0h-.1v.2s0 .1-.1 0c0 .1.1 0 .1 0 0 .1-.1.1-.1.2s-.1 0 0 .1v.1-.1.1c-.1 0-.1 0-.2.1.1 0 .1 0 0 0 .1 0 0 0 0 0zM15.2 35.5c0-.1 0-.1 0 0zM15.5 34.7zM15.5 34.4c0 .1 0 .1 0 0zM15.1 36s0-.1 0 0zM14.7 37.2z"/><path class="st0" d="M14.8 37.2c-.1-.1-.1 0 0 0zM15.2 35.6zM14.7 37.1c.1 0 .1 0 0 0zM14.7 37.2zM15 36.4zM14.7 37zM14.6 37.3zM14.9 36.7zM39.8 37.2c.1-.1.1-.1 0 0 0-.1 0-.1 0 0zM38.2 37.1zM40.8 37.2c.1 0 .1 0 0 0zM34.6 37zM36.7 37.1zM41.4 37.4c-.1 0 0 0 0 0zM42.4 37.3zM42 37.3zM42 37.3zM21.7 37.1s-.1 0 0 0zM31.4 37zM21.7 37.2zM40.8 37.4s-.1 0 0 0zM30.7 37.5zM21.7 37.2zM28 37c.1 0 .1 0 0 0zM27.9 37zM21.6 37.1zM26 37zM36.9 37.1zM35.5 37.4zM35.6 37.4zM35.4 37.4zM36.8 37.4zM36.5 37.4zM34.7 37.4zM32 37.5H33.2s-.1 0 0 0h.5c.2 0 .2-.1.4-.1h.1-.1.6c.1 0 0 0 0 0H35h-.1.1s-.1 0 0 0h.7-.1s0 .1-.1.1h.2c.1 0 0 0 0 0H36c-.1 0 .1 0 0 0h.1c.1-.1 0 0 .1 0h.4-.2.4-.1.2-.1.2c.1 0 .2 0 .2-.1h.1c.1 0 0 0 0 0H38.2v.1h.1s.1 0 0 0h.2-.1c.2 0 .2-.1.3-.1h.1s.1.1.2.1c0 0-.1 0 0 0h1.5s.1 0 0 0h.1s.1-.1 0-.1h.2s-.1.1 0 .1h-.1.2-.1.1c-.1 0 .1 0 .1-.1h.1c-.1 0 0 0 0 0s-.1 0 0 0h.2s-.1 0 0 0h.1-.1.1s-.1 0 0 0h.2s.1 0 0 0h.2c.1 0 0 0 0 0h.4s.1 0 0 0h.1s-.1 0 0 0h.2s.1 0 0 0h-.1H42.7h-.1.2-.4.1H42.2c-.1 0 0 0 0 0H42h.1-.1s-.1 0 0 0H41.4c.1 0-.1 0 0 0H39.1c-.1 0-.1 0 0 0H37c-.1 0 0 0 0 0h-1s.1 0 0 0h-.4c-.1 0 .1 0 0 0h-.4c-.1 0-.2-.1-.3 0H30.7s-.1 0 0 0l.3-.4h-.4c-.1 0 0 0 0 0h-1.9.1H25.4s-3.1-.1-3.9.1h-.2c.1 0 0 0 0 .1h.2s.1-.1.1 0h.2-.1c.1 0 0 0 0 0H22c-.1 0 0 0 0 0h.5s-.1 0 0 0h.1-.1c.3 0 .4.1.7.1h3.6c-.1 0 0 0 0 0 .1.1.2 0 .4 0H30.1 30h.7c.1 0 0 0 0 0H31.3s-.1 0 0 0H31.6h-.1.2s-.1 0 0 0h.3c-.1.2-.1.2 0 .2zM36.8 37.4zM35.1 37.4zM34.7 37.5c0-.1 0-.1 0 0 0-.1 0-.1 0 0zM37.8 37.4zM40.5 37.4zM40.4 37.4zM37.2 37.4zM40.3 37.4zM40.6 37.4zM38.8 37.4zM40.2 37.4zM40.8 37.4c-.1 0-.1 0 0 0-.1 0-.1 0 0 0zM39.4 37.4zM59.7 37.2c0-.1 0-.1 0 0 0-.1 0-.1 0 0zM58.4 37.1zM60.5 37.2zM55.5 37zM57.2 37.1zM60.9 37.4zM61.7 37.3zM61.4 37.3zM61.4 37.3s-.1 0 0 0zM45.3 37.1c-.1 0-.1 0 0 0zM53 37zM45.2 37.2zM60.5 37.4c-.1 0-.1 0 0 0-.1 0 0 0 0 0zM52.4 37.5zM45.2 37.2c.1 0 .1 0 0 0zM50.3 37zM50.2 37zM45.2 37.1zM48.6 37s.1 0 0 0c.1 0 0 0 0 0zM57.3 37.1zM56.3 37.4zM56.3 37.4zM56.1 37.4zM57.3 37.4zM57 37.4zM55.6 37.4zM53.5 37.5H54.5s.1 0 0 0H54.8c.2 0 .2-.1.3-.1h.1-.1 1.5s0 .1-.1.1H56.8c-.1 0 0 0 0 0h.1c.1-.1 0 0 .1 0H57.3h-.1.4-.1.1-.1.2c.1 0 .1 0 .2-.1h.1c.1 0 0 0 0 0H58.3c-.1 0 .1 0 0 0h.5v.1h.1s.1 0 0 0h.1c.1 0 .1-.1.2-.1h.1s.1.1.2.1c0 0-.1 0 0 0h1.2s.1-.1 0-.1h.2s-.1.1 0 .1h-.1H61.1c-.1 0 .1 0 .1-.1h.1c-.1 0 0 0 0 0H61.6s-.1 0 0 0H61.9c.1 0 0 0 0 0h.3s.1 0 0 0c0 0-.1 0 0 0h.5-.1.1-.4.1-.5s-.1 0 0 0h-.4c.1 0-.1 0 0 0H57c-.1 0-.2-.1-.2 0L56 37H52.8h.2-.1s-.1 0 0 0h-.6c-.1 0 0 0 0 0H50.9h.1H48.5s-2.5-.1-3.1.1h-.2c.1 0 0 0 0 .1 0 0 .1 0 0 0h.1s0-.1.1 0c.1 0 0 0 0 0h-.1c.1 0 0 0 0 0h.6s-.1 0 0 0h.1c.2 0 .3.1.5.1h2.9c-.1 0 0 0 0 0 .1.1.2 0 .3 0H52h-.1.5c.1 0 0 0 0 0H53.2h-.1.4c-.1.2-.1.2 0 .2zM57.3 37.4zM55.9 37.4zM55.6 37.5c0-.1 0-.1 0 0 0-.1 0-.1 0 0zM58.1 37.4zM60.2 37.4zM60.1 37.4zM57.6 37.4c-.1 0-.1 0 0 0-.1 0 0 0 0 0zM60.1 37.4c-.1 0-.1 0 0 0zM60.3 37.4s-.1 0 0 0c-.1 0 0 0 0 0zM58.9 37.4c-.1 0 0 0 0 0zM59.9 37.4zM60.4 37.4zM59.3 37.4zM24.8 42.9zM23.4 42.9zM25.7 42.9zM20.3 42.8zM22.1 42.8s0 .1 0 0c0 .1 0 .1 0 0zM26.2 43.1c-.1 0-.1 0 0 0zM27 43.1zM26.7 43zM26.7 43zM9 42.9c-.1 0-.1 0 0 0zM17.4 42.8zM8.9 43zM25.7 43.2s-.1 0 0 0c-.1 0 0 0 0 0zM16.8 43.3zM8.9 43c.1 0 .1 0 0 0zM14.5 42.8zM14.4 42.8zM8.9 42.9zM12.7 42.8zM22.2 42.9zM21.1 43.2zM21.1 43.2zM20.9 43.2zM22.2 43.2zM21.9 43.2zM20.3 43.2zM18 43.3H19.5c.2 0 .2-.1.4-.1h.1-.1H20.7s-.1 0 0 0h.7s0 .1-.1.1h.2c.1 0 0 0 0 0h.2c-.1 0 0 0 0 0h.1c.1-.1 0 0 .1 0H22.2 22h.4-.1.1-.1.2c.1 0 .1 0 .2-.1h.1c.1 0 0 0 0 0H23.7v.1h.1s.1 0 0 0h.2s-.1 0 0 0 .1-.1.2-.1h.1s.1.1.2.1c0 0-.1 0 0 0h1.4s.1-.1 0-.1h.2s-.1.1 0 .1H26 26.3c-.1 0 .1 0 .1-.1h.1c-.1 0 0 0 0 0h.4s-.1 0 0 0h.4c.1 0 0 0 0 0h.3s.1 0 0 0h.1s-.1 0 0 0h.2s.1 0 0 0h-.1H28.1 28h.1-.4.1-.5s-.1 0 0 0h-.5c.1 0-.1 0 0 0L26 43H21.8s.1 0 0 0H21.5c-.1 0 0 0 0 0H21.2c-.1 0-.2-.1-.3 0H17s-.1 0 0 0h-.6c-.1 0 0 0 0 0h-1.6.1H12.3s-2.7-.3-3.3-.1h-.2c.1 0 0 0 0 .1 0 0 .1 0 0 0h.1s.1-.1.1 0c.1 0 0 0 0 0h.1H9c.1 0 0 0 0 0H9.3c-.1 0 0 0 0 0h.4s-.1 0 0 0h.1c.2 0 .4.1.6.1h3.2c-.1 0 0 0 0 0 .1.1.2 0 .3 0h2.4-.1.5c.1 0 0 0 0 0H17.5h-.1.4c.1.2.1.2.2.2zM22.2 43.2zM20.7 43.2zM20.3 43.2zM23.1 43.2c-.1 0-.1 0 0 0zM25.4 43.2zM25.3 43.1zM22.5 43.2zM25.2 43.1zM25.5 43.2c-.1 0-.1 0 0 0-.1 0-.1 0 0 0zM23.9 43.1zM25.1 43.2zM25.6 43.2zM24.4 43.2s0-.1 0 0c0-.1 0-.1 0 0zM29.7 42.9zM29.9 42.9zM29.6 42.8zM29.7 42.8s0 .1 0 0c0 .1 0 .1 0 0zM29.9 43.1zM29.9 43zM29.9 43zM29 42.9zM29 43zM29.9 43.2zM29.4 43.3zM29 43zM29.3 42.8zM29 42.9zM29.2 42.8zM29.7 42.9zM29.6 43.2zM29.6 43.2zM29.7 43.2zM29.5 43.3s0-.1 0 0c.1-.1.1-.1 0 0 .1-.1.1 0 0 0l.1-.1v.1c0-.1 0 0 0 0v-.1.1-.1.1-.1.1-.1s0-.1 0 0-.6-.5-.6-.3v.1s0-.1 0 0v.1h.1c0 .1 0 0 0 0 .3.2.3.2.4.2-.1 0-.1 0 0 0-.1 0-.1-.1 0 0-.1 0-.1 0 0 0-.1 0-.1 0 0 0-.1 0-.1 0 0 0-.1 0-.1 0 0 0-.1-.1-.1-.1 0 0-.1 0-.1 0 0 0-.1 0-.1 0 0 0-.1 0-.1 0 0 0-.1 0-.1 0 0 0-.1-.1-.1 0 0 0-.1 0-.1 0 0 0-.1 0-.1 0 0 0-.1 0-.1 0 0 0-.1 0-.1 0 0 0-.1 0-.1 0 0 0-.1 0 0 0 0 0zM29.7 43.2zM29.6 43.2zM29.6 43.2zM29.7 43.2zM29.8 43.2zM29.8 43.1zM29.7 43.2zM29.8 43.1zM29.9 43.2zM29.8 43.1zM29.8 43.2zM29.9 43.2zM29.8 43.2s0-.1 0 0c0-.1 0-.1 0 0zM57.7 42.9zM55.3 42.9zM59.1 42.9s.1 0 0 0zM50.2 42.8zM53.2 42.8s0 .1 0 0c0 .1 0 .1 0 0zM59.9 43.1c-.1 0 0 0 0 0zM61.3 43.1zM60.8 43s-.1 0 0 0c-.1 0 0 0 0 0zM60.7 43zM31.5 42.9h-.1.1zM45.5 42.8zM31.5 43zM59.1 43.2H59h.1zM44.5 43.3zM31.5 43zM40.7 42.8zM40.4 42.8s.1 0 0 0c.1 0 0 0 0 0zM31.4 42.9zM37.7 42.8zM53.4 42.9zM51.5 43.2zM51.6 43.2h-.1.1zM51.3 43.2zM53.3 43.2zM52.9 43.2zM50.2 43.2zM46.4 43.3H48.1s-.1 0 0 0h.6c.3 0 .3-.1.6-.1h.1-.1 1.2-.1.2-.1.1s-.1 0 0 0h.2-.1.6-.1.3-.1c-.1 0-.1.1-.1.1h.2s-.1 0 0 0h.5c-.1 0 .1 0 0 0h.2c.2-.1 0 0 .2 0 .1 0 0 0 0 0h.5-.2.6-.1.2-.1H53.6c.2 0 .2 0 .4-.1h-.1.1c.1 0 0 0 0 0h.2s-.1 0 0 0h.5-.1.5v.1h.1c-.1 0 .1 0 0 0h.3-.1c.2 0 .2-.1.4-.1h.1s.1.1.3.1h-.1.7s-.1 0 0 0h1.4s.1 0 0 0h.1s.2-.1 0-.1H58.6c-.1 0-.1.1 0 .1h-.2.2-.1.1c-.1 0 .2 0 .1-.1h.2s-.1 0 0 0h.2s-.1 0 0 0h.1-.1H59.4s-.2 0 0 0H60c.1 0 0 0 0 0h.6s.2 0 0 0h.1-.1.4-.1.4-.1.2-.4c.1 0 0 0 0 0h-.1s.1 0 0 0h-.1.1-.4c-.1 0 .1 0 0 0h-.2.1-.1s-.1 0 0 0h-.8c.1 0-.2 0 0 0h-.2c-.1 0 0 0 0 0h-.6c.1 0-.1 0 0 0H58c.1 0 0 0 0 0H56.2h.1H56h.1H55.8h.1H53.1c-.1 0 0 0 0 0h-.2.1-.7.1-.7.1-.5c-.1 0 .1 0 0 0h-.5c-.2 0-.3-.1-.4 0h-5.5.1-.5s-.1 0 0 0h-.3.1-.1c.1 0 0 0 0 0H40.8h.1-4.4s-4.5-.1-5.6.1h-.2c.1 0 0 0 .1.1h-.1.2c.1 0 .1-.1.2 0h.2-.1.1c.1 0 0 0 0 0h.1s-.1 0 0 0H31.7c-.1 0 0 0 0 0h.2s-.1 0 0 0h.5s-.1 0 0 0h.1-.1c.4 0 .6.1 1 .1h-.1H35.2h-.1 3.4c-.1 0-.1 0 0 0 .2.1.4 0 .6 0h4-.1 1.1c.2 0 0 0 0 0h.8-.1.5-.1H45.5s-.1 0 0 0h.4c.4-.2.4-.2.5-.2zM53.4 43.2c-.1 0-.1 0 0 0zM50.9 43.2zM50.3 43.2c-.1 0-.1 0 0 0zM54.8 43.2zM58.7 43.2zM58.5 43.1c-.1 0-.1 0 0 0-.1 0-.1 0 0 0zM53.8 43.2zM58.4 43.1c-.1 0-.1 0 0 0zM58.7 43.2zM56.2 43.1zM58.1 43.2zM59 43.2zM57 43.2s0-.1 0 0c0-.1 0-.1 0 0zM32.1 47.9zM30 47.8zM33.4 47.9zM25.4 47.8c.1 0 .1 0 0 0zM28.1 47.8zM34 48.1zM35.3 48zM34.8 48zM34.8 48zM9 47.8h-.1.1zM21.4 47.8zM9 47.9zM33.3 48.1h-.1.1zM20.5 48.2zM9 47.9zM17.1 47.8zM16.9 47.7zM8.9 47.8c0 .1 0 .1 0 0zM14.4 47.8zM28.3 47.8zM26.6 48.1zM26.7 48.1s-.1 0 0 0c-.1 0 0 0 0 0zM26.4 48.1zM28.2 48.2zM27.9 48.2zM25.5 48.2zM22.2 48.3H23.7s-.1 0 0 0h.5c.3 0 .3-.1.5-.1h.1-.1H25.8h-.1.2-.1.1s-.1 0 0 0h.1-.1.6c-.1 0 0 0 0 0h.3-.1l-.1.1h.2s-.1 0 0 0h.4c-.1 0 .1 0 0 0h.1c.2-.1 0 0 .1 0h.5-.2.5-.1.2-.1H28.5c.2 0 .2 0 .3-.1h-.1.1c.1 0 0 0 0 0h.1s-.1 0 0 0H29.8v.1h.1s.1 0 0 0h.2-.1c.2 0 .2-.1.3-.1h.1s.1.1.2.1h-.1.7s-.1 0 0 0H32.4s.1 0 0 0h.1s.1-.1 0-.1h.2s-.1.1 0 .1h-.1.2-.1.1c-.1 0 .2 0 .1-.1h.1c-.1 0 .1 0 0 0 0 0-.1 0 0 0h.2s-.1 0 0 0h.1-.1.2s-.1 0 0 0h.2s.1 0 0 0h.2c.1 0 0 0 0 0h.5s.1 0 0 0h.1c.1 0-.1 0 0 0H34.7h-.1.4-.1.2-.4c.1 0 0 0 0 0h-.1s.1 0 0 0h-.1.1-.4c-.1 0 .1 0 0 0H34h.1-.1s-.1 0 0 0h-.7c.1 0-.1 0 0 0h-.1c-.1 0 0 0 0 0h-.5c.1 0-.1 0 0 0h-.5c.1 0 0 0 0 0H30.5h.1-2.4c-.1 0 0 0 0 0H28h.1-1.3.1-.5c-.1 0 .1 0 0 0h-.5c-.2 0-.3-.1-.4 0h-5.2s-.1 0 0 0h-.4c.1 0 0 0 0 0H16.7h.1H12.7s-2.7-.5-3.7-.4h-.2c.1 0 0 0 .1.1h-.1.2s.1-.1.2 0h.2-.1.2s-.1 0 0 0H9.8c-.1 0 0 0 0 0h.2s-.1 0 0 0h.4s-.1 0 0 0h.1-.1c.3 0 .5.1.8.1h-.1 1.7s-.1 0 0 0h3c-.1 0-.1 0 0 0 .2.1.3 0 .5 0H19.8h-.1 1c.1 0 0 0 0 0h.7-.1.5-.1H22s-.1 0 0 0h.4c-.4.2-.4.3-.2.3zM28.3 48.2c-.1 0-.1 0 0 0zM26.1 48.2zM25.5 48.2c.1 0 .1 0 0 0zM29.5 48.1zM33 48.1zM32.8 48.1zM28.7 48.1zM32.7 48.1c-.1 0-.1 0 0 0zM33 48.1zM30.8 48.1c-.1 0 0 0 0 0zM32.5 48.1zM33.2 48.1zM31.5 48.1zM42 47.9zM41.6 47.8zM42.2 47.9s.1 0 0 0zM40.7 47.8zM41.2 47.8zM42.4 48.1zM42.6 48zM42.5 48zM42.5 48zM37.4 47.8zM39.9 47.8zM37.4 47.9zM42.2 48.1zM39.7 48.2zM37.4 47.9zM39 47.8zM39 47.7zM37.4 47.8c0 .1 0 0 0 0zM38.5 47.8zM41.2 47.8zM40.9 48.1zM40.9 48.1zM41.2 48.2zM41.2 48.2zM40 48.3h.4c.1 0 .1-.1.1-.1H40.8v.1c0-.1 0 0 0 0h.1l.1-.1v.1s0-.1.1-.1v.1-.1.1-.1h.1H40.2s-.1-.1-.1 0h-1.6s-.8-.1-1 .1v.1s0-.1 0 0c.1 0 .1.1.2.1h.9c0 .1.1 0 .1 0H39.6c.3-.3.4-.3.4-.2 0-.1 0 0 0 0 0-.1 0 0 0 0zM41.2 48.2zM40.8 48.2zM40.7 48.2zM41.5 48.1zM42.2 48.1zM42.1 48.1zM41.3 48.1zM42.1 48.1zM42.2 48.1zM41.7 48.1zM42.1 48.1zM42.2 48.1zM41.9 48.1zM59.6 47.9zM58.3 47.8zM60.4 47.9c.1 0 .1 0 0 0zM55.4 47.8zM57.1 47.8zM60.9 48.1zM61.7 48zM61.4 48zM61.3 48zM45 47.8c-.1 0-.1 0 0 0zM52.8 47.8zM44.9 47.9zM60.4 48.1zM52.3 48.2zM44.9 47.9c.1 0 0 0 0 0zM50.1 47.8zM50 47.7zM44.9 47.8c0 .1 0 .1 0 0zM48.4 47.8zM57.2 47.8zM56.2 48.1zM56 48.1zM57.2 48.2zM57 48.2s-.1 0 0 0c-.1 0-.1 0 0 0zM55.5 48.2zM53.3 48.3h1.4c.2 0 .2-.1.3-.1h.1-.1 1.5s0 .1-.1.1h.1c.1 0 0 0 0 0h.2c-.1 0 0 0 0 0h.1c.1-.1 0 0 .1 0H57.2h-.1.4-.1.1-.1.2c.1 0 .1 0 .2-.1h.1c.1 0 0 0 0 0H58.2c-.1 0 .1 0 0 0h.5v.1h.1s.1 0 0 0h.2c.1 0 .1-.1.2-.1h.1s.1.1.2.1c0 0-.1 0 0 0h1.4s.1-.1 0-.1h.2s-.1.1 0 .1H61 61.3c-.1 0 .1 0 .1-.1h.1c-.1 0 0 0 0 0H61.8s-.1 0 0 0H62.1c.1 0 0 0 0 0h.3s.1 0 0 0c0 0-.1 0 0 0h.2s.1 0 0 0h-.1H62.8h-.1.1-.4.1-.5s-.1 0 0 0h-.4c.1 0-.1 0 0 0H57.6s.1 0 0 0H57c-.1 0-.2-.1-.2 0H53.2s-.1 0 0 0h-.6c-.1 0 0 0 0 0H51.2h.1H48.7s-2.5-.1-3.1.1h-.2c.1 0 0 0 0 .1 0 0 .1 0 0 0h.1s0-.1.1 0c.1 0 0 0 0 0h-.1c.1 0 0 0 0 0H45.8c-.1 0 0 0 0 0h.4s-.1 0 0 0h.1c.2 0 .3.1.5.1h2.9c-.1 0 0 0 0 0 .1.1.2 0 .3 0h2.3-.1.5c.1 0 0 0 0 0H53.5h-.1.4c-.6-.3-.6-.2-.5-.2zM57.2 48.2zM55.8 48.2zM55.5 48.2zM58 48.1zM60.2 48.1zM60.1 48.1zM57.5 48.1zM60 48.1zM60.2 48.1zM58.8 48.1zM59.9 48.1zM60.4 48.1zM59.3 48.1zM22.6 53.8zM21.4 53.7zM23.4 53.8zM18.7 53.7zM20.3 53.7zM23.8 54zM24.5 54zM24.2 53.9zM24.2 53.9zM9 53.7c-.1 0-.1.1 0 0zM16.3 53.7zM8.9 53.9zM23.4 54c0 .1-.1 0 0 0-.1.1 0 .1 0 0zM15.7 54.1zM8.9 53.9zM13.7 53.7zM13.6 53.6zM8.9 53.8zM12.2 53.7zM20.4 53.7zM19.4 54.1zM19.4 54s0 .1 0 0c0 .1 0 .1 0 0zM19.3 54.1zM20.1 54.1zM18.7 54.1z"/><path class="st0" d="M16.7 54.2H17.7s.1 0 0 0H18c.2 0 .2-.1.3-.1h.1-.1 1.5s0 .1-.1.1h.4c.1-.1 0 0 .1 0H20.5h-.1H20.7h-.1.1-.1.2c.1 0 .1 0 .2-.1h.1c.1 0 0 0 0 0H21.4s.1 0 0 0h.4v.1h.1s.1 0 0 0h.1c.1 0 .1-.1.2-.1h.1l.1.1h1.2s.1-.1 0-.1h.2s-.1.1 0 .1h-.1H24c-.1 0 .1 0 .1-.1h.4s-.1 0 0 0h.2c.1 0 0 0 0 0h.3s.1 0 0 0c0 0-.1 0 0 0h.4-.1.1-.4.1-.5s-.1 0 0 0h-.4c.1 0-.1 0 0 0H20.2s-.1 0 0 0H20c-.1 0-.2-.1-.2 0H16.1c-.1 0 0 0 0 0h-1.3.1H12.6s-2.3-.1-2.9.1h-.2c.1 0 0 0 0 .1h.1s0-.1.1 0c.1 0 0 0 0 0h-.1c.1 0 0 0 0 0h.6s-.1 0 0 0h.1c.2 0 .3.1.5.1h2.7c-.1 0 0 0 0 0 .1.1.2 0 .3 0h2-.1.5c.1 0 0 0 0 0H17h-.1.4c-.6-.3-.6-.2-.6-.2zM20.4 54.1c-.1 0-.1 0 0 0zM19.1 54.1zM18.7 54.1c.1 0 0 0 0 0zM21.1 54zM23.1 54zM23 54zM20.6 54zM23 54zM23.2 54zM21.9 54c-.1 0-.1 0 0 0zM22.9 54.1zM23.3 54.1zM22.3 54zM38.7 53.8zM37.6 53.7zM39.3 53.8zM35.4 53.7zM36.7 53.7zM39.6 54zM40.2 54zM40 53.9zM40 53.9zM27.4 53.7s0 .1 0 0zM33.4 53.7zM27.4 53.9zM39.3 54c0 .1-.1 0 0 0-.1.1 0 .1 0 0zM33 54.1zM27.4 53.9zM31.3 53.7zM31.2 53.6s.1 0 0 0zM27.4 53.8c-.1 0 0 0 0 0zM30 53.7s.1 0 0 0c.1 0 0 0 0 0zM36.8 53.7zM36 54.1zM36 54s0 .1 0 0c0 .1 0 .1 0 0zM35.9 54.1zM36.8 54.1zM36.6 54.1zM35.5 54.1z"/><path class="st0" d="M33.8 54.2h.6s.1 0 0 0H34.7c.1 0 .1-.1.3-.1h.1-.1H36s0 .1-.1.1c0 0 .1 0 0 0H36.2c.1-.1 0 0 .1 0h.2-.1.5c.1 0 .1 0 .2-.1 0 0 .1 0 0 0H37.4s.1 0 0 0H37.7v.1h.1c.1 0 .1-.1.2-.1h.1s0 .1.1.1H39.1s.1-.1 0-.1h.1s-.1.1 0 .1h-.1H39.4s.1 0 .1-.1h.2s-.1 0 0 0H40s.1 0 0 0c0 0-.1 0 0 0h.2c.1 0 0 0 0 0h.1s-.1 0 0 0h.1H39.5c.1 0-.1 0 0 0h-.2c-.1 0 0 0 0 0H36.2c-.1 0-.1-.1-.2 0h-.6c-.1 0 0 0 0 0H33s-.1 0 0 0h-1.1.1-.7s-.1 0 0 0H30.1s-1.9-.1-2.4.1c0 0-.1 0 0 0h-.1v.1s0-.1.1 0c0 0-.1 0 0 0h.6c.2 0 .3.1.4.1h2.2c.1.1.2 0 .2 0h2.2c.1 0 0 0 0 0h.5-.1.4c-.3-.3-.3-.2-.3-.2zM36.8 54.1zM35.7 54.1zM35.5 54.1zM37.4 54zM39.1 54zM39 54zM37 54zM39 54c-.1 0-.1 0 0 0zM39.1 54zM38 54zM38.9 54.1zM39.2 54.1zM38.4 54zM51.4 53.8zM50.7 53.7zM51.9 53.8zM49.2 53.7c.1 0 .1 0 0 0zM50.1 53.7zM52.1 54zM52.5 54zM52.3 53.9zM52.3 53.9zM43.8 53.7s0 .1 0 0zM47.9 53.7zM43.8 53.9zM51.9 54c-.1.1-.1 0 0 0-.1.1-.1.1 0 0zM47.6 54.1zM43.8 53.9zM46.5 53.7zM46.4 53.6zM43.8 53.8zM45.6 53.7zM50.2 53.7zM49.7 54s-.1.1 0 0c-.1.1 0 .1 0 0zM49.6 54.1zM50 54.1z"/><path class="st0" d="M48.2 54.2h.5s.1 0 0 0h.1c.1 0 .1-.1.2-.1h.7v.1h.1c.1-.1 0 0 0 0h.2-.1.4c.1 0 .1 0 .1-.1h.1v.1h.1c.1 0 .1-.1.1-.1s0 .1.1.1h.6v-.1.1s.1 0 0-.1c0 0 .1 0 0 0h.5H49.4c-.1 0-.1-.1-.1 0H45.5s-.1 0 0 0h-.1s-1.3-.1-1.6.1v.1s0-.1.1 0H44.2c.1 0 .2.1.3.1h1.6c.1.1.1 0 .2 0h1.2s.1 0 0 0h.5c0-.2.1-.2.2-.2-.1 0-.1 0 0 0-.1-.1-.1 0 0 0zM50.2 54.1zM49.5 54.1zM49.3 54.1zM50.6 54zM51.7 54zM51.7 54zM50.3 54zM51.6 54zM51.7 54zM51 54zM51.6 54.1zM51.8 54.1zM51.2 54s.1 0 0 0zM55.3 53.7zM55.4 53.8zM55.1 53.7zM55.2 53.7zM55.4 54zM55.4 53.9zM55.4 53.9zM54.6 53.7s0 .1 0 0zM54.6 53.9zM55.4 54c0 .1 0 0 0 0 0 .1 0 .1 0 0zM55 54.1zM54.6 53.9zM54.8 53.6zM54.6 53.8zM54.7 53.7zM55.2 53.7zM55.2 54s0 .1 0 0c0 .1 0 .1 0 0zM55.2 54.1zM55 54.2s0-.1 0 0c.1-.1.1-.1 0 0 .1 0 .1 0 0 0 .1 0 .1 0 0 0 .1 0 .1-.1 0 0 .1 0 .1 0 0 0 .1 0 .1-.1 0 0 .1-.1.1-.1 0 0 .1-.1.1-.1 0 0l.1-.1v.1c0-.1 0 0 0 0v-.1.1-.1.1-.1.1-.1s0-.1 0 0-.1-.1-.2.1v.1s0-.1 0 0v.1h.1c0 .1 0 0 0 0-.1-.2-.1-.2 0-.2-.1-.1-.1-.1 0 0-.1 0-.1-.1 0 0-.1-.1-.1-.1 0 0-.1-.1-.1-.1 0 0-.1-.1-.1-.1 0 0-.1 0-.1-.1 0 0 0 0 0-.1 0 0 0 0 0-.1 0 0 0-.1 0-.1 0 0 0-.1 0-.1 0 0 0-.1 0-.1 0 0 0-.1 0 0 0 0 0-.1 0-.1 0 0 0-.1 0 0 0 0 0-.1 0-.1 0 0 0-.1 0 0 0 0 0-.1 0 0 0 0zM55.2 54.1zM55.1 54.1zM55.1 54.1zM55.3 54zM55.4 54zM55.4 54zM55.2 54zM55.4 54zM55.4 54zM55.3 54zM55.4 54.1zM55.4 54.1zM55.3 54zM61.2 53.8zM60.8 53.7zM61.4 53.8zM60 53.7zM60.5 53.7zM61.5 54zM61.7 54zM61.6 53.9zM61.6 53.9zM57.2 53.7s0 .1 0 0zM59.3 53.7zM57.2 53.9zM61.4 54c0 .1 0 0 0 0 0 .1 0 .1 0 0zM59.2 54.1zM57.2 53.9zM58.6 53.7zM58.5 53.6zM57.2 53.8zM58.1 53.7zM60.5 53.7zM60.2 54s0 .1 0 0c0 .1 0 .1 0 0zM60.2 54.1zM60.5 54.1zM60.4 54.1zM59.4 54.2H59.7l.1-.1v.1c0-.1 0 0 0 0l.1-.1v.1s0-.1.1-.1v.1-.1.1-.1h.1H59.3s0-.1-.1 0H57.8s-.7-.1-.9.1v.1s0-.1 0 0c.1 0 .1.1.1.1h.8c0 .1.1 0 .1 0H58.8c.5-.3.5-.2.6-.2 0 0-.1-.1 0 0 0-.1 0 0 0 0zM60.5 54.1zM60.1 54.1zM60 54.1zM60.7 54zM61.3 54zM61.3 54zM60.6 54zM61.3 54zM61.3 54zM60.9 54zM61.2 54.1zM61.4 54.1zM61.1 54zM31.2 58.9zM29.1 58.8zM32.4 58.9s.1 0 0 0zM24.6 58.8zM27.3 58.8s-.1 0 0 0c-.1 0 0 0 0 0zM33.1 59.1zM34.4 59zM33.9 59s-.1 0 0 0c-.1 0 0 0 0 0zM33.8 59zM8.4 58.8h-.1.1zM20.6 58.7zM8.4 58.9zM32.4 59.1h-.1.1zM19.7 59.2zM8.4 58.9zM16.4 58.7zM16.2 58.7zM8.3 58.8zM13.8 58.7zM27.4 58.8c.1 0 .1 0 0 0zM25.9 59.1c-.1 0-.1 0 0 0-.1 0-.1 0 0 0zM25.6 59.1zM27.4 59.2zM27 59.2s0-.1 0 0zM24.7 59.2zM21.4 59.3H22.9s-.1 0 0 0h.5c.3 0 .3-.1.5-.1h.1-.1H25h-.1.2-.1.1s-.1 0 0 0h.1-.1.6c-.1 0 0 0 0 0h.3-.1s0 .1-.1.1h.2s-.1 0 0 0h.4c-.1 0 .1 0 0 0h.1c.2-.1 0 0 .1 0h.5-.2.5-.1.2-.1H27.7c.2 0 .2 0 .3-.1h-.1.1c.1 0 0 0 0 0h.1s-.1 0 0 0H29v.1h.1s.1 0 0 0h.2-.1c.2 0 .2-.1.3-.1h.1s.1.1.2.1h-.1.7s-.1 0 0 0H31.6s.1 0 0 0h.1s.1-.1 0-.1h.2s-.1.1 0 .1h-.1.2-.1.1c-.1 0 .2 0 .1-.1h.1c-.1 0 .1 0 0 0 0 0-.1 0 0 0h.2s-.1 0 0 0h.1-.1.2s-.1 0 0 0h.2s.1 0 0 0h.2c.1 0 0 0 0 0h.5s.1 0 0 0h.1c.1 0-.1 0 0 0H33.9h-.1.4-.1.2-.4c.1 0 0 0 0 0h-.1s.1 0 0 0h-.1.1-.4c-.1 0 .1 0 0 0h-.2.1-.1s-.1 0 0 0h-.7c.1 0-.1 0 0 0h-.1c-.1 0 0 0 0 0h-.5c.1 0-.1 0 0 0h-.5c.1 0 0 0 0 0H29.7h.1-2.4c-.1 0 0 0 0 0h-.2.1H26h.1-.5c-.1 0 .1 0 0 0h-.5c-.2 0-.3-.1-.4 0h-5s-.1 0 0 0h-.4c.1 0 0 0 0 0H16.1h.1H12.2s-3.9-.1-4.8.1h-.2c.1 0 0 0 .1.1h-.1.2s.1-.1.2 0h.2-.1.2s-.1 0 0 0H8.2c-.1 0 0 0 0 0h.2s-.1 0 0 0h.4s-.1 0 0 0h.1-.1c.3 0 .5.1.8.1h-.1 1.7s-.1 0 0 0h3c-.1 0 0 0 0 0 .2.1.3 0 .5 0h3.4-.1 1c.1 0 0 0 0 0h.7-.1.5-.1H20.3s-.1 0 0 0h.3c.7-.3.6-.2.8-.2zM27.4 59.2zM25.2 59.1zM24.7 59.2c.1 0 0 0 0 0zM28.6 59.1zM32 59.1zM31.9 59.1c-.1 0-.1 0 0 0-.1 0-.1 0 0 0zM27.8 59.1zM31.8 59.1c-.1 0-.1 0 0 0zM32.1 59.1zM29.9 59.1c-.1 0 0 0 0 0zM31.6 59.1zM32.3 59.1zM30.6 59.1zM49.3 58.9zM48.1 58.8zM50 58.9s.1 0 0 0zM45.4 58.8zM47 58.8zM50.4 59.1zM51.2 59zM50.9 59zM50.9 59zM35.8 58.8zM43 58.7zM35.8 58.9zM50 59.1zM42.5 59.2zM35.8 58.9zM40.5 58.7zM40.4 58.7zM35.8 58.8zM39 58.7zM47.1 58.8zM46.2 59.1c-.1 0-.1 0 0 0-.1 0-.1 0 0 0zM46 59.1zM46.8 59.2s0-.1 0 0zM45.5 59.2zM43.5 59.3H44.5s.1 0 0 0H44.8c.1 0 .2-.1.3-.1h.1-.1H46.5s0 .1-.1.1h.4c.1-.1 0 0 .1 0H47.2h-.1H47.4h-.1.1-.1.2c.1 0 .1 0 .2-.1h.1c.1 0 0 0 0 0H48.1s.1 0 0 0h.4v.1h.1s.1 0 0 0h.1c.1 0 .1-.1.2-.1h.1l.1.1h1.2s.1-.1 0-.1h.2s-.1.1 0 .1h-.1H50.7c-.1 0 .1 0 .1-.1h.2s.1 0 0 0h.1s-.1 0 0 0h.2c.1 0 0 0 0 0h.3s.1 0 0 0c0 0-.1 0 0 0h.4-.1.1-.4.1-.5s-.1 0 0 0h-.4c.1 0-.1 0 0 0H46.8s-.1 0 0 0h-.2c-.1 0-.2-.1-.2 0H42.7c-.1 0 0 0 0 0H41.5h.1H39.3s-2.3-.1-2.9.1h-.2c.1 0 0 0 0 .1h.1s0-.1.1 0c.1 0 0 0 0 0h-.1c.1 0 0 0 0 0h.6s-.1 0 0 0h.1c.2 0 .3.1.5.1h2.6c-.1 0 0 0 0 0 .1.1.2 0 .3 0h1.9-.1.5c.1 0 0 0 0 0H43.5h-.1.4c-.4-.3-.4-.2-.3-.2zM47.1 59.2c-.1 0-.1 0 0 0zM45.8 59.1zM45.5 59.2zM47.8 59.1zM49.8 59.1zM49.7 59.1zM47.3 59.1zM49.7 59.1c-.1 0-.1 0 0 0zM49.8 59.1zM48.5 59.1zM49.5 59.1zM50 59.1zM49 59.1zM60.7 58.9zM60 58.8zM61.1 58.9zM58.6 58.8zM59.4 58.8zM61.3 59.1zM61.7 59zM61.5 59zM61.5 59zM53.5 58.8c-.1 0-.1 0 0 0zM57.3 58.7zM53.4 58.9zM61.1 59.1c-.1 0-.1 0 0 0-.1 0 0 0 0 0zM57 59.2zM53.4 58.9c.1 0 0 0 0 0zM56 58.7zM55.9 58.7zM53.4 58.8zM55.1 58.7zM59.5 58.8zM59 59.1zM58.9 59.1zM59.3 59.2s0-.1 0 0zM57.6 59.3h.4s.1 0 0 0h.1c.1 0 .1-.1.2-.1h.6v.1h.1c0-.1 0 0 0 0h.2-.1.4c.1 0 .1 0 .1-.1h.1v.1h.1c.1 0 .1-.1.1-.1s0 .1.1.1h.6v-.1.1s.1 0 0-.1c0 0 .1 0 0 0H60.9c.1 0 0 0 0 0h.1H58.5s-.1-.1-.1 0H54.7s-1.2-.1-1.5.1v.1s0-.1.1 0H53.6c.1 0 .2.1.3.1h1.5c.1.1.1 0 .2 0h1.2s.1 0 0 0H57.1s.1 0 0 0c.3-.3.4-.3.5-.2-.1-.1-.1-.1 0 0-.1-.1-.1 0 0 0zM59.5 59.2zM58.8 59.1zM58.6 59.2zM59.9 59.1zM60.9 59.1zM60.9 59.1zM59.6 59.1zM60.9 59.1c-.1 0-.1 0 0 0zM61 59.1s-.1 0 0 0c-.1 0 0 0 0 0zM60.3 59.1c-.1 0 0 0 0 0zM60.8 59.1zM61 59.1zM60.5 59.1z"/></svg>