<svg width="48" height="48" viewBox="0 0 48 48" fill="none" xmlns="http://www.w3.org/2000/svg">
<path d="M47 9.5C47 9.89782 46.842 10.2794 46.5607 10.5607C46.2794 10.842 45.8978 11 45.5 11H3.5C3.10218 11 2.72064 10.842 2.43934 10.5607C2.15804 10.2794 2 9.89782 2 9.5C2 9.10218 2.15804 8.72064 2.43934 8.43934C2.72064 8.15804 3.10218 8 3.5 8H45.5C45.8978 8 46.2794 8.15804 46.5607 8.43934C46.842 8.72064 47 9.10218 47 9.5ZM14 38H3.5C3.10218 38 2.72064 38.158 2.43934 38.4393C2.15804 38.7206 2 39.1022 2 39.5C2 39.8978 2.15804 40.2794 2.43934 40.5607C2.72064 40.842 3.10218 41 3.5 41H14C14.3978 41 14.7794 40.842 15.0607 40.5607C15.342 40.2794 15.5 39.8978 15.5 39.5C15.5 39.1022 15.342 38.7206 15.0607 38.4393C14.7794 38.158 14.3978 38 14 38ZM29.84 23H3.5C3.10218 23 2.72064 23.158 2.43934 23.4393C2.15804 23.7206 2 24.1022 2 24.5C2 24.8978 2.15804 25.2794 2.43934 25.5607C2.72064 25.842 3.10218 26 3.5 26H29.84C30.2378 26 30.6194 25.842 30.9007 25.5607C31.182 25.2794 31.34 24.8978 31.34 24.5C31.34 24.1022 31.182 23.7206 30.9007 23.4393C30.6194 23.158 30.2378 23 29.84 23Z" fill="white"/>
</svg>