<svg version="1.1" id="Layer_1" xmlns="http://www.w3.org/2000/svg" x="0" y="0" viewBox="0 0 43 70" style="enable-background:new 0 0 43 70" xml:space="preserve"><style>.st0{fill:#fff}</style><path class="st0" d="M1.1 58.7s0-.1 0 0zM1.2 42.1v.2c.1-.1 0-.2 0-.2zM2.4 68s-.1 0 0 0c.1.1.2.2.5.4-.2-.1-.4-.3-.5-.4zM1.4 6.8V7c.1 0 .1-.1 0-.2zM1.3 27.7v-.3.3zM7.1 69.9h-.3c0-.1.1 0 .3 0zM17.1 69.7zM13.2 69.5h-.3.3zM12.8 69.5h.1-.1zM24 69c-.3 0-.5 0-.8.1l.8-.1zM28.7 1.7s.1 0 0 0zM23.7 69.3h-.2.2zM1.8 68.4l-.2-.2c-.1-.1-.1-.2-.2-.2-.1-.2-.2-.3-.2-.3.1.1.2.3.3.4.1.2.2.3.3.3zM35.5.1h.2-.2zM23.7 69.3h.2-.2zM41.3 22.8zM41.3 24.6v-.4.4zM23.2 69h-.5.5zM41.3 43.6v-.2.2zM1.3 29.1v.2-.2zM.2 16c0-.1 0 0 0 0zM.2 16.7c0-.2 0-.5-.1-.7.1.2.1.4.1.7zM.2 14.4c0 .1 0 .1 0 0 0 .1 0 .1 0 0zM.1 28.6zM.1 25.8v-.2.2zM.1 7.5z"/><path class="st0" d="M22.5 0c-2.6 0-6.1.1-8.7.1-.6.1-1.4.1-2.2.1l-.1-.1h-.7c-.3 0 .5 0 0-.1l-.3.1c-.1 0-1.8 0-.6-.1H7.2c-.6 0-.4.1-1 .1-.1-.1.3 0 .2-.1H5.1c-.4 0-.7.1-1 .2-.3.2-.6.3-.9.5-.4.1-.7.3-1.2.7l.1-.1s-.1.1-.2.1c-.1.1-.1.2-.2.3l-.1.1-.1.1c-.1 0-.1.1-.1.1.1-.1.2-.1.3-.3 0-.1.1-.1.2-.2 0 0 .1-.1.3-.2 0 .1-.1.2-.3.3-.1.1-.3.3-.2.3-.2.1-.3.3-.4.4-.1.1-.1.2-.2.3l-.1.1v.1c-.2.2-.3.3-.4.5 0 .2-.1.4-.2.6-.1.4-.2.8-.3 1.1v1.9l.1.1c0 .5 0 .5-.1.4 0 .6.1.5 0 1.2v-.3 1.5-.5c-.1.4 0 .7 0 .9 0-.1 0-.6.1-.3 0 .4.1.8 0 1.1l-.1-.4c0 .8.1.4 0 1.3.1.6 0 1.3 0 2.1v-.2c0 .3.1.5.1.7 0-.5 0-.3.1-.4-.1.6.1 1 .1 2 0 0-.1-.3 0-.5-.1-.4-.2-.4-.2-1v.7l.1.1v.6c-.1 0 0-.5 0 0 0 .6-.1.3-.1.4 0 .8.1.4.1 1.2v-.3c0 .6 0 1.4-.1 1.6 0-.1-.1-.1 0-.3-.1-.6 0 .5-.1.3.1 0 0 .8 0 1.1l.1-.1c.2 1.2-.1-.1-.1 1.2 0 .8 0-.3.1.2 0 .5-.1.7 0 1.5 0 .2-.1.6-.1.7v1.7c.1-.8-.1-.8 0-1.7l.1.3v1.9-.1c0 .9.1 1.2.1 2.1-.1.1-.1-.4-.1-.8-.1.6 0 .6 0 1.5-.1 0 0-.6-.1-.7v1c.1.1 0 .8 0 1.4 0 1.4.1 1.6.2 2.4 0 .2 0 .3-.1.2v-.4c0 .5-.1 1.1-.1.8 0 .8.1-.3.1.2v1c0-.1.1-.5.1.1v1.3c0-.1-.1.2-.1-.3v.9c0-.7 0 1.1.1.6v.7-.4c-.1.2 0 .5 0 .8V39.7c0 .3 0 0 .1.1v1c0 .1-.2.1-.2 0 0 .4.1.1.1.7-.1-.3-.1.8-.2.3-.1.2-.1 1.2 0 1.7.1.3 0-.6.1-.5 0 1.5.2 1.6.2 2.7v-.3c0 .7 0 .6.1 1-.1-.2-.2.8-.2 1.9 0 .1.1-.6.1-.5v.8-.1c0 .7-.1 1.3 0 1.5l-.1.7v-.3c0 .1.1.9.1 1v1.5c0-.1.1-.5.1.1-.1 0 0 1.3-.1 1.3v.7H.3c.1.1.1 1 .1 1.6-.2-.2 0 .8-.1 1.1.1.1 0 1.2.1 1.3 0 .5-.1.5-.1.6v.2c0 .3-.1 1.3-.1 1.9l.1.6v.2c0 .1 0 .5.1.3v.3c.1 0 0 .4.1 1 0 .1 0 .1-.1 0 0 .3-.1.2-.1.3 0-.1.1.2.1.4 0 .1.1.2.1.2V64.7c0-.1.1.4.1.7 0 .1 0 .1-.1.2l.1.2.1.2c0 .1.1.2.1.3 0 .1 0 .2.1.2 0 .1 0 .1.1.2 0 .1.1.2.1.2 0-.1-.1-.2-.1-.3 0-.1-.1-.1-.1-.1v.1s0 .1.1.2c0 0 0 .1.1.1 0 0 .1.1.1.2l-.3-.6c0-.1-.1-.2-.1-.2 0-.1-.1-.1-.1-.2.1.2.1.3-.1 0 .1.2.1.3.1.4 0 .1.1.1.1.1 0 .1.1.1.3.5 0 0-.1.1 0 .2s.2.4.4.7c0-.1-.1-.2-.1-.2l-.1-.2.1.1c-.1-.2-.1-.2-.1-.3 0 0 .1.1.1.2.1.1.1.2.2.3.1.2.3.4.3.4-.2-.4 0-.1.3.2l.2.2c.1.1.1.1.2.1.1.1.1.1.1 0 0 0 .2.1.3.2-.2-.1-.1 0-.1 0-.3-.2-.2-.1-.1.1.1.1.2.1.2.2.1 0 .1.1.1.1.1 0 0 0-.1-.1s-.2-.1 0-.1l.8.4h-.2c.2.1.4.2.6.2.1 0-.1-.1-.2-.1s-.1-.1.2 0h.4c.2 0 .3 0 .3.1-.1 0-.2 0-.2.1h-.4H5.4h-.1.5c-.1 0-.4 0-.5-.1-.1 0-.1 0 0 0h.4l.6-.1h.6c.1 0 .3 0 .3.1.7 0 .6 0 .7-.1.4 0 .5 0 .3.1H10c.7 0-.1 0 .3-.1.6.1 2.3.1 3.4 0-.3-.1.3 0 .5-.1-.2 0 1.1.1.1.1h.6c.4.1-1 .1-.4.1.7 0 1.1-.1 1.9-.1-.3.1.6 0 .4.1h-.6.1c1.5 0 .4-.1 1.2-.2.9 0 .7.1.8.1h.8c-.6.1-1-.1-.8-.1.4.1 1.3 0 1.6 0-1.3-.1-.9 0-2.1-.1-.2 0-.1.1-.9.1.5 0 0 0-.2-.1.1.1-.5 0-.7 0-.2 0 .4-.1-.3-.1l-.1.1c-.3 0 .1-.1-.5-.1.3-.1-.1-.1.7-.1-1-.1-1.5.1-2.3.1h.2-.7c-.5 0 .4-.1.3-.1H12c.2 0 .3-.1.5-.1l-.9.1c.1 0-.7-.1-.1-.1h-1.3l-.1-.1h.1c-.4 0-2 .1-1.7 0-1 .1-1.4 0-2.6.1.9-.1-1.1-.1-.1-.1H4.5h.4-.6c-.2 0-.3 0-.5-.1h.1-.1s-.1 0-.2-.1h-.1c-.1-.1-.2-.1-.3-.2.1.1-.2 0-.5-.2-.1-.1-.2-.2-.4-.3.2.1.1.1 0 0 .1-.2-.1-.3 0-.2l-.3-.3c-.1-.1-.2-.2-.4-.5v.1c-.1-.2-.2-.3-.2-.3v-.1s.1 0-.1-.3v.1c-.1-.2-.2-.5-.2-.7 0-.2-.1-.4-.1-.6v-1.2c0 .5.1.3.1.3 0-.7 0-1.8-.1-2.5 0-.3 0-.3.1-1.1 0-.5 0-.6-.1-.8V57.8H.9c.1-.9-.1-1.5 0-2.5v.2-.4c0-.1 0 .1.1.1v-1.8.4c0-.4-.1-.6 0-1.1.1.7 0-.6.1-.7v.4c0-.5 0-.5-.1-.5 0-.7.1-.5 0-1.1v.4c0 .1-.1-.2-.1-.5V49c0-.3.1-.2.1 0v-2.1l.1-.6v.2-1.1.2c0-1.1.1-1.2 0-2.3v.2c-.1-.9.1-.7 0-1.7 0 .1 0 0 0 0v-.4h.1l-.1-.4.1-.3v-.2c.1-.5 0-1.1.1-1.7l-.1.1c-.2-1.6.1-3.6 0-5.6h.1V33c.1-.4.1.3.1.1 0-.8-.1-.4-.1-1.3 0-.5 0 .2.1.4 0-.9-.1-2.3 0-2.9 0 0 0-.1 0 0v-2.1.4-.8l.1.3v-1.6c0 .1-.1 0-.1-.4.1-.2 0-1.2 0-1.9v.5c0-.4 0-.7-.1-1v.1l-.1-1.7c.1-.2 0-1.6.1-1.5 0-.6 0 .5-.1-.3v-.7.1-.5l.1.3c0-.5-.1-.8-.1-.8 0-.4 0-1 .1-1.2v.2c0-1.2.2-2 .1-3v.1-.8.2L1.3 12V8.8 9 7v.1-.8.2V5.6c0-.1 0-.2.1-.3V4.5c.3-.4.3-.5.4-.5v-.1l.1-.2c.1-.2.2-.3.3-.5.1-.1.2-.2.5-.4l.3-.3c.1-.1.2-.2.4-.3l-.1.1c.3-.2.6-.3.8-.4.2-.1.4-.1.6-.2H5.7c1.1 0 1.9-.1 3-.1.2.1.2 0 .9.1v-.1c1.5 0 3.2.1 4.9.1v.1l.3-.1h5.5c.5 0 1.2-.1 1.9-.1h-.1c1.3 0 2.7-.1 4.1 0-.1 0 .1 0-.1.1.3-.1.8 0 1.1 0h-.4c.4-.1 1 0 1.2 0l.6-.1h.2l.3.1c.2 0 1 0 1.3-.1.1 0 .7 0 .2.1h2.3-.4c0-.1.7-.1 1-.1-.5 0 0 .1.2.1.3 0-.3-.1-.1-.1.4 0 1.2-.1 1.4 0h-.2c.5 0 .8.1 1.3.1s.8 0 .7-.1c.7 0 .3.1.5.1h.7c.1 0 .2.1.3.1.1 0 .2.1.2.1.1 0 .2 0 .4.1s.3.1.5.2c.3.2.6.5.6.5l.2.2c0 .1.1.1.1.2 0 0 .2 0 .4.3.1.2.1.2.1.3v.1c.1 0 .2.1.2.1.2.5.3 1.1.3 1.6v2.2c0 1.5 0 3-.1 4.3 0 1.2.1 2.7.1 4.2V16v1.4l.1-1v.8c0 1.5-.1 3.6 0 5.5.1 1.2-.1.8 0 2v-.2c0 1.3.1 2 .1 3.2-.1-.1 0 .8-.1.7l.1.1c0 .3 0 1-.1.9l.1.6h-.1c0 .7 0 2.4-.1 2.7.1 1.8.1 4.8 0 7.1 0 .3.1 1 .1 1.5l-.1.6c0 .5.1 1.1.1 1.6v-.1V45c0 .6 0 1.2-.1 1 .1.1 0 1.3 0 1.3s-.1 7.7-.1 16.3v1.6c0 .4-.1.9-.3 1.2-.2.4-.4.7-.7 1-.3.3-.7.5-1.1.7-.4.2-.8.2-1.2.2h-4.7c-3.9.1-7.3.2-9.2.3-.3.1-1 .1-.7.2-.5 0-.8-.1-.9 0 .7 0-.2.1.5.2h-.5.5l.1-.1c.4 0 .6 0 .7.1.4 0 .6-.2 1.4-.1h-.2c.7 0 .4.1.6.1h-.2l.6.1h-.8.4c.4 0 .3 0 .3.1h.7-.2l.9-.1c.2.1.9-.1 1.3.1-.6 0 .1 0 0 .1H30h-.2.6c.1 0 1.1 0 1.1.1 1 .1.4-.1 1.4-.1.1 0-.8 0-.3.1h1c-.1 0-.2.1-.6.1 1.3 0 2.4.1 3.4.2h1.5c.6 0 1.2-.1 1.8-.4.2-.1.1 0 0 .1-.1 0-.2.1-.2.1-.1 0-.2.1-.2.1.5-.2.8-.4 1.2-.6l.9-.6c.3-.2.5-.5.7-.7.2-.3.4-.6.5-1l.3-.9v-6.2.3c0-.3-.1-.9-.1-1.2 0-.1.1.3.1-.4 0 .1 0 .4-.1.3.1-2 .1-6.3.2-9.7 0-4.5.1-9.4 0-13.9 0 .7-.1.4-.1-.1.2-1.4 0-2.4.1-3.9-.1-2.6.1-4.9 0-7.3h.1v-3.3H43v-.8l-.1-.6c.1.1 0-1.5.1-1.9 0-.7-.1-2 0-3 .1-.2.1-1.5.1-2.3V5.9H43V5.3s0-.1 0 0c0-.2 0-.6-.1-.9-.1-.3-.2-.7-.3-.9.1.3.2.4.3.7v.2l-.1-.1c-.1-.1-.1-.4-.3-.7-.1-.1-.1-.3-.2-.4 0-.1-.2-.5-.1-.5-.6-.9-1.3-1.4-2-1.8-.8-.4-1.6-.6-2.7-.7.2-.1-1.3 0-.9-.1-1.1 0 .2.1-.3.2h-.7c.1 0-.2-.1 0-.1h-.7.2c-1.5.1-2.6-.1-3.9 0-.1 0 .5 0 .4.1-1.3.1-1.2-.1-2.4 0l.3-.1c-.4 0-.6.1-1.2 0-.3-.1.4-.1.7-.2-.4 0-1.6 0-1.2.1-.5 0-.7 0-1-.1 0 0 .5 0 .2.1h-2.8s-.1 0 0 0c-.8 0-.7-.1-1.7-.1zM.1 28.9V28.3v.6z"/><path class="st0" d="M.2 11.8v-.1c-.1 0-.1.1 0 .1zM0 7.6v-.1c.1 0 .1 0 0 .1zM.3 38.6s0-.1 0 0c0 0 0 .1 0 0zM.3 65.6v-.1.1zM.3 64v-.3.3zM.3 32.1v-.3c-.1.2-.1.3 0 .3zM.3 63.4V63v.4zM.4 66.1c0-.2-.1-.4-.1-.5 0 .2.1.3.1.5zM.4 48.5c-.1-.3-.1-.2 0 0zM.2 61.8c0-.1 0-.1 0 0v-.2.2zM1.1 67.7c0-.1-.1-.1-.1-.2 0 .1.1.2.1.2zM.3 54.1c0 .1 0 .1.1.1l-.1-.1zM36.5 58.7zM33.3 58.5zM38.5 58.8h.1-.1zM26.3 58.3zM30.4 58.5zM39.5 59.4zM41.5 59.2zM40.7 59.1zM40.6 59.1c.1 0 .1 0 0 0 .1 0 0 0 0 0zM1 58.5c-.1 0-.1 0-.2.1l.2-.1zM20 58.3zM.9 58.9zM38.5 59.5h-.2c.1.1.1.1.2 0zM18.7 59.9c-.1 0 0 0 0 0zM.9 58.9c.1 0 .1 0 0 0 .1 0 .1 0 0 0zM13.4 58.3zM13.1 58.2zM.9 58.6c-.1 0-.1 0 0 0zM9.3 58.3s.1 0 0 0c.1 0 0 0 0 0zM30.7 58.5zM28.1 59.6zM28.2 59.5s-.1 0-.1.1c0 0 .1 0 .1-.1zM27.8 59.6zM30.6 59.6zM30 59.7c0-.1 0-.1 0 0 0-.1 0-.1 0 0zM26.4 59.7z"/><path class="st0" d="M21.2 60c.5 0 1.2-.1 1.7-.1.1-.1.3-.1.4-.1v.1h.1c.1 0-.1 0 0 .1l.1-.1s.4 0 .1.1h.5c.1 0 .1-.1.2-.1v.1c.4.1.5-.2.8-.2h.2c0-.1-.1.1-.2 0 0-.1.1-.1.1-.1h.2c.1.1.3 0 .4.1.1 0 .1-.1.3-.1.1.1 0 .1.1.1v-.1c.1 0 .1 0 .1.1.1 0 .1-.1.2 0l-.1.1h.3-.1c.1.1.1 0 .2 0 0 0-.1 0-.1-.1.1 0 .2-.1.2 0l.1-.2c.2 0 .1-.1.3 0 .1-.1.3 0 .4 0 .1 0 .1-.1.1-.1-.1 0-.1 0-.1-.1.1.1.2-.1.4-.1 0 0-.1.1-.1 0-.1.1-.1.2-.2.2h.1v-.1h.1c0-.1-.1-.1 0-.1s.1.1.1.1c.2 0 .1-.1.2-.1h-.1c.1 0 .3 0 .3.1 0 0 0 .1-.1 0-.1.1.1 0 .1.1 0-.1.2 0 .2 0v-.1c.2-.2 0 .1.2.1s-.1 0 0-.1c.1 0 .1.1.3 0l.1.1h.3c-.2-.1-.2.1-.3 0l.1-.1h.4c.2 0 .2-.1.4-.1 0 .1-.1.1-.2.1.1.1.1 0 .3 0 0 .1-.1 0-.1.1h.2c0-.1.1 0 .3 0 .3 0 .3-.1.5-.2 0 0 .1 0 0 .1h-.1c.1 0 .2.1.2.1.2 0-.1-.1 0-.1h.2s-.1-.1 0-.1h.3s0 .1-.1.1h.2c-.1 0 .2 0 .1-.1h.1-.1c0 .1.1 0 .2 0h.4c.1 0 0 0 0-.1h.2v.2c.1 0 0-.1.1-.1-.1.1.2.1.1.2.1.1.3.1.4 0 .1-.1-.1 0-.1-.1.3 0 .3-.2.5-.2h-.1c.1 0 .1 0 .2-.1 0 .1.2.2.4.2l-.1-.1h.1c.1 0 .2.1.3 0l.1.1h-.1l.2-.1h.3s-.1-.1 0-.1c0 .1.3 0 .2.1h.1v.1c0-.1.2-.1.3-.1 0 .2.1 0 .2.1 0-.1.2 0 .3-.1.1 0 .1.1.1.1.1 0 .2.1.4.1l.1-.1s.1 0 .1-.1h.1c0-.1.1 0 .2-.1v.1c.1 0 0 .1.1.1 0 0 .2-.2.1-.2l.1-.1v.1l.1-.1c.1 0 .1 0 .2.1-.1 0-.2.2 0 .2-.1 0-.2.1-.2.1s.1 0 0 .1c.2 0 .1-.1.2-.1 0 .1 0 .1.2.1l-.1-.1-.1-.1.2-.1c-.1-.1.3-.1.2-.2h.1c-.1.1.1.1.1.1s-.1-.1 0-.1.1 0 .2.1h.1s-.1-.1 0-.1h.1c-.1.1 0 .1-.1.1.1 0 .3 0 .2-.1h.1c-.1 0-.2-.1 0-.1l.1-.1h.2s.1 0 .1.1c.1 0 .1 0 .1-.1.1 0 .1 0 .1.1h.4c.1 0 0 0 .1-.1.1.1.5.1.7 0-.1-.1.1 0 .1-.1 0 0 .2.1 0 .1h.1c.1.1-.2.1-.1.1s.2-.1.4-.1c-.1.1.1 0 .1.1h-.1c.3 0 .1-.1.2-.2.2 0 .1.1.2.1h.2c-.1.1-.2-.1-.2-.1.1.1.3 0 .3 0-.3-.1-.2 0-.4-.1 0 0 0 .1-.2.1.1 0 0 0 0-.1 0 .1-.1 0-.1 0s.1-.1-.1-.1v.1c-.1 0 0-.1-.1-.1.1-.1 0-.1.1-.1-.2-.1-.3.1-.5.1h-.1c-.1 0 .1-.1.1-.1H40.4l.1-.1-.2.1s-.1-.1 0-.1H40v-.1c-.1 0-.1 0 0 0-.1 0-.4.1-.3 0-.2.1-.3 0-.5.1.2-.1-.2-.1 0-.1-.1 0-.1.1-.2.1s0-.1 0-.1h-.2c-.1 0 0-.1-.1-.1v.1h-.1l-.1.1h-.1c.1 0-.1 0 0-.1h-.2c-.2 0 0-.1-.2-.1v.1c-.2-.1-.4.1-.5 0 .1 0 .1-.1.1-.1-.1 0-.4 0-.5.1-.1-.1-.1-.1-.2-.1s-.1 0-.2.1h-.4v.1c-.2-.1-.3.1-.5 0h-.1v-.1h-.4.1c-.1 0-.1.1-.2 0 .1-.1-.1 0-.1-.1h.1c-.1 0-.1 0-.1.1-.1 0-.1-.1-.2 0h.1s0 .1-.1.1c0 0-.1 0 0 0h-.3c-.1 0 0-.1 0-.1h-.4l-.1-.1h-.2c-.2 0-.2-.1-.4 0s-.1-.1-.3 0h-.1V58l-.1.1-.1-.1c-.1-.1-.2 0-.3-.1v.1c-.3.2-.7-.1-1.1 0v-.1l-.2.1c-.1-.1.1-.1 0-.1-.2 0-.1.1-.3.1-.1 0 0 0 .1-.1-.2 0-.5.1-.6 0h-.4.1-.2l.1-.1h-.3s0 .1-.1.1c0-.1-.2 0-.4 0h.1c-.1 0-.1 0-.2.1l-.3.1c0-.1-.3 0-.3-.1-.1 0 .1 0-.1.1h-.2l.1-.1c-.1 0-.2.1-.2.1-.1 0-.2 0-.2-.1-.2 0-.4-.2-.6-.1h-.1l-.2.1H26c-.1.1-.3-.1-.2 0-.1 0-.2.1-.2.1-.2 0 0 0-.1-.1-.1 0-.1.1-.3 0H25c-.2.1-.2-.1-.3 0-.1 0-.2 0-.2-.1-.2 0-.4.1-.6.1 0-.1 0 0-.2-.1v.1c-.3 0-.6-.1-1-.1v-.1l-.1.1h-1.1c-.1 0-.2.1-.4.1-.3 0-.5.1-.8 0v-.1c-.1.1-.2 0-.2 0h.1c-.1.1-.2 0-.2 0v.4l-.1-.1s-.2 0-.2.1c0 0-.1 0 0-.1h-.5.1c0 .1-.1.1-.2.1.1 0 0-.1 0-.1-.1 0 .1.1 0 .1s-.2.1-.3 0c-.1 0-.2-.1-.3-.1-.1 0-.2 0-.1.1-.1 0-.1-.1-.1-.1H18c-.1.1-.4-.1-.4.1l-.1-.1s0 .1-.1.1-.1-.1-.1-.1l-.1.1c-.5-.1-1.1 0-1.7-.1-.2 0-.5.1-.8.1h-.3l.2.1h-.2c-.3 0-.7-.1-1.1 0-.2.1-.2-.1-.4 0-.3 0-.4.1-.6.1 0-.1-.2 0-.1-.1v.1c-.1 0-.2 0-.2-.1v-.2c-.1 0-.5 0-.5-.1-.4.1-.9.1-1.4 0-.1 0-.2.1-.3.1l-.1-.1c-.1 0-.2.1-.3.1h-.3c-.1 0-.2 0-.2-.1 0 .1-.3 0-.3 0s-6.1-.2-7.6.4c0 .1-.2.1-.1.2-.1 0-.2-.1-.2 0 .1 0 0 .1.1.2H.7h.1v-.1c.1 0 .1 0 .1.1.1 0 .1-.2.3-.1.1 0 .1.1.1.1l.1.1h-.2.1c.1 0 .1 0 .1.1h.1s-.1 0 0 0l.2-.1c0 .1.2-.1.3.1-.1 0 0 0 0 .1h.3s-.1 0 0 0h.1s.2 0 .2.1c.2.1.1-.1.3-.1 0 0-.1 0-.1.1H3s0 .1-.1.1c.5.1.8.3 1.3.3.1.1 0 0-.1.1.3-.1.5.1.8.1.4.1.9.1 1.4.1h-.1c.1 0 .2-.1.2-.1s-.1.1.1.1c0 0-.1 0-.1-.1.4.1 1.3.1 1.9.2.9 0 1.9.1 2.7 0-.1 0-.1-.1 0-.1.3.2.5 0 .8.1.5-.1 1 .1 1.4 0v.1h.7v-.1h.2l.1-.1c0 .1.3 0 .4.1.1 0 .4-.1.6 0 0 .1.3.1.5.1h1.2v-.1h.1c.1.1.2 0 .3 0-.1-.1-.1 0-.1 0-.1 0 0-.1.1-.1h.1c0 .1.1.1.1.1.3 0 .6-.1.9-.1 0 .1.3 0 .2.1.2 0 0-.1.1-.2h.1v.1h.1c.3-.1.5.1.8 0 0 0-.1 0-.1-.1.3-.1.2.1.5 0l-.1.1c.1 0 .1-.1.2 0 0 .1-.1.1-.2.1.1 0 .3 0 .2-.1.1 0 .1 0 .2.1 0 0-.1 0 0-.1h.5c.2-.1.1 0 .3 0zM30.7 59.7h-.1.1zM27.3 59.6zM26.5 59.7c-.1 0-.1 0 0 0zM32.6 59.5zM37.9 59.5zM37.6 59.4zM31.3 59.5zM37.5 59.5c-.1 0-.1 0 0 0zM38 59.5c-.1 0-.1 0 0 0-.1 0-.1 0 0 0zM34.5 59.4zM37.1 59.6zM38.3 59.6zM35.6 59.5c.1 0 .1 0 0 0zM16.9 51.5s-.1 0 0 0zM19.5 51.7zM15.2 50.9zM25.1 51.9c-.1 0-.1 0 0 0zM21.8 51.8s0-.1 0 0c0-.1 0-.1 0 0zM15.1 49.9c0 .1 0 0 0 0zM14.5 48.6zM14.4 49.2c0 .1.1.1 0 0 .1.1.1 0 0 0zM14.5 49.3zM13.9 47.7v.1-.1zM28.8 48zM14.2 47.9zM15.7 50.3c.1 0 .1.1.1 0h-.1zM26.9 47.7zM14.2 47.9c.1 0 0 0 0 0zM23.7 45.5zM23.4 45.5zM13.9 47.9zM20.4 45.5zM21.5 51.7zM23.6 50.6zM23.5 50.7s.1 0 .1-.1c0 0-.1 0-.1.1zM23.9 50.7s-.1 0 0 0c-.1 0 0 0 0 0zM21.6 50.6zM22.1 50.6zM25 50.5z"/><path class="st0" d="M27.1 49.1v.4c0 .1-.1.3-.2.4v.1s0 .1-.1.1l-.1-.1v.1-.1.1h-.1s-.1 0 0-.1c0 0-.1 0-.1.1 0 0-.1 0-.1.1-.1 0 0 .1-.1.1v-.1h-.1s0 .1-.1.1c0 .1-.1.1-.2.1h-.1c0 .1 0-.1.1 0 0 .1-.1.1-.1.1h-.2c-.1-.1-.2 0-.3-.1 0 0-.1.1-.2.1-.1-.1 0-.1-.1-.1v.1c-.1 0-.1 0-.1-.1-.1 0-.1.1-.2 0l.1-.1h-.2.1c-.1-.1-.1 0-.1 0s.1 0 .1.1c-.1 0-.1.1-.2 0l.1-.1c-.1 0-.1.1-.2 0-.1.1-.2 0-.3 0-.1 0-.1.1-.1.1.1 0 .1 0 .1.1-.1-.1-.2.1-.3.1 0 0 0-.1.1 0 .1-.1.1-.2.2-.2H24v.1h-.1c0 .1.1.1 0 .1s-.1-.1-.1-.1c-.1 0-.1.1-.2.1s-.2 0-.3-.1c0 0 0-.1.1 0 .1-.1-.1 0-.1-.1 0 .1-.1 0-.2 0v.1c-.2.2 0-.1-.2-.1-.1 0 0 0 0 .1-.1 0-.1-.1-.2 0l-.1-.1h-.3c.1.1.1-.1.3 0v.1h-.3c-.1 0-.2.1-.3.1 0-.1.1-.1.1-.1-.1-.1-.1 0-.2 0 0-.1.1 0 .1-.1h-.2c0 .1-.1 0-.2 0-.2 0-.3.1-.4.2v-.1h.1c-.1 0-.2-.1-.1-.1-.1 0 0 .1 0 .1H21s.1.1 0 .1h-.2v-.1h-.1c.1 0-.2 0-.1.1h-.1.1c0-.1-.1 0-.1 0h-.2v.1h-.2v-.2c-.1 0 0 .1-.1.1.1-.1-.1-.1 0-.2-.1-.1-.2-.1-.3 0-.1.1.1 0 .1.1-.2 0-.3.2-.4.2-.1 0-.1 0-.2.1 0-.1-.1-.2-.3-.2l.1.1h-.1c-.1 0-.2-.1-.2 0l-.1-.1s-.1.1-.2.1h-.2s.1.1 0 .1c0-.1-.2 0-.2-.1h-.1v-.1c0 .1-.2.1-.3.1 0-.2-.1 0-.2-.1 0 .1-.1.1-.1.1s-.1 0-.1.1c-.1 0-.1-.1-.1-.1 0-.1-.2-.1-.2-.1l-.1.1s-.1 0-.1.1-.1 0-.2 0v-.1l-.1.1s-.1.1 0 .1h-.1v-.1s-.1 0-.1.1c-.1 0-.1-.1-.1-.1.1 0 .2-.1.1-.2h.2-.1v-.2.2h-.1c0 .1 0 .1-.1.1H16s-.1 0-.1-.1c.1 0 0-.1.1-.1v.1-.2s0 .1-.1.1c0 0-.1-.1 0-.1s.1-.1.1-.1-.1 0-.1-.1h-.1s0 .2-.1.1h-.1v-.1h-.1v-.1c-.1-.1-.1 0-.1 0V50s0-.1-.1-.1v-.1c-.1-.1 0 0-.1 0v-.5c-.1.1 0 0-.1-.1 0 0 .1-.2.1 0v-.1c.1-.1.1.1.1 0s-.2-.1-.1-.3v.1c0-.2-.1-.1-.2-.2 0-.1.1-.1.1-.1v-.1c0 .1-.1.1-.1.1.1-.1 0-.2 0-.2-.1.2 0 .1-.1.3 0 0 .1 0 .1.1 0-.1 0 0-.1 0v.1s-.1-.1-.1.1h.1s-.1 0-.1.1c-.1 0-.1 0-.1-.1-.1.2.1.2.1.3 0 0 0 .1.1.1 0 .1-.1 0-.1 0v.2h-.1l.1.1s0 .1-.1 0v.2h-.1v.1l.1.1c0 .1.1.1 0 .1.1.1.1.2.3.3-.1 0-.1 0-.1.1 0 0 0 .1 0 0 0 .1.1.1.2.1 0 .1-.1.1-.1.1h.2v.1h.1v.1h.2c-.1 0 .1.1 0 .1.1 0 .1 0 .2.1v-.1c.2 0 0 .1.1.1v-.1c.1.1.1.1.2.1s.1 0 .2.1c-.1 0-.1.1-.1 0 .1 0 .3.1.4 0 0 .1 0 .1.2.2h.1c.1 0 .3 0 .3.1h.2v-.1c.1.1.2-.1.4 0h.1v.1h.3-.1c.1 0 .1-.1.2 0-.1.1.1 0 .1.1h-.1c.1 0 .1 0 .1-.1.1 0 .1.1.2 0h-.1s0-.1.1-.1h.3v.1h.4l.1.1h.2c.2 0 .2.1.4 0 .1-.1.1.1.3 0h.1v.1l.1-.1v.1c.1.1.2 0 .3.1v-.1c.3-.2.6.1.9 0v.1l.1-.1c.1.1 0 .1 0 .1.1 0 .1-.1.2-.1s0 0-.1.1c.1 0 .4-.1.5 0h.3-.1.1v.1h.3s0-.1.1-.1c0 .1.2 0 .3 0h-.1c.1 0 .1 0 .2-.1l.3-.1c0 .1.3 0 .2.1.1 0-.1 0 0-.1h.2l-.1.1c.1 0 .1-.1.1-.1.1 0 .2 0 .2.1.2 0 .3.2.5.1h.1l.2-.1h.9c.1-.1.3.1.2 0 .1 0 .1-.1.2-.1s0 0 .1.1h.7c.1 0 .1 0 .2-.1h.2c.1 0 .1-.1.1-.1s.1 0 .1-.1c.1 0 .2-.1.3-.2.1.1 0 0 .2 0 0 0 .1 0 .1-.1 0 0 .1 0 .1-.1.1 0 .2-.1.2-.1.2-.1.3-.2.4-.4h.1v-.1l.1-.1.1-.1c.1-.1.1-.2.2-.3.1-.2.2-.4.2-.5v-1.1h.1v-.2.1c-.1-.1 0-.2 0-.3h-1.2s0-.1.1-.1c0 0-.1-.2-.2-.2v-.1c0-.1 0-.2-.1-.2 0-.1-.1-.2-.1-.2v.1l-.2-.2c.1.1.1 0 .1-.1-.1 0 0 .1-.1.1l-.1-.1-.1-.1-.1-.1s0-.1-.1-.1-.1-.1-.2 0c-.1 0-.1-.1 0-.1-.1 0-.2-.2-.2-.2-.1 0-.1 0-.2-.1.2-.3.2-.3.1-.3 0 0 0-.1-.1-.1 0 0-.1.1-.2 0s0-.1 0-.2l-.1.1c-.2-.2-.5-.3-.8-.3h-.7c-.2 0-.4.1-.7.1h-.2l.2.1h-.1c-.2 0-.6-.1-.9 0-.2.1-.1-.1-.3 0-.2 0-.3.1-.5.1 0-.1-.1 0-.1-.1v.1s-.2 0-.1-.1l-.1.1v-.1c-.1 0-.4 0-.4-.1-.3.1-.8.1-1.1 0-.1 0-.2.1-.2.1l-.1-.1c-.1 0-.2.1-.3.1h-.2c-.1 0-.2 0-.2-.1 0 .1-.2 0-.2 0s-1.2-.1-2.6-.1h-1.2c-.2 0-.5.1-.7.2-.2.1-.4.2-.6.4-.3.3-.6.6-.7.9-.1.3-.2.6-.1.8 0 .1 0 .2.1.1-.1.1-.2.1-.1.1.1-.1.1.1.2 0v.1-.1h-.1c0-.1.1-.1.1-.1 0-.1-.1-.2 0-.3 0-.1.1 0 .1-.1l.1-.1c-.1.1 0 .2 0 .1.1-.1 0 0 0-.1s.1 0 .1 0v-.1s0 .1 0 0v-.1c.1 0 .1 0 .1-.1 0 0 0-.1.1-.1 0 .1 0 0 .1.1 0-.1.1-.1.1-.2 0 0 0 .1 0 0 .1 0 0-.1 0-.1s.1-.1.2-.1c.1-.1 0-.1.1-.2 0 0-.1.1 0 .1l.1-.1v.1c.2-.1.3-.1.5-.1h1c.3.1.7.1 1.1.1.1 0 .1-.1.2-.1 0 0 0 .1.1.1 0 0-.1 0-.1-.1.3.1 1 .1 1.5.2.7 0 1.5.1 2.2 0-.1 0-.1-.1 0-.1.2.2.4 0 .6.1.4-.1.8.1 1.2 0v.1h.5v-.1h.1l.1-.1c0 .1.2 0 .3.1.1 0 .3-.1.5 0 0 .1.2.1.4.1h.7v-.1h.1c0 .1.1 0 .1.1 0-.1 0 0-.1 0 0 0 0-.1.1 0h.1v.1c.1 0 .2 0 .2.1h.1l.1.1c-.1 0 .1.1 0 .1.1 0 .1-.1.1-.1s.1 0 0 .1c0 0 0 .1-.1 0l.1.1s.1 0 .1.1V47.7v-.1c.1 0 .1.1 0 .1v.1H27s.1 0 .1.1c-.1 0-.1 0-.1-.1 0 0 0 .1.1.1v.1s0-.1.1 0v.4c0 .6-.1.6-.1.7zM21.6 50.6s0-.1 0 0zM24.3 50.6zM24.9 50.5c.1 0 .1 0 0 0zM20 50.7zM16 50.5zM16.2 50.7zM21.1 50.7zM16.2 50.7c.1 0 .1 0 0 0 .1 0 .1 0 0 0 .1 0 .1 0 0 0zM15.9 50.5c.1 0 .1 0 0 0 .1 0 .1 0 0 0zM18.5 50.8zM16.5 50.6zM15.8 50.3zM17.6 50.7s0 .1 0 0c0 .1 0 .1 0 0zM15.2 36.9c.1 0 .1 0 0 0 .1 0 .1 0 0 0zM17.1 36.4zM15.1 38.5v.1-.1zM22.8 36.6zM19.4 36.5s.1 0 0 0c.1 0 0 0 0 0zM14.5 39.3zM15.5 40.8zM15.1 40.2s0 .1 0 0zM15 40.2c.1 0 .1 0 0 0 .1 0 .1 0 0 0zM16.4 40.2s-.1 0-.1.1l.1-.1zM27.2 36.8c0 .1 0 .1 0 0zM16.3 40.6zM14.4 38.4v-.1.1zM28.8 37.4c0 .1 0 0 0 0zM16.3 40.6zM26.5 39.9zM26.2 39.9c.1 0 .1 0 0 0 .1 0 0 0 0 0zM16.2 40.3zM23.2 39.9zM19.2 36.5zM21.3 35.4zM21.2 35.4s.1 0 .1-.1c0 .1 0 .1-.1.1zM21.6 35.4zM19.3 35.3zM19.8 35.3zM22.7 35.3z"/><path class="st0" d="M27.1 35h-1.6c-.1.1-.2.1-.4.1V35H25s.1 0 0-.1v.1s-.3 0-.1-.1h-.4c-.1 0-.1.1-.2.1v-.1c-.3-.1-.4.2-.7.2h-.1c0 .1.1-.1.1 0s-.1.1-.1.1h-.2c-.1-.1-.3 0-.3-.1-.1 0-.1.1-.2.1-.1-.1 0-.1-.1-.1v.1c-.1 0-.1 0-.1-.1-.1 0-.1.1-.2 0l.1-.1h-.2.1c-.1-.1-.1 0-.1 0s.1 0 .1.1c-.1 0-.1.1-.2 0l.1-.1c-.1 0-.1.1-.2 0-.1.1-.2 0-.3 0-.1 0-.1.1-.1.1.1 0 .1 0 .1.1-.1-.1-.2.1-.3.1 0 0 0-.1.1 0 .1-.1.1-.2.2-.2h-.1v.1h-.1c0 .1.1.1 0 .1s-.1-.1-.1-.1c-.1 0-.1.1-.2.1h.1c-.1 0-.2 0-.3-.1 0 0 0-.1.1 0 .1-.1-.1 0-.1-.1 0 .1-.1 0-.2 0v.1c-.2.2 0-.1-.2-.1-.1 0 0 0 0 .1-.1 0-.1-.1-.2 0l-.1-.1h-.3c.1.1.1-.1.3 0v.1h-.3c-.1 0-.2.1-.3.1 0-.1.1-.1.1-.1-.1-.1-.1 0-.2 0 0-.1.1 0 .1-.1h-.2c0 .1-.1 0-.2 0-.2 0-.3.1-.4.2v-.1h.1c-.1 0-.2-.1-.1-.1-.1 0 0 .1 0 .1h-.2s.1.1 0 .1h-.2v-.1h-.1c.1 0-.2 0-.1.1h-.1.1c0-.1-.1 0-.1 0h-.2v.1h-.2v-.2c-.1 0 0 .1-.1.1.1-.1-.1-.1 0-.2-.1-.1-.2-.1-.3 0-.1.1.1 0 .1.1-.2 0-.3.2-.4.2-.1 0-.1 0-.2.1 0-.1-.1-.2-.3-.2l.1.1h-.5c-.1 0-.1-.1-.2-.1h.1l-.2.1c-.1.1-.2.1-.3.1 0 0 .1 0 0 .1 0-.1-.1 0-.2 0-.5.3-.5.4-.5.4l-.1.1-.1-.1c.1.1 0 .2-.1.4-.1-.1-.1 0-.1 0s0 .1-.1.1c.1.1 0 .3.1.3 0 .1-.1.1-.1.1v.1s0 .1-.1.2v.2l.1.1s0 .1.1 0c.1 0 0 .1.1.2h-.1s-.1 0-.1.1c0 0 .2.2.2 0l.1.1h-.1l.1.1c0 .1 0 .1-.1.2 0-.1-.2-.1-.2 0 0-.1-.1-.1-.1-.2h-.1c0 .1.1 0 .1.2-.1 0-.1 0-.1.1l.1-.1h.1s.1.1.1.2c.1-.1.1.2.2.1v.1c-.1-.1-.1.1-.1.1s.1-.1.1 0 0 .1-.1.1v.1s.1-.1.1 0v.1c-.1 0-.1 0-.1-.1 0 .1 0 .3.1.2v.1s.1-.2.1 0l.1.1v.1h-.1c0 .1 0 .1.1.1v.5c.1.1 0 0 .1 0-.1.1 0 .2 0 .3l.3.3c0-.1.1 0 .2 0v.1s0 .1-.1 0l.1.1c0 .1 0 0-.1 0h-.1c.1.1.1.1.2.1s.1 0 .2.1c-.1.1.1 0 .1.1h-.1c.1.1.2.1.2 0 0 0 0-.1.1-.1.2 0 .1.1.1.1h.2-.1V41c0 .1.1.1.2.1s.1 0 .2-.1c-.7 0-.8 0-.8-.1 0 0-.1 0-.2-.1 0 0-.1.1-.2 0 .1 0 0 0 0-.1 0 .1-.1 0-.1 0 0-.1.1-.1 0-.1l-.1.1v-.1h.2c0-.1-.1-.1-.2-.1s-.1 0-.2-.1c0 0-.1 0-.1-.1s.1 0 .1 0l-.1-.1s-.1 0 0-.1h.1s-.1 0-.1-.1c0 0 0-.1.1-.1 0-.1-.1-.1-.1-.2h.1s-.1-.1-.1-.2v-.1h.1c0-.1 0-.1-.1-.2V39c.1.2.1-.2.1 0H15c0-.1.1 0 .1 0v-.2c0-.1.1 0 .1-.1h-.1v-.1l-.1-.1v-.1c0 .1 0-.1.1 0v-.2c0-.1.1 0 .1-.1h-.1c.1-.2-.1-.3 0-.4 0 .1.1.1.1.1 0-.1 0-.3-.1-.4.1 0 .1-.1.1-.2s0-.1-.1-.1c0-.1 0-.2.1-.2v-.1h-.1s.1 0 .1-.1v-.2h.1v-.1.1c0-.1.1-.1.1-.1h-.1s0-.1.1-.1c0 .1 0 0 0 0h.1v-.1c.1-.1.1.1.1 0v-.1h.2v.1H16.1l.1.1h.2c.2 0 .2.1.4 0s.1.1.3 0h.1v.1l.1-.1v.1c.1.1.2 0 .3.1v-.1c.3-.2.6.1.9 0v.1l.1-.1c.1.1 0 .1 0 .1.1 0 .1-.1.2-.1s0 0-.1.1c.1 0 .4-.1.5 0h.3-.1.1v.1h.3s0-.1.1-.1c0 .1.2 0 .3 0h-.1c.1 0 .1 0 .2-.1l.3-.1c0 .1.3 0 .2.1.1 0-.1 0 0-.1h.2v.3c.1 0 .1-.1.1-.1.1 0 .2 0 .2.1.2 0 .3.2.5.1h.1l.2-.1h.9c.1-.1.3.1.2 0 .1 0 .1-.1.2-.1s0 0 .1.1c.1 0 .1-.1.2 0h.2c.1-.1.2.1.3 0 .1 0 .2 0 .2.1.2 0 .3-.1.5-.1 0 .1 0 0 .1.1v-.1c.2 0 .5.1.8.1v.1l.1-.1h.9s.1 0 .1-.1h.1c.1 0 .2 0 .2.1h.1v.1h.1l-.1.1h.1s0 .1 0 0v.1c.1 0 .1 0 .1.1h-.1c0 .1 0 0 .1 0 0 .1.1.2 0 .2 0 .1-.1.1-.1.2s0 .1.1.1c0 .1-.1 0-.1.1v.2c.1.1-.1.3.1.3l-.1.1s.1 0 .1.1-.1.1-.1.1h.1c-.1.2-.1.4-.1.7v.2s0 .1-.1.1v.1s0 .1-.1.1h-.1v.1h-.4c-.2.1-.1-.1-.3 0-.2 0-.3.1-.5.1 0-.1-.1 0-.1-.1v.1s-.2 0-.1-.1l-.3.2v-.1c-.1 0-.4 0-.4-.1-.3.1-.8.1-1.1 0-.1 0-.2.1-.2.1l-.1-.1c-.1 0-.2.1-.3.1H23c-.1 0-.2 0-.2-.1 0 .1-.2 0-.2 0s-5-.3-6.2.3c0 .1-.2.1-.1.2-.1 0-.1-.1-.1 0 .1 0 0 .1.1.2h-.1.1v-.1c.1 0 .1 0 .1.1.1 0 .1-.2.2-.1.1 0 .1.1.1.1l.1.1h-.1.1c.1 0 0 0 0 .1h.1s-.1 0 0 0l.1-.1c0 .1.2-.1.2.1-.1 0 0 0 0 .1h.2s-.1 0 0 0h.1s.2 0 .2.1c.2.1.1-.1.2-.1 0 0-.1 0-.1.1h.2s0 .1-.1.1c.4.1.7.3 1.1.3.1.1 0 0-.1.1.3-.1.4.1.6.1.3.1.7.1 1.1.1.1 0 .1-.1.2-.1 0 0 0 .1.1.1 0 0-.1 0-.1-.1.3.1 1 .1 1.6.2.7 0 1.5.1 2.2 0-.1 0-.1-.1 0-.1.2.2.4 0 .6.1.4-.1.8.1 1.2 0v.1h.6v-.1h.2c.1 0 .1-.1.1-.1 0 .1.1 0 .2 0 .1-.1.2-.1.3-.1.1-.1.2-.1.3-.2 0-.1.1-.1.1-.2 0 0 0-.1.1-.1 0 0 0-.1.1-.1l.1-.1.1-.1c.1-.1.1-.2.2-.3V39.2h-.1v-.1c.1-.1 0-.2 0-.3-.1 0 0 .1 0 .1 0 .1-.1 0-.1-.1v-.1c.1 0 .1-.1.1-.1 0-.3-.1-.5-.1-.8.1 0 0-.2.1-.1 0-.2-.1 0-.2-.1v-.1h.1v-.7c0-.1 0-.2-.1-.2v.2c0-.1-.1-.1-.1-.2v-.2s-.1-.1-.1-.2h.1l-.1-.1s-.1-.1-.1-.2h.1l.1.1c0-.1-.1-.1-.2-.2s-.1-.1-.1 0c-.1 0-.1-.1-.1-.1s0-.1-.1-.1c0 0 .1.1 0 .1-.1-.1-.2-.2-.3-.2-.1-.1-.2-.1-.4-.2-.1 0-.1 0-.2-.1l-.1-.1c.3-.1.2-.1.2-.1zM19.2 35.3c.1 0 .1 0 0 0zM22 35.3z"/><path class="st0" d="M22.7 35.2c-.1 0 0 .1 0 0 0 .1 0 0 0 0zM17.7 35.5c0-.1 0 0 0 0zM14.4 38c0-.1 0 0 0 0zM14.5 37.7zM18.7 35.4s.1 0 0 0zM14.5 37.6zM14.4 38zM16.1 35.5zM14.4 37.4zM14.4 38.3zM15 35.9s0 .1 0 0c0 .1 0 0 0 0zM23.1 62.4zM22 61.6zM23.6 63c0 .1 0 .1 0 0zM19.1 62.3zM20.8 61.5s-.1 0 0 0c0 .1 0 0 0 0zM23.2 63.6zM23.5 64.2zM23.6 63.9zM23.6 63.9zM24.2 64.5zM18.3 65.1zM23.9 64.5zM22.9 63.4s0 .1 0 0zM19.9 65zM23.9 64.5zM20.3 67.3c-.1 0-.1 0 0 0zM20.4 67.5zM24.2 64.5c-.1 0 0 0 0 0zM22.2 67.4zM20.9 61.5zM20.4 62.8c0 .1 0 .1 0 0zM20.3 62.9zM21 62.7zM20.9 62.7zM20.1 63.2z"/><path class="st0" d="M19.9 64.5c0-.1 0-.1 0 0 0-.1 0-.1 0 0 0-.1 0-.2-.1-.2v-.1c-.1 0-.1-.1-.1-.1h.2-.1s.1-.1.1 0V64s-.1-.1 0-.1h.1c.1 0 0-.1 0-.1 0-.1-.1-.1 0-.1v-.1c-.1-.1 0 0 0 0-.1-.1 0-.1-.1-.1v-.1c.1 0 .1-.1.1 0 0 0-.1-.1 0-.1s0 .1.1 0h.1v-.1.1l.1-.1c.1 0 0 0 0-.1l-.1-.1s0-.1 0 0v.1-.1c0-.1.1 0 .1-.1v-.1l-.1-.1c.1.1 0-.1.1-.1 0 0 0 .1 0 0 0 .1.1.2.1.2s0-.1 0 0v-.1c0-.1-.1-.1-.1-.1s.1.1 0 0v-.1s.1-.1.1 0c0 0 0 .1 0 0 0 .1 0 0 .1.1v-.2c0-.2.1.1.1.1v-.1s.1.1.1 0c0 0 .1 0 .1.1-.1 0 0 .1-.1 0v-.1s.1-.1.1 0c0 0 0-.1.1-.1v.1h.1v.1c0-.1 0 0 .1 0s.1-.1.1-.2v.1l.1.1v-.1h.1v-.1h.1v.1h.1s.1 0 0-.1c0 .1 0 0 0 0v.1-.1h.1v.2s0-.1.1-.1v.2c0 .1.1.1.1.1v-.1c.1 0 .1-.2.2-.1.1 0 0 0 .1-.1v.2-.1s0 .1.1 0v.1-.1h.1c.1 0 .1 0 .1.1 0 0 0-.1.1-.1-.1.1 0 .1 0 .1s0 .1 0 0v.1c.1-.1.1-.1.2 0-.1.1 0 0 0 .1.1-.1.1 0 .1 0s0 .1-.1.1v.2h.2c.1-.1 0 0 .1 0l-.1.1.2-.1h.1l-.3.1h.1v.1s-.2.1-.1.1h-.1.1c-.1 0-.1.1-.1.1v-.1h.1c.1-.1.1 0 .2 0-.1 0-.1.1-.1.1s0-.1.1-.1v.1s0-.1.1 0c-.1 0-.1.1-.1 0 0 0 .1.1.1 0l.1-.1h.1-.1.1v.1h.1c-.1.1 0 .1 0 .2h.1s-.1.1-.1 0c-.1 0-.1-.1-.1 0 0 0 .1 0 .1.1h-.1c0 .1.1 0 .2.1 0 .1-.1 0-.1.1-.1 0 .1-.1.1 0-.1 0 0 .1 0 .1.1-.1 0-.1.1-.1h-.1.2-.1.2c.1-.1-.1-.1-.1-.1h.1v-.1h.1-.1s.1-.1.1 0v-.1h.1s-.2-.1 0-.1c0 0-.1 0-.1-.1l-.1-.1c.1 0 .1-.1.1-.1 0-.1-.1 0-.1 0s.1-.1.1 0h-.2c0-.1.1 0 .1-.1h-.2c.1 0 0 0 0 0l-.1-.1c-.1 0 .1 0 0-.1 0-.1-.1-.1-.1-.2h.1s-.1-.1-.2-.1c0-.1.1-.1 0-.2h-.1c0-.1-.1-.1-.1-.1h-.1c0-.1 0-.1-.1-.1 0 0-.1 0-.1-.1v-.1h-.2v.1h-.1c.1 0 0 0 0-.1h-.1c-.1 0 0-.1-.1-.1 0 0-.1.1-.1 0 0 0-.1-.1-.1 0v-.1h-.1v-.1h-.1c-.1 0-.1-.1-.2-.1-.1.1 0-.1-.1 0v-.1.1-.1c0-.1-.1 0-.1-.1v.1h-.2c-.1 0-.2-.1-.2 0v-.1l-.1.1v-.1c-.1 0 0 .1-.1.1v-.1c-.1 0-.2.1-.3.1H20.5v-.1s-.1.1-.1 0v.1c-.1-.1-.1.1-.2 0 0 0-.1 0-.1.1l-.1.1c-.1-.1-.1.1-.1 0 0 0 .1 0 0 .1h-.1v-.1.1H19.5c-.1 0-.1 0-.1.1h-.1v.1c-.1 0-.1.1-.2.2 0 .1-.1.1-.1.1v.1c0 .1-.2.1-.1.1v.1c0 .1 0 0-.1 0 0 0 0 .1-.1.1v.1c0 .1-.1 0 0 .2 0 0-.1.1-.1 0v.3c-.1 0 0 0-.1.1h.1c0 .1-.1.1-.1.2s-.1.1-.1.2h-.1.1c0 .1-.1.2-.1.3v.2s.1.1.1.2v.4h-.1c.1 0 0 .1 0 .1.1 0 0 .1 0 .1h.1-.1l.1.1s0 .1-.1 0v.2c.1 0 .1 0 .1.1-.1 0-.1 0-.1.1h.1l.1.1v.1c.1 0 0 .1.1 0V66.2c.1 0 0 .2.2.1v.1h.1c0 .1-.1.1-.1.1h.1c0 .1 0 .1.1.2 0 .1.1.1.1.2s.1.1.1.2.1.1.1.2c.1 0 .1 0 .2.1h.1s.1 0 .1.1l.1.1-.1-.1h.1c0 .1.1.1.2.2 0 0 .1 0 .1.1h.1c.2-.1 0 .1.2.1.1 0 .2 0 .3-.1 0 .1.1 0 .1.1v-.1l.1.1.1-.1v.1h.1c.1 0 .1 0 .1.1.1 0 .2 0 .3-.1h.4c0-.1.1-.1.1-.1l.1.1.1-.1s.1 0 .1-.1c.1 0 .1 0 .1.1v-.1h.2s.1 0 .1-.1c.1 0 .1 0 .2-.1.3-.1.6-.4.9-.7.3-.3.5-.7.5-1.1v-.5c0-.1 0-.1-.1-.2 0-.1-.1-.1-.1-.2-.1 0-.1-.1-.2-.1 0 0 .1-.1 0-.1 0 .1-.1 0-.2 0h.1l-.1.1s.2.1.1.1c0 .1-.1 0-.1 0h-.1v-.1c0 .1 0 0 0 0h-.1v.1c-.1 0 0 .1-.1.1h-.1v.1s0 .1-.1.1.1.1 0 .1c0 0 0-.1-.1 0v.1s-.1 0-.1-.1c-.1.1-.2.1-.2.1-.1 0-.1.1-.2.1s0 0-.1-.1c0 .1 0 .1-.1.1h-.1c-.1 0-.1 0-.2.1l-.1.1h-.1v.1s-.1-.1-.1 0h.1-1.2v.1c0-.1-.1-.1-.1-.1h-.5v-.1H20v.1s0-.1 0 0h-.1v-.1h-.1v-.1s-.1 0-.1-.1l-.1-.1h-.1c.1-.1-.1 0 0-.1 0 0-.1.1-.1 0l.1-.1s-.1 0-.1-.1c0 0-.1 0-.1-.1.1 0 0 0 .1-.1-.1 0-.1 0-.2.1h.1v-.2c-.1 0 .1-.1 0-.1h.1-.1.1s0-.1-.1 0v-.1h-.1c.7.1.6.1.7 0-.1 0 .1 0 0 0zM21.1 62.7c-.1 0-.1 0 0 0zM20.2 63zM20.1 63.3c0-.1 0-.1 0 0 0-.1 0-.1 0 0zM21.6 62.5zM22.8 63.3zM22.9 63.2zM21.2 62.5zM22.8 63.1zM22.9 63.3s-.1 0 0 0c-.1 0-.1 0 0 0zM22.2 62.6c-.1 0-.1 0 0 0zM22.7 63.2zM22.9 63.4zM22.4 62.8zM23.5 5.5zM23.1 5.3zM23.8 5.6zM22.1 5.1zM22.7 5.3zM24 6.2zM24.2 6.1c0-.1 0-.1 0 0 0-.1 0-.1 0 0zM24.1 5.9zM24.1 5.9zM18.5 5.3s-.1.1 0 0zM21.2 5.1zM18.4 5.7zM23.8 6.3c0 .1 0 0 0 0 0 .1 0 .1 0 0zM21 6.7zM18.4 5.7c.1 0 .1 0 0 0 .1 0 .1 0 0 0zM20.2 5.1zM20.2 5zM18.4 5.4zM19.6 5.1c.1 0 .1 0 0 0 .1 0 .1 0 0 0zM22.7 5.3zM22.4 6.3c-.1 0-.1.1 0 0-.1.1-.1.1 0 0zM22.3 6.4zM22.6 6.5c0-.1 0-.1 0 0 0-.1 0 0 0 0zM22.1 6.5z"/><path class="st0" d="M21.3 6.8c.1 0 .2-.1.2-.1 0-.1 0-.1.1-.1v.2-.1s.1 0 0 .1h.1v-.1.1c.1.1.1-.2.1-.2 0-.1 0 .1 0 0v-.1c0 .1 0 0 .1.1v-.1.1-.1.1s0-.1 0 0v.1c0 .1 0 0 0 0v-.1s0-.1 0 0v.1s0-.1 0 0c0-.1 0 0 .1 0v-.2c0 .1 0-.1.1-.1 0 0 0 .1 0 0v.2-.2.1-.1.1s0 .1 0 0v.1c0-.1 0 0 0 0v-.1.1-.1s0 .1 0 0v.1c0-.1 0 .1 0 0v-.1h.1s0-.1.1-.1v.1c0 .1 0 0 0 0v.1c0-.1 0 0 0 0s0-.1.1-.2v.2-.2.1-.1c0 .1 0 0 0 0v-.1.2-.1.2c0 .1 0 .1.1 0v-.1s0-.2.1-.2v-.1c0 .1 0 .2.1.2v-.1s0 .1 0 0v.1-.2.2-.1.1-.1.1s0 .1.1.1V6.2v.2V6.1v.1-.1.5-.1.1-.5.1-.1.1-.1.1V5.9 6v-.1.1h.1v-.1c0 .1.1.1.1 0v-.1.2s0-.1.1-.1V6v-.2.1-.1c0 .1 0 0 0 0 0-.1 0 0-.1-.1v.1-.1c0 .1 0 0 0 0v-.1.1-.2c0-.1 0 .1-.1.1v-.2.1-.2s-.1.1 0 0c0 .1 0 0-.1.1v-.1.1-.2.2-.2.1c0-.1-.1.1-.1 0v-.1s-.1 0-.1.1v-.1.2c0-.1 0 .1-.1 0v-.1h-.1s0 .1 0 0v-.1.1s0-.1 0 0v.1-.2s0-.1-.1 0c0 .1 0-.1 0 0v-.1.1V5v.1c0 .2-.1-.1-.2 0V5v.1V5v.1V5s-.1.1-.1 0h-.1v-.1.1c0-.1 0 0-.1 0v.2-.1.1-.1.1-.1s-.1-.2-.1-.1v.1h-.2c0 .1 0-.1 0 0v.1-.1s0 .1 0 0c0 .1 0-.1 0 0V5l-.1.1V5v.1l-.1-.1v-.1.1h-.2s0 .1-.1.1c0 0-.1.1-.1 0V5c0 .1 0 0 0 0 0 .1 0 0 0 0v.1V5v.1V5h-.1v.1V5v.1s0 .1 0 0V5v.1V5c0 .1-.1-.1-.1.1V5v.1V5v.1c-.1-.1-.2 0-.2-.1l-.1.1v.1s-.1-.1-.2 0c0 .1 0-.1-.1 0l-.1.1v-.1.1-.1.1-.1s-.1 0-.1-.1c-.1.1-.1.1-.2 0v.1-.1.1-.1c0 .1 0 0 0 0s-.9-.3-1.1.3v.2s0-.1 0 0v.2-.1.1-.1V6v-.1V6.2v-.1.2c.1.1.1.3.2.3v.1c.1-.4.2-.2.2-.2.1.1.1.1.2.1v-.1.1-.1c.1.1.2.1.3.2.1 0 .3.1.4 0v-.1c0 .2.1 0 .1.1.1-.1.1.1.2 0v.1h.1v-.2c0 .1 0 0 .1.1 0 0 .1-.1.1 0s0 .1.1.1h.2v-.1c0 .1 0 0 0 0 0-.1 0 0 0 0v-.1.1l.1-.1v.1-.2.1c0-.1.1.1.1 0v-.1c0-.1 0 .1.1 0v.1s0-.1 0 0v.1-.1.1-.1c.1.1.2.1.2.2 0-.1 0-.1 0 0 0-.1 0 0 0 0zM22.7 6.5zM22.2 6.4zM22.1 6.5zM23 6.3zM23.7 6.3zM23.7 6.2zM22.8 6.3zM23.7 6.3zM23.7 6.3c0 .1 0 .1 0 0zM23.3 6.2c-.1 0-.1 0 0 0zM23.6 6.4zM23.8 6.4zM23.4 6.3zM23.3 19.6zM22.1 18.8zM23.8 20.3zM19 19.6c.1 0 0 0 0 0zM20.8 18.7zM23.4 20.9zM23.7 21.5zM23.8 21.2zM23.8 21.2zM24.4 21.9c.1 0 0-.1 0 0zM18.2 22.4zM24.1 21.8zM23.1 20.7s0-.1 0 0zM19.9 22.4zM24.1 21.8c0 .1 0 .1 0 0 0 .1 0 .1 0 0zM20.3 24.8zM20.4 24.9c0 .1 0 0 0 0zM24.4 21.8zM22.3 24.9zM20.9 18.7zM20.4 20s0 .1 0 0c0 .1 0 .1 0 0zM20.3 20.1zM21.1 19.9zM20.9 19.9zM20.1 20.5z"/><path class="st0" d="M19.9 21.8c-.1-.1-.1-.1 0 0 0-.1 0-.2-.1-.2v-.2c-.1 0-.1-.1-.1-.1h.2-.1s.1-.1.1 0v-.1s-.1-.1 0-.1h.1c.1 0 0-.1 0-.1 0-.1-.1-.1 0-.1v-.1c-.1-.1 0 0 0 0-.1-.1 0-.1-.1-.1v-.1c.1 0 .1-.1.1 0 0 0-.1-.1 0-.1s0 .1.1 0h.1v-.1.1l.1-.1c.1 0 0-.1 0-.1l-.1-.1s0-.1 0 0v.1-.1c0-.1.1-.1.1-.1V20l-.1-.1c.1.1 0-.1.1-.1 0 0 0 .1 0 0 0 .1.1.2.1.2s0-.1 0 0v-.1c0-.1-.1-.1-.1-.1s.1.1 0 0v-.1s.1-.1.1 0c0 0 0 .1 0 0 0 .1 0 0 .1.1v-.2c0-.2.1.1.1.1v-.1s.1.1.1 0c0 0 .1 0 .1.1-.1 0 0 .1-.1 0v-.1s.1-.1.1 0c0 0 0-.1.1-.1v.1h.1v.1h.1c0-.1 0 0 .1 0s.1-.1.1-.2v.1l.1.1v-.1h.1v-.1h.1v.1h.1s.1 0 0-.1c0 .1 0 0 .1 0v.1-.1h.1v.2s0-.1.1-.1v.2c0 .1.1.1.1.1v-.1c.1 0 .2-.2.2-.1.1 0 0 0 .1-.1v.2-.1c.1 0 0 .1.1.1v.1-.1h.1c.1 0 .1 0 .1.1 0 0 0-.1.1-.1-.1.1 0 .1 0 .1s0 .1 0 0v.1c.1-.1.1-.1.2 0-.1.1 0 0 0 .1.1-.1.1 0 .1 0s0 .1-.1.1v.2h.2c.1-.1 0 0 .1 0l-.1.1.2-.1h.1l-.1.1h.1v.1s-.2.1-.1.1h-.1.1c-.1 0-.1.1-.1.1v-.1h.1c.1-.1.1 0 .2 0-.1 0-.1.1-.1.1s0-.1.1-.1v.1s0-.1.1 0v.1c-.1 0-.1.1-.1 0 0 0 .1.1.1 0l.1-.1h.1-.1.1v.1h.1c-.1.1 0 .2 0 .2h.1s-.1.1-.1 0c-.1 0-.1-.1-.1 0 0 0 .1 0 .1.1h-.1c0 .1.1 0 .2.1 0 .1-.1 0-.1.1v.1c-.1 0 .1-.1.1-.1-.1 0 0 .1 0 .1.1-.1 0-.1.1-.1 0 0-.1 0-.1-.1h.2-.1.2c.1-.1-.1-.1-.1-.1h.1v-.1h.1-.1s.1-.1.1 0V21h.1s-.2-.1 0-.1c0 0-.1 0-.1-.1.1 0 0-.1.1-.1 0-.1-.1 0-.1-.1 0 0 .1-.1.1 0h-.2c0-.1.1 0 .1-.1h-.2c.1 0 0 0 0 0l-.1-.1c-.1 0 .1 0 0-.1 0-.1-.1-.1-.1-.2h.1s-.1-.1-.2-.1c0-.1.1-.1 0-.2h-.1c0-.1-.1-.1-.1-.1h-.1c0-.1 0-.1-.1-.1 0 0-.1 0-.1-.1v-.1h-.6v.1h-.1c.1 0 0 0 0-.1h-.1c-.1 0 0-.1-.1-.1 0 0-.1.1-.1 0-.1 0-.1-.1-.1 0v-.1h-.1v-.1h-.1c-.1 0-.1-.1-.2-.1-.1.1 0-.1-.1 0v-.1h.1v-.1c0-.1-.1 0-.1-.1v.1h-.2c-.1 0-.2-.1-.3 0v-.1l-.1.1v-.1c-.1 0 0 .1-.1.1v-.1c-.1 0-.2.1-.3.1H20.6v-.1c-.1 0-.1.1-.2 0v.1c-.1-.1-.1.1-.2 0 0 0-.1 0-.1.1l-.1.1c-.1-.1-.1.1-.1 0-.1 0 .1 0 0 .1h-.1V19v.1H19.5c-.1 0-.1 0-.1.1h-.1l-.1.1c-.1 0-.1.1-.2.2 0 .1-.1.1-.1.1v.1c0 .1-.2.1-.1.1v.1c0 .1 0 0-.1 0 0 0 0 .1-.1.1v.1c0 .1-.1 0 0 .2l-.1.1v.3c-.1 0 0 0-.1.1h.1c0 .1-.1.1-.1.2-.1.1-.1.1-.1.2h-.1.1c0 .1-.1.2-.1.3v.3s.1.1.1.2v.4h-.1c.1 0 0 .1 0 .1.1 0 0 .1 0 .1h.1-.1l.1.1s0 .1-.1 0v.2c.1 0 .1 0 .1.1-.1 0-.1 0-.1.1h.1l.1.1v.1c.1 0 0 .1.1 0v.1l.1.1v.1c.1 0 .1.2.2.1v.1h.1c0 .1-.1.1-.1.1h.1c0 .1 0 .1.1.2 0 .1.1.1.1.2s.1.1.1.2.1.1.1.2c.1 0 .1.1.2.1h.1s.1 0 .1.1l.1.1-.1-.1h.1l.2.2.1.1h.1c.2-.1 0 .1.2.1.1 0 .2 0 .3-.1 0 .1.1 0 .1.1v-.1l.1.1.1-.1v.1h.1c.1 0 .1 0 .1.1.1 0 .2 0 .3-.1h.4c0-.1.1-.1.1-.1l.1.1.1-.1s.1 0 .1-.1c.1 0 .1 0 .1.1 0-.1 0-.1.1-.1h.2s.1 0 .1-.1c.1 0 .1 0 .2-.1.3-.1.6-.4.9-.7.3-.3.5-.8.6-1.2v-.4c0-.1 0-.1-.1-.2 0-.1-.1-.1-.1-.2-.1 0-.1-.1-.2-.1 0 0 .1-.1 0-.1 0 .1-.1 0-.2 0 0 0 0 .1 0 0h.1l-.1.1s.2.1.1.1c0 .1-.1 0-.1 0h-.1v-.1c0 .1 0 0 0 0h-.1v.2c-.1 0 0 .1-.1.1 0-.1 0 0-.1 0V22.7s0 .1-.1.1c-.1.1.1.1 0 .1 0 0 0-.1-.1 0v.1s-.1 0-.1-.1c-.1.1-.2.1-.2.1-.1 0-.2.1-.2.1-.1 0 0 0-.1-.1 0 .1 0 .1-.1.1h-.1c-.1 0-.1 0-.2.1l-.1.1h-.1v.1s-.1-.1-.1 0h.1-.2s-.1 0-.1.1H20.9v.1c0-.1-.1-.1-.1-.1h-.5v-.1h-.1v.1s0-.1 0 0h-.1v-.1h-.2v-.1s-.1 0-.1-.1l-.1-.1h-.1c.1-.1-.1 0 0-.1 0 .1 0 0 0 0s-.1.1-.1 0l.1-.1s-.1 0-.1-.1c0 0-.1 0-.1-.1.1 0 0-.1.1-.1-.1 0-.1 0-.2.1h.1v-.2c-.1 0 .1-.1 0-.1h.1s-.1 0-.1-.1h.1s0-.1-.1 0v-.1h-.1c.5-.2.5-.3.6-.4-.1.1-.1.1 0 0-.2 0 0 0 0 0zM21.1 19.9zM20.2 20.2c0 .1 0 .1 0 0 0 .1 0 .1 0 0zM20.1 20.5zM21.7 19.7zM23 20.5zM23.1 20.4zM21.3 19.7zM23 20.4zM23.1 20.6s-.1 0 0 0c-.1 0-.1 0 0 0zM22.3 19.8zM22.9 20.4zM23.1 20.7zM22.6 20zM26.6 17.2zM23.2 15.3c0-.1 0-.1 0 0zM28.1 19s0 .1.1.1c-.1 0-.1 0-.1-.1zM15.3 17.5zM19.8 15.1c0 .1-.1.1 0 0-.1.1 0 .1 0 0zM28 20.4c.1-.1.1-.1 0 0 0-.1 0-.1 0 0zM28.7 22.4zM28.8 21.5c-.1 0 0 0 0 0zM28.7 21.5zM29.5 23.5c0-.1 0-.1-.1-.2l.1.2zM13.3 24.9zM29.1 23.4zM27.4 19.4c-.1 0-.1-.2-.1-.1l.1.1zM15.2 25.9zM29.1 23.4c0 .1 0 .1 0 0zM18.5 30.9zM18.9 31.1c-.1 0-.1 0 0 0-.1 0-.1 0 0 0zM29.4 23.3v-.1.1zM23.6 31.2s-.1 0 0 0c-.1 0 0 0 0 0zM20.1 15.1zM17.7 17.2zM17.8 17l-.1.1s.1 0 .1-.1zM17.4 17.3zM20.2 16.3zM19.6 16.4zM16.4 18.3z"/><path class="st0" d="M14.8 23.3V21.8c0-.1 0-.1.1-.2-.1-.1 0-.3 0-.5h.1V21c.1 0 0 .1.1 0v-.1l.1-.1c0-.1.1-.1.1.1.1-.2.1-.3.2-.5.1-.1-.1-.1 0-.2v.1c.1-.2.1-.3.1-.4v-.2c0-.1.1-.1.1-.2s.1-.2.1-.2c-.1 0 0 .1-.1.2-.1-.1 0-.2 0-.2.1-.1.1-.1.1-.2 0 0 .1 0 .1-.1l.1-.1c.1-.1.1-.1.2-.1 0-.1 0-.2.1-.3.1 0 0 .1.2 0v-.1c.1-.1.1-.1.1 0 .1-.1 0-.1.1-.2v.1l.2-.2s0 .1-.1.1c.1 0 .1-.1.1-.1s-.1.1-.1 0c.1 0 .1-.2.2-.2v.1c.1-.1 0-.1.2-.2 0-.1.2-.2.4-.3 0-.1 0-.1.1-.1h-.1c.2 0 .1-.2.3-.3 0 0 0 .1-.1.1 0 .1 0 .2-.1.3l.1-.1v-.1s.1 0 .1-.1-.1 0-.1-.1c.1-.1.1 0 .1 0 .1-.1 0-.1.2-.2H18c.1 0 .3-.2.3-.1v.1c-.1.1.1-.1.1 0 0 0 .1-.1.2-.1.2-.3 0 .1.3 0 .1-.1-.1 0 0-.1.1 0 .2 0 .3-.1.1 0 .1 0 .2.1 0 0 .1 0 .2-.1.1 0 .1 0 .1-.1-.2 0-.1.1-.3.1v-.1c.1 0 .3-.1.4-.1 0 0 .1 0 .1-.1 0 0 .1 0 .1-.1.1 0 .1-.1.2-.1 0 .1-.1.1-.1.1H20.4c0 .1-.1 0-.1.1.1 0 .1 0 .2-.1 0-.1.2 0 .3-.1.3 0 .3-.2.5-.3 0 0 .1 0 0 .1h-.1.1s.1.1 0 .1c.2 0-.1 0 0-.1h.2s-.1-.1 0-.1h.3s0 .1-.1.1H22c.1 0 .1 0 .1-.1l-.1.2h-.1c0 .1.1 0 .2 0 0 0 .2 0 .2.1 0 0 .2 0 .2.1.1 0 0 0 0-.1h.2v.2c.1 0 .1-.1.2-.1-.1.1.1.1 0 .2.1.1.3.1.4.1.1 0-.1-.1-.1-.1h.6-.1.2v.2c.1.1.2.1.3.2 0 0-.1-.1 0-.2l.2.1c.1 0 .1.1.2.1s.1.1.1 0l.1.2v-.1h.2c.2 0 .2.1.3.2 0 0 0-.1.1-.1-.1.1.2.2.2.2l.1.1-.1.1c.1-.1.2 0 .4.1-.1.1.1.1.1.2.1-.1.2.1.3.1.1.1 0 .1 0 .2h.1s0 .1.1.2c0 .1.1.1.1.2h.1v.1s.1.1.1 0v.1c.1-.1.1 0 .2.1v.1c0-.1.3.1.2-.1 0 0 .1 0 .1.1v.1h.1c.1.1 0 .1.1.2-.1-.1-.2 0-.1.1-.3-.2-.3-.2-.4-.2 0 0 0 .1 0 0 .1.1.1 0 .2.1-.1 0-.1.1 0 .2v-.2s.2.1.2.2c0-.2.2.2.2.1l.1.1c-.1-.1 0 .1-.1.1 0 0 0-.1.1-.1V19.8s0-.1.1 0c0 0 .1.1 0 .1h-.2s.1.1.1.2.1.1.1 0v.1c0-.1 0-.3.1-.1l.1.1v.1l.1.1v.1l.1.1v.1c0 .1.1.3.1.4.1.1 0 0 .1 0-.1.1 0 .2 0 .3 0 .1 0 .1.1.2v.2c.1-.1 0 .1.1.1 0 0-.1.2-.1 0v.1c-.1.1-.1-.2-.2-.1 0 .1.1.1.1.2s.1.1.1.2v.1-.1c0 .3.1.1.2.2 0 .2-.1.2-.1.2v.2c-.1-.1 0-.2.1-.2-.1.1 0 .3 0 .3v-.2s0-.1.1-.2c0 0-.1 0-.1-.2.1.1 0 0 .1 0v-.1s.1.1.1-.1h-.1c0-.1.1 0 0-.1.1.1.1 0 .1.1v-.3c0-.1-.1-.1-.1-.2 0 0 0-.1-.1-.1 0-.1.1.1.1 0V21.3l.1.1-.1-.2s0-.2.1 0l-.1-.3h.1c0-.1 0-.1 0 0 0-.1-.3-.4-.1-.4-.1-.1-.1-.2-.1-.2s0-.1-.1-.1c0 0-.1-.1-.1-.2.2.2 0-.3.1-.1 0-.1-.1-.1-.2-.2 0-.1.1-.1.2 0l-.1-.1-.1-.1c0-.1.1-.1 0-.2h-.1v-.1s-.1 0-.1-.1H28c.1.1 0-.1 0-.1 0-.1 0-.1-.1-.2v.1c-.2-.2.1 0 0-.2 0-.1-.1-.2-.2-.3l-.2-.2c.1.1.1 0 .1 0l-.1-.1-.1-.1c-.1-.1-.2-.1-.2-.2s0-.1-.1-.3c-.1-.1-.1-.1-.2-.1 0-.1-.1-.1-.2-.2-.1 0-.1-.1-.1-.1-.1 0-.1-.1-.2-.1v.1c0-.1-.1-.2-.2-.2s-.2-.1-.2-.2h-.1.1l-.2-.1-.2-.1v.1c-.1 0-.2 0-.2-.1.1 0 .1 0 0 0s-.1-.1-.1-.1h.1c-.1-.1-.1-.1-.1 0-.2-.1 0-.2-.2-.2 0 0 .1 0 .1.1h-.1s0-.1 0 0c-.1 0-.3-.2-.3-.2-.1 0 0-.1 0-.1-.1 0-.2 0-.2-.1 0 0-.1 0-.2-.1h-.1l-.1-.1v.1H24h.1c-.1 0-.2-.1-.3-.1-.1 0-.1-.1-.3-.1-.2 0-.1-.1-.4-.1H23V15.2c0-.1-.1-.1-.2-.1h-.1s-.1 0-.1-.1v.1h-.3c-.1 0-.2 0-.3-.1-.1 0-.2 0-.3-.1h-.4v-.1l-.3.2c-.1 0 .1-.1 0-.1-.2 0-.1.1-.3.1-.1 0 0-.1.1-.1-.2 0-.5.1-.7.1-.1.1-.3.1-.5.1l.1-.1h-.2v-.1c-.1 0-.2 0-.2.1h-.2s0 .1-.1.1c-.1-.1-.3.1-.5.1l.1-.1c-.1 0-.2.1-.2.1-.1.1-.2.1-.4.2-.1-.1-.3.2-.4.1-.1.1.1 0 0 .1-.1 0-.1.1-.2 0l-.1.1v-.1c-.1.1-.1.2-.1.2-.1 0-.2.1-.3.1-.1.1-.2.1-.4.2-.1 0-.2.1-.3.2-.1 0-.1.1-.2.1v-.1l-.2.2c-.1.1-.2.1-.3.2l-.3.3c-.1.1-.1.2-.2.2 0 0-.1.1-.1.2l-.1.1v-.1c0 .1-.1.1-.2.2-.1 0-.1.1-.1 0 0 .1-.1.2-.1.3-.1.2-.1 0-.2.1s-.1.2-.2.3c0 .1-.1.1-.1.3 0 .1 0 .1-.1.1 0 0 0 .1-.1.1 0 0-.1.1-.1.2-.1.1-.1.2-.2.2-.1.3-.2.5-.2.7-.1 0 0 .1-.1.2h.1c0 .1-.1.2-.1.3 0 .1-.1.2-.1.3 0 .1-.1.2-.1.3 0 .1-.1.2-.1.3h-.1v.1c-.1.2-.1.5-.1.7v.7c0 .1 0 .1.1.2v.2c0 .2 0 .3.1.5v.6h-.1v.2-.1c.1.1 0 .2 0 .3l.1.1.5.2s.1.2.2.3v.1c0 .1 0 .2.1.3l.1.3v-.1c.1 0 .1.1.1.2-.1-.1-.1 0-.1.1.1.1 0-.1.1-.1.1.1.2.3.2.3.1.1 0 .2.1.3.1.1.1.2.2.1.1.1 0 .1 0 .1s.1.1.1.2v.2c.1 0 .1.1.2.2 0 .1.1.2.1.2v.2s.1 0 .2.1v.2h.1c.1.1.2.3.3.4.1.1.2.3.3.4.2.3.5.5.7.8.1.1.3.2.4.3.1 0 .2.1.2.1.1 0 .2.1.2.1.1.1.2.1.3.2l-.2-.2c.1 0 .1 0 .2.1s.2.1.3.2c.1.1.2.1.3.2.1.1.2.1.3.2.1 0 .2.1.3.1.2 0 .2 0 .2.1 0 0 .1.1.2.1h-.1c.2 0 .3 0 .4.1h.4c0 .1 0 .1.1.1h.1c.1 0 .2.1.2.1h.1v.1h.4c.1 0 .3 0 .3.1.2 0 .5 0 .8-.1h1c.1-.1.2-.1.4-.1h.2c.1-.1.2-.2.4-.2.1-.1.3 0 .4-.1.1 0 .3-.1.3 0 0-.1.1-.1.1-.1h.4s.1 0 .1-.1c.1 0 .2-.1.4-.2.1 0 .1-.1.2-.1s.2-.1.2-.1c.3-.2.7-.4 1.1-.7.4-.3.8-.7 1.1-1.1.4-.4.7-.9.9-1.4.3-.5.5-1 .6-1.5.1-.5.2-.9.2-1.3v-.6c0-.2 0-.3-.1-.4-.1-.1-.1-.2-.2-.2 0-.1.1-.2 0-.2 0 .2-.1-.1-.2.1v-.1.1h.1c0 .1 0 .1-.1.2 0 .1.2.1.1.3v-.1c0 .2-.1.1-.1.1s0 .1-.1.1v-.2.1c0 .1-.1.1-.1.1v.2s0-.1 0 0v.2c-.1 0 0 .2-.1.3 0-.1 0 0-.1 0v.4s0-.1 0 0v.1l-.1.2c-.1.1 0 .1 0 .2v.2c-.1 0 0-.2 0-.1l-.1.2s-.1-.1 0-.1c-.1.1-.1.2-.2.3-.3-.2-.3-.1-.4-.1-.1.1-.1.2-.2.3-.1.1-.1.2-.2.3-.1 0 0-.1 0-.1-.1.2-.1.3-.3.4l-.3.3-.1.1-.1.1c-.1.1-.2.2-.2.3-.2.2-.3.4-.5.5h.1c0 .1-.1.2-.1.2s0-.1-.1 0h.1c-.2.1-.5.3-.8.5-.3.2-.7.4-1 .5-.4.2-.9.3-1.3.4-.5.1-.9.1-1.4.1.1 0 .1.1 0 .1-.1-.1-.3-.1-.4-.1-.1 0-.3 0-.4-.1H20.2c-.1 0-.1 0-.2-.1h-.8v-.1H19c-.1 0-.2-.1-.3-.1-.1 0-.2-.1-.2-.1v.1c-.1 0 0-.1-.1-.1h-.1s0-.1-.1-.1c-.1-.3-.2-.3-.2-.4-.1-.1-.4-.2-.5-.3 0-.1-.2-.2-.3-.4-.3-.2-.6-.5-.8-.8l-.1.1-.1-.1c0-.1-.2-.2-.2-.3 0 .1 0 .1.1.1 0 .1-.1.1-.1 0h-.1s0-.1.1-.2c-.1-.1-.2-.2-.3-.4-.1-.1-.2-.2-.3-.4.1 0-.1-.2 0-.2-.1-.2-.1.1-.2 0 0-.1-.1-.1 0-.1 0 0 0-.1.1 0 0 0 0-.1-.1-.1-.2-.3-.1-.6-.2-.8v.1c-.1-.2 0-.2-.1-.5h.1c-.1-.1-.1-.1-.1-.2h.1s0 .1.1.1c0-.1-.1-.3-.1-.2v-.2s0 .1-.1 0v-.6c-.2 0-.1 0-.1-.2z"/><path class="st0" d="M20.2 16.3c-.1 0-.1 0-.1.1l.1-.1zM17 17.7zM16.4 18.4c.1-.1 0-.1 0 0zM22.3 16.1zM27.1 18.9zM27 18.6c-.1 0-.1-.1 0 0-.1-.1-.1 0 0 0zM20.9 16s0 .1 0 0c0 .1 0 .1 0 0zM26.9 18.5c-.1-.1-.1-.1 0 0zM27.1 19c0-.1 0-.1 0 0 0-.1 0-.1 0 0zM24.3 16.5zM26.5 18.3zM27.3 19.3c0-.1 0-.1 0 0 0-.1 0 0 0 0zM25.3 17.2c.1 0 .1 0 0 0 .1 0 .1 0 0 0zM25.1 28c0-.1 0-.1 0 0 0-.1 0-.1 0 0zM24.5 27.3zM25.4 28.3s0 .1 0 0c0 .1 0 .1 0 0zM22.9 26.2zM23.9 26.8zM25.2 29zM25.7 29.2zM25.6 29zM25.6 29zM16.6 28.8zM21 26zM16.8 29zM24.9 28.9zM20.9 27.6zM16.8 29c.1 0 0 0 0 0zM19.1 26.5zM19 26.5zM16.6 28.9zM18.1 27.1zM23.9 26.9zM22.9 27.6zM22.9 27.5c0 .1 0 .1 0 0zM22.8 27.5zM23.3 27.9zM23.2 27.8zM22.5 27.5zM21.4 27.6c.1 0 .1 0 .2-.1h.2c0-.1.1-.1.1-.1v.2-.1s.1 0 0 .1h.1s0-.1.1-.1v.1c.1.1.1-.2.2-.1 0-.1 0 .1 0 0s0 0 .1-.1h.1c0 .1.1 0 .1.1l.1-.1v.1-.1.1s0-.1.1 0h.1c0 .1 0 0 0 0v-.1s.1-.1 0 0c0 0 0-.1.1 0 0-.1.1 0 .1 0s0-.1.1 0v-.1c0 .1.1-.1.1 0 0 0 0 .1 0 0-.1.1-.1.2-.1.2v-.1s0-.1.1-.1v.1c.1 0 .1-.1.1 0 0 0 .1 0 0 .1s0 0 0 .1c0-.1.1 0 .1 0v-.1c.1-.2-.1.1 0 .1s0 0 0-.1v.2s0 .1.1 0c0-.1-.1.1-.1-.1v-.1h.1s.1-.1.1 0 0 0-.1 0v.1c0 .1 0 0-.1 0 .1-.1 0 0 .1 0s.1-.1.2-.1v.2-.1s0-.1.1-.1h.1v.1h.1c0-.1.1 0 .1-.1v.1c0 .1 0 0 0 0v.1-.1l-.1.1.1-.1c-.1.1 0 .1-.1.1 0 .1 0 .1.1.1v-.1c.1 0 .2-.1.2-.1h.1c-.1.1-.1.2 0 .2 0 0 0-.1.1-.1 0 0 0 .1.1.1v.1h.1c.1 0 0 0 0 .1 0 0 0-.1.1-.1-.1.1 0 .1 0 .1s0 .1 0 0l-.1.1c.1-.1.1-.1.1 0-.1.1 0 0 0 .1.1-.1.1 0 .1-.1 0 0 0 .1-.1.1v.1l.1-.1h.1c.1-.1 0 0 .1 0v.1s.2-.1.2-.2h.1l-.5.5.1-.1v.1l-.1.1h-.1.1l-.1.1v-.1h.1c.1-.1.1 0 .1-.1-.1 0 0 .1-.1.1 0 0 0-.1.1-.1v.1s0-.1.1-.1l-.1.1h.1s0-.1.1-.1h.1v.1h.1v.2h.1c-.1.1 0 .1.1.1l.1-.1s0 .1-.1.1c0 .1-.1 0-.1.1 0 0 .1-.1.1 0-.1 0 0 0 0 .1s.1-.1.2-.1c0 0 0 .1-.1.1s0-.1.1-.1c-.1.1 0 .1.1 0v-.2s-.1.1-.1 0h-.1l.1-.1-.1.1s.1-.1 0-.1c.1 0 .1-.1.1-.1 0-.1-.1 0-.1 0h-.1s.1 0 .1-.1c0 0 .1 0 .1-.1h-.1s0-.1.1-.1h-.1l.1-.1s-.2 0 0-.1h-.2c.1 0 0-.1.1-.1h-.1l.1-.1s.1-.1 0-.1h-.2v-.1c-.1 0 0-.1 0-.1 0-.1-.1 0-.1-.1h.1s-.1-.1-.1 0c0-.1.1-.1.1-.1h-.1s-.1 0 0-.1c0-.1-.1 0-.1-.1v-.1l-.1-.1h-.1c.1 0 0 0 0-.1h-.1v-.1s-.1.1-.1 0h-.1v-.1h-.1v-.1h-.1c-.1 0 0-.1-.1-.1s0-.1-.1 0v-.1l-.1.1V26.3v.1c-.2.1-.1-.2-.2-.2v-.1h-.1c0-.1 0 0 .1-.1-.1 0-.1.1-.1.1 0-.1 0 0 .1 0-.1 0-.1 0-.2-.1 0 0-.1 0-.1-.1 0 0-.1 0-.1-.1 0 0 0 .1-.1.1 0-.1-.1 0-.1-.1h-.2c0-.1-.1 0 0-.1 0 0 0 .1 0 0v-.1l-.1.1s-.1 0 0-.1c-.1 0 0-.2-.1-.1h-.1s-.1 0-.2-.1h-.1c-.1.1-.1-.1-.1-.1l-.1.1v-.1h-.2c-.1.1 0-.1-.1 0 0 0-.1 0 0-.1h-.2v-.1.1s-.1 0-.1-.1l-.1-.1v-.1.1c-.1 0-.2-.1-.3-.1l-.1.1c-.1 0-.2.1-.2 0v-.1c0 .1-.1 0-.1 0 0 .1-.1 0-.1 0v.1-.1s-.1 0-.1.1v-.1h-.1v.1-.1.1s-.1.1-.1 0l-.1-.1v.1-.1h-.1c0 .1-.1 0-.1.1v-.1.1s0-.1-.1-.1v.1h-.6c-.1.1-.1.1-.2.1h-.1.1v.1c-.1 0-.2 0-.3.1 0 .2-.1-.1-.1 0s-.1.1-.1.2c-.1-.1 0 0-.1 0v.1s-.1 0-.1-.1v.1s-.1.1-.2 0c0 .1-.2.2-.3.2v.1h-.1v.1s-.1 0 0 .1c0 0-.1 0-.1-.1.1.1-.1 0-.1 0s-.1 0-.2.1-.3.2-.5.4c-.4.3-.7.7-.6 1.1 0 0 0 .1.1.1h-.1c.1 0 .1.1.2.1 0 0 0-.1 0 0l-.2 1.2h.1s-.1-.1 0-.1h.2v.1h.1v-.1c.1.1 0-.1.1 0l.1.1v-.1h.1c.1 0-.1-.1 0-.1v.2c.1 0 .4.1.4 0 .1 0 0 0 0 .1 0-.1.2 0 .2 0 .2 0 .2-.1.3-.1v-.1l.1.1c.2 0 .3-.1.5-.2.1-.2.4-.2.5-.3 0 0-.1-.1 0-.1.2.1.1-.1.2 0 0-.1.1-.1.1-.1.1 0 .1 0 .1-.1l.1-.1v-.2c0 .1.1 0 .1 0l.1-.1c0 .1.1 0 .1 0 .1 0 .1-.1.2-.1v-.1c0 .1 0 0 .1 0 0-.1 0 0 0 0v-.1c0 .1 0 .1.1.1s.1-.1.2-.1c0 .1 0 0 .1.1v-.2.1c0-.1.1.1.2 0 0-.1.1.1.1 0v.1s0-.1 0 0v.1s.1 0 0-.1v.1-.1c-.1-.1 0-.1.1 0-.1 0-.1 0 0 0-.1-.1-.1.1 0 0zM23.4 27.9c-.1 0-.1 0 0 0zM22.7 27.5zM22.5 27.6s0-.1 0 0c0-.1 0 0 0 0zM23.8 28zM24.8 28.8zM24.8 28.7z"/><path class="st0" d="M23.6 27.8s-.1 0 0 0c-.1.1-.1 0 0 0zM24.8 28.7zM24.8 28.8zM24.3 28.2c-.1 0-.1 0 0 0zM24.7 28.7zM24.9 28.9zM24.4 28.4s.1 0 0 0c.1 0 0 0 0 0z"/></svg>