<svg width="48" height="48" viewBox="0 0 48 48" fill="none" xmlns="http://www.w3.org/2000/svg">
<path d="M44.5902 0.590164L25.377 19.8033C24.5902 20.5902 23.3443 20.5902 22.623 19.8033L3.40984 0.590164C2.62295 -0.196721 1.37705 -0.196721 0.655737 0.590164C-0.131148 1.37705 -0.131148 2.62295 0.655737 3.34426L19.8689 22.5574C20.6557 23.3443 20.6557 24.5902 19.8689 25.3115L0.590164 44.5902C-0.196721 45.3771 -0.196721 46.623 0.590164 47.3443C1.37705 48.1312 2.62295 48.1312 3.34426 47.3443L22.5574 28.1311C23.3443 27.3443 24.5902 27.3443 25.3115 28.1311L44.5902 47.4098C45.3771 48.1967 46.623 48.1967 47.3443 47.4098C48.1311 46.623 48.1311 45.3771 47.3443 44.6557L28.1967 25.3771C27.4098 24.5902 27.4098 23.3443 28.1967 22.623L47.4098 3.40984C48.1967 2.62295 48.1967 1.37705 47.4098 0.655737C46.623 -0.131148 45.3771 -0.131148 44.5902 0.590164Z" fill="white"/>
</svg>