<svg width="24" height="36" fill="none" xmlns="http://www.w3.org/2000/svg"><g clip-path="url(#a)"><path d="M6.001 36A6.002 6.002 0 0 0 12 30v-6H6.001a6.002 6.002 0 0 0-5.999 6c0 3.312 2.688 6 6 6Z" fill="#0ACF83"/><path d="M.002 18c0-3.312 2.688-6 6-6H12v12H6.001a6.002 6.002 0 0 1-5.999-6Z" fill="#A259FF"/><path d="M.002 6c0-3.312 2.688-6 6-6H12v12H6.001A6.002 6.002 0 0 1 .002 6Z" fill="#F24E1E"/><path d="M12 0h5.999a6.002 6.002 0 0 1 5.999 6c0 3.312-2.688 6-6 6H12V0Z" fill="#FF7262"/><path d="M23.998 18c0 3.312-2.688 6-6 6A6.002 6.002 0 0 1 12 18c0-3.312 2.688-6 5.999-6a6.002 6.002 0 0 1 5.999 6Z" fill="#1ABCFE"/></g><defs><clipPath id="a"><path fill="#fff" d="M0 0h24v36H0z"/></clipPath></defs></svg>