<svg width="32" height="32" fill="none" xmlns="http://www.w3.org/2000/svg"><g clip-path="url(#a)"><path d="M5.667 0h20.666c.745 0 1.482.15 2.17.44.688.293 1.313.72 1.839 1.26s.944 1.182 1.228 1.887c.285.705.43 1.462.43 2.225v20.376c0 .764-.145 1.52-.43 2.225a5.817 5.817 0 0 1-1.228 1.886 5.654 5.654 0 0 1-1.84 1.26 5.54 5.54 0 0 1-2.169.441H5.667a5.54 5.54 0 0 1-2.17-.44 5.654 5.654 0 0 1-1.839-1.26A5.818 5.818 0 0 1 .43 28.412 5.936 5.936 0 0 1 0 26.188V5.812c0-.763.145-1.52.43-2.225a5.819 5.819 0 0 1 1.228-1.886A5.654 5.654 0 0 1 3.498.44 5.539 5.539 0 0 1 5.666 0Z" fill="#001E36"/><path d="M7.2 22.441V8.369c0-.096.04-.15.133-.15.227 0 .44 0 .747-.014s.653-.014 1.013-.027c.36-.014.747-.014 1.16-.028.414-.013.814-.013 1.214-.013 1.093 0 2 .136 2.746.424.67.233 1.28.616 1.787 1.121.43.442.762.974.973 1.559.202.57.306 1.171.307 1.778 0 1.176-.267 2.147-.8 2.913a4.582 4.582 0 0 1-2.147 1.668c-.906.342-1.906.465-3 .465-.32 0-.533 0-.666-.014-.134-.013-.32-.013-.574-.013v4.39a.174.174 0 0 1-.084.17.165.165 0 0 1-.062.02H7.36c-.107 0-.16-.054-.16-.177Zm2.907-11.583v4.595c.186.014.36.027.52.027h.706c.52 0 1.038-.082 1.534-.246a2.29 2.29 0 0 0 1.093-.725c.28-.341.413-.806.413-1.408a2.296 2.296 0 0 0-.306-1.217 1.945 1.945 0 0 0-.934-.78 3.827 3.827 0 0 0-1.573-.273c-.347 0-.653 0-.907.013a2.981 2.981 0 0 0-.546.014Zm15.493 3.76a4.643 4.643 0 0 0-1.28-.464 6.869 6.869 0 0 0-1.493-.178c-.27-.01-.54.023-.8.096a.682.682 0 0 0-.414.273.738.738 0 0 0-.106.37c.006.13.053.254.133.355.126.152.28.277.453.37.307.163.627.314.947.45.72.25 1.41.584 2.053.999.438.282.8.672 1.054 1.135.214.436.32.92.306 1.408.011.647-.17 1.281-.52 1.82-.372.545-.89.968-1.493 1.216-.653.288-1.453.438-2.413.438a8.959 8.959 0 0 1-1.814-.178 5.284 5.284 0 0 1-1.36-.437.279.279 0 0 1-.147-.26v-2.38a.153.153 0 0 1 .054-.123.099.099 0 0 1 .12.014c.514.31 1.071.536 1.653.67a6.06 6.06 0 0 0 1.574.205c.506 0 .866-.068 1.106-.191a.625.625 0 0 0 .262-.234.648.648 0 0 0 .098-.34c0-.192-.106-.37-.32-.548-.213-.177-.653-.383-1.306-.642a8.08 8.08 0 0 1-1.894-.985 3.511 3.511 0 0 1-1.013-1.163 2.997 2.997 0 0 1-.307-1.394 3.279 3.279 0 0 1 .454-1.655 3.313 3.313 0 0 1 1.4-1.258c.626-.328 1.413-.479 2.36-.479.553 0 1.105.041 1.653.123.394.055.779.16 1.147.315a.237.237 0 0 1 .133.123.7.7 0 0 1 .027.164v2.229a.172.172 0 0 1-.067.137.346.346 0 0 1-.24 0Z" fill="#31A8FF"/></g><defs><clipPath id="a"><path fill="#fff" d="M0 0h32v32H0z"/></clipPath></defs></svg>